<?xml version="1.0" standalone="no"?>
<!DOCTYPE svg PUBLIC "-//W3C//DTD SVG 1.1//EN" "http://www.w3.org/Graphics/SVG/1.1/DTD/svg11.dtd" >
<svg xmlns="http://www.w3.org/2000/svg">
<metadata>
This is a custom SVG webfont generated by Font Squirrel.
Copyright   : Copyright c 2001 by Frantisek Storm wwwstormtypecom All rights reserved
Designer    : Frantisek Storm
Foundry     : Frantisek Storm wwwstormtypecom
Foundry URL : wwwstormtypecom
</metadata>
<defs>
<font id="AbcGreenRegular" horiz-adv-x="1138" >
<font-face units-per-em="2048" ascent="1638" descent="-410" />
<missing-glyph horiz-adv-x="516" />
<glyph unicode=" "  horiz-adv-x="516" />
<glyph unicode="&#x09;" horiz-adv-x="516" />
<glyph unicode="&#xa0;" horiz-adv-x="516" />
<glyph unicode="!" horiz-adv-x="677" d="M225 109q0 51 34 84.5t83 33.5q51 0 86 -33.5t35 -84.5q0 -49 -35 -83t-86 -34q-49 0 -83 34t-34 83zM227 1425q0 20 19 21h192q6 0 12.5 -6t6.5 -15l-47 -1028q0 -6 -6.5 -12t-12.5 -6h-98q-8 0 -13.5 6t-5.5 12z" />
<glyph unicode="&#x22;" horiz-adv-x="722" d="M102 1425q-4 20 17 21h164q6 0 12 -6t4 -15l-39 -389q0 -6 -6 -12t-12 -6h-82q-8 0 -13.5 6t-5.5 12zM422 1425q0 20 18 21h162q8 0 14.5 -6t4.5 -15l-39 -389q0 -6 -7.5 -12t-13.5 -6h-80q-8 0 -14 6t-6 12z" />
<glyph unicode="#" horiz-adv-x="1355" d="M100 401v86q0 8 6.5 13.5t12.5 5.5h289v264h-289q-6 0 -12.5 6t-6.5 12v86q0 8 6.5 13.5t12.5 5.5h289v356q0 20 18 21h106q6 0 12.5 -6.5t6.5 -14.5v-356h256v356q0 20 18 21h107q6 0 12 -6.5t6 -14.5v-356h285q20 0 20 -19v-86q0 -6 -6 -12t-14 -6h-285v-264h285 q20 0 20 -19v-86q0 -6 -6 -12t-14 -6h-285v-365q0 -6 -6 -12t-12 -6h-107q-8 0 -13 6t-5 12v365h-256v-365q0 -6 -6 -12t-13 -6h-106q-8 0 -13 6t-5 12v365h-289q-6 0 -12.5 6t-6.5 12zM551 506h256v264h-256v-264z" />
<glyph unicode="$" horiz-adv-x="1132" d="M158 250v98q0 29 14 29q16 0 25 -10q66 -74 151.5 -110t165.5 -40v438q-184 63 -261 149.5t-77 219.5q0 59 21.5 117.5t63.5 106.5t105.5 82t147.5 46v213q0 20 18 21h89q6 0 13 -6.5t7 -14.5v-211q119 -6 192.5 -43t110.5 -80q18 -18 24.5 -34.5t6.5 -32.5 q0 -39 -22.5 -62.5t-59.5 -23.5t-68 31q-33 41 -76.5 66.5t-107.5 35.5v-442q106 -37 177 -76t113 -83t59.5 -97.5t17.5 -118.5q0 -72 -28 -131.5t-76 -103.5t-114.5 -71.5t-144.5 -35.5v-250q0 -6 -7 -13.5t-13 -7.5h-93q-8 0 -13 7.5t-5 13.5v250q-102 4 -190 39t-148 88 q-18 18 -18 47zM342 1042q0 -84 42 -132t142 -81v406q-90 -12 -137 -66.5t-47 -126.5zM633 215q92 10 151.5 60.5t59.5 132t-50.5 132t-160.5 85.5v-410z" />
<glyph unicode="%" horiz-adv-x="1777" d="M115 1112q0 68 21.5 133.5t64.5 116.5t107.5 83t150.5 32q88 0 153.5 -32t108.5 -83t63.5 -116.5t20.5 -133.5t-22.5 -133.5t-66.5 -116.5t-108.5 -81.5t-150.5 -30.5t-150.5 30.5t-106.5 81.5t-63.5 116.5t-21.5 133.5zM182 14q0 5 2 11l1196 1400q4 6 14.5 13.5 t18.5 7.5h141q10 0 11.5 -8t-2.5 -17l-1194 -1403q-4 -4 -13.5 -11t-15.5 -7h-145q-13 0 -13 14zM283 1106q0 -131 44 -187.5t132 -56.5q86 0 133 54.5t47 189.5q0 129 -43 187.5t-137 58.5t-135 -58.5t-41 -187.5zM961 346.5q0 67.5 21.5 133t65.5 116.5t108.5 83t150.5 32 q88 0 152.5 -32t107.5 -83t63.5 -116.5t20.5 -133t-22.5 -133.5t-66.5 -117t-108.5 -81.5t-150.5 -30.5t-151 30.5t-106.5 81.5t-63 117t-21.5 133.5zM1128 340q0 -131 44.5 -188.5t132.5 -57.5q86 0 133 55.5t47 190.5q0 127 -43 186.5t-137.5 59.5t-135.5 -58.5 t-41 -187.5z" />
<glyph unicode="&#x26;" horiz-adv-x="1667" d="M86 319q0 158 102.5 266.5t313.5 194.5q-72 86 -115 173t-43 192q0 72 28.5 135t80 110.5t123 75t157.5 27.5q82 0 148.5 -22.5t112.5 -62.5t72 -95.5t26 -122.5q0 -135 -101.5 -241.5t-273.5 -174.5l129 -149q72 -80 143 -148q61 147 113.5 249.5t106 168.5t112.5 95.5 t137 29.5t113 -34t35 -87q0 -104 -82 -104q-23 0 -35 7t-23.5 16t-26 17.5t-38.5 8.5q-37 0 -70 -23.5t-69.5 -76t-81.5 -137.5l-107 -208q133 -133 235.5 -193.5t174.5 -60.5q31 0 53 9q29 8 29 -19v-100q0 -29 -30 -39t-87 -10q-106 0 -221 74.5t-238 191.5 q-43 -80 -93 -133t-108.5 -86t-128 -46.5t-155.5 -13.5q-197 0 -307.5 92t-110.5 254zM295 367q0 -51 17.5 -97.5t50 -80t78.5 -53t104 -19.5q113 0 197.5 44t150.5 171q-92 86 -174 177t-160 189q-78 -37 -128 -75.5t-81 -79.5t-43 -85t-12 -91zM522 1159q0 -80 34 -149.5 t101 -159.5q145 68 204 144.5t59 181.5q0 82 -45.5 132t-141.5 50q-111 0 -161 -54.5t-50 -144.5z" />
<glyph unicode="'" horiz-adv-x="401" d="M102 1425q-4 20 17 21h164q6 0 12 -6t4 -15l-39 -389q0 -6 -6 -12t-12 -6h-82q-8 0 -13.5 6t-5.5 12z" />
<glyph unicode="(" horiz-adv-x="860" d="M190 522.5q0 235.5 62.5 414.5t159 301t210 183.5t216.5 61.5q6 0 12 -6.5t6 -14.5v-82q0 -6 -6 -12t-12 -6q-74 0 -153 -53.5t-143.5 -157.5t-105.5 -262t-41 -367t41 -366.5t105.5 -262t143.5 -157.5t153 -53q6 0 12 -6.5t6 -12.5v-82q0 -8 -6 -14t-12 -6 q-102 0 -216 61.5t-210.5 183t-159 301t-62.5 415z" />
<glyph unicode=")" horiz-adv-x="864" d="M2 -336q0 6 6 12.5t12 6.5q74 0 153 53t143.5 157.5t106.5 262t42 366.5t-42 367t-106.5 262t-143.5 157.5t-153 53.5q-6 0 -12 6t-6 12v82q0 8 6 14.5t12 6.5q102 0 216 -61.5t210.5 -183.5t159 -301t62.5 -414.5t-62.5 -415t-159 -301t-210 -183t-216.5 -61.5 q-6 0 -12 6t-6 14v82z" />
<glyph unicode="*" horiz-adv-x="968" d="M63 987q10 41 45 65.5t70 30.5v7q-31 8 -56 37q-18 21 -18 47q0 10 2 20q10 41 47 69.5t78 28.5q43 0 73 -29.5t53 -64.5l45 -64q22 -30 49 -30q10 0 18 7t12 17q4 27 -19 54l-53 57q-30 31 -52 68q-15 25 -14 52q0 13 3 27q8 41 42 72t81 31q31 0 55.5 -27.5t26.5 -62.5 h4q14 35 48 62.5t69 27.5q41 0 65 -31q17 -22 18 -48q0 -11 -3 -24q-8 -41 -45 -74.5t-78 -64.5l-77 -59q-36 -29 -44 -58q-4 -27 22.5 -26.5t60.5 30.5l73 64q39 35 79.5 64.5t83.5 29.5q45 0 67 -30q16 -22 16 -50q0 -11 -3 -22q-10 -41 -45 -66.5t-69 -31.5v-5 q29 -8 54 -36q19 -22 19 -50q0 -9 -2 -18q-10 -39 -45 -68.5t-80 -29.5q-43 0 -72.5 29.5t-53.5 64.5l-44 64q-20 30 -45 30q-12 0 -21 -7t-9 -17q-6 -27 17.5 -54.5l52 -58.5t49.5 -67q15 -24 15 -52q0 -14 -3 -29q-8 -41 -42 -70.5t-81 -29.5q-31 0 -55.5 22.5t-28.5 59.5 h-4q-18 -37 -49 -59.5t-66 -22.5q-41 0 -66 30q-17 21 -17 47q0 11 3 23q8 43 46 79t79 67l77 58q36 28 42 57q2 10 -5 17t-18 7q-27 0 -60 -30l-73 -64q-39 -35 -80 -64.5t-84 -29.5q-41 0 -64 30q-17 23 -18 52q0 9 2 20z" />
<glyph unicode="+" horiz-adv-x="1021" d="M90 498v116q0 20 19 21h165q35 0 84.5 -1t77.5 -5q-6 41 -8 91t-2 85v145q0 6 6 12.5t14 6.5h134q6 0 12 -6.5t6 -12.5v-143q0 -35 -1 -86t-5 -92q31 4 68.5 5t91.5 1h161q6 0 12.5 -6t6.5 -15v-116q0 -6 -6 -12.5t-13 -6.5h-163q-57 0 -93 1t-65 5q4 -25 5 -67.5 t1 -89.5v-168q0 -8 -6 -13.5t-12 -5.5h-134q-20 0 -20 19v170q0 98 10 155q-33 -4 -83 -5t-85 -1h-159q-8 0 -13.5 6.5t-5.5 12.5z" />
<glyph unicode="," horiz-adv-x="548" d="M66 -262l129 473q4 8 9 15t13 7h184q8 0 15 -7q4 -4 3 -9q0 -4 -1 -8l-213 -471q-4 -8 -11.5 -15.5t-13.5 -7.5h-96q-10 0 -15 7.5t-3 15.5z" />
<glyph unicode="-" horiz-adv-x="614" d="M84 487v138q0 20 18 20h408q6 0 12 -6t6 -14v-138q0 -6 -6 -12t-12 -6h-408q-8 0 -13 6t-5 12z" />
<glyph unicode="." horiz-adv-x="542" d="M141 114.5q0 53.5 38 91.5t91 38q55 0 92 -38t37 -91.5t-36.5 -91t-92.5 -37.5q-53 0 -91 37.5t-38 91z" />
<glyph unicode="/" horiz-adv-x="985" d="M-80 -401l952 1826q4 6 12.5 13.5t16.5 7.5h162q6 0 9 -7q1 -3 1 -6q0 -4 -2 -8l-952 -1826l-11 -12q-7 -7 -14 -7h-162q-8 0 -12 7q-2 4 -2 7t2 5z" />
<glyph unicode="0" d="M76 729q0 166 34.5 305.5t100 241.5t158 159.5t206.5 57.5q123 0 214.5 -59.5t151.5 -162t91 -241.5t31 -301t-31 -300t-94 -239.5t-157.5 -159t-219.5 -57.5q-117 0 -208 56.5t-152.5 157t-93 239.5t-31.5 303zM285 725q0 -283 70.5 -445.5t213.5 -162.5 q145 0 214 159.5t69 448.5q0 137 -14.5 249.5t-47 193.5t-86 125t-133.5 44q-78 0 -132 -43t-89 -121.5t-50 -192.5t-15 -255z" />
<glyph unicode="1" d="M193 1153v117q0 20 20 28l463 175q6 2 12 1q7 0 14 -3q12 -5 13 -15v-1128q0 -100 -6 -195q35 4 70 4h69h108q23 0 23 -18l10 -101q2 -18 -22 -18h-703q-27 0 -22 18l10 101q0 18 22 18h119h68q35 0 65 -4q-6 94 -6 191v745q0 96 6 195q-41 -20 -80 -36l-75 -30l-152 -55 q-26 -10 -26 10z" />
<glyph unicode="2" d="M102 57q0 35 13 43q180 152 313 277t220 236.5t129 217t42 216.5q0 133 -66.5 207.5t-185.5 74.5q-63 0 -109 -18.5t-77 -49t-45 -70.5t-14 -81t-29 -62.5t-72 -21.5t-71.5 23.5t-28.5 76.5q0 43 22.5 105.5t75.5 121t143.5 99.5t223.5 41q100 0 181 -30.5t138.5 -88 t88 -137.5t30.5 -180q0 -131 -58.5 -256t-152.5 -242t-213 -221.5t-240 -194.5q36 2 84 5q47 3 99.5 4.5t105.5 3.5t103 2q111 0 179 4t91 4q22 0 22 -15q0 -3 -2 -8l-14 -125q-4 -18 -24 -18h-869q-12 0 -22.5 16t-10.5 41z" />
<glyph unicode="3" d="M111 129v100q0 25 16 25q10 0 27 -12q72 -59 160.5 -90t187.5 -31q68 0 126 17.5t101 52t66.5 86t23.5 118.5q0 82 -25.5 135.5t-80 84t-138 43t-200.5 12.5q-20 0 -21 20v90q0 25 21 25q113 0 191.5 17.5t127.5 54t71.5 93t22.5 134.5q0 115 -60 175t-185 60 q-59 0 -101.5 -14t-70 -34.5t-44 -46t-26.5 -46.5q-25 -45 -82 -45q-35 0 -61.5 20.5t-26.5 67.5q0 27 19.5 70t67.5 84t130 69.5t207 28.5q109 0 191.5 -26.5t139 -73.5t85 -110.5t28.5 -139.5q0 -84 -27.5 -152.5t-78.5 -119t-124 -81t-161 -38.5q199 -6 311.5 -102.5 t112.5 -272.5q0 -86 -34.5 -160t-100.5 -128t-161 -85t-218 -31t-223 33t-166 84q-18 12 -18 39z" />
<glyph unicode="4" d="M35 416v65q0 18 14 43l139 236l145 223l157 224l180 239h151q20 0 21 -21v-710v-90q0 -47 -4 -90q61 4 124 4h130q23 0 22 -19l-12 -106q-2 -10 -6 -14.5t-17 -4.5h-126q-58 0 -115 4q4 -41 4 -86v-86v-209q0 -6 -6.5 -12t-14.5 -6h-139q-10 0 -15 6t-5 12v213v86 q0 43 4 82q-47 -4 -93 -4h-86h-426q-26 1 -26 21zM215 532q27 2 63 4l73 2q38 1 75 1h70h83q42 0 87 -4q-4 43 -5 89v93v254v60q0 34 1.5 68t3.5 66.5t4 59.5l-114 -165l-121 -177l-117 -180q-56 -89 -103 -171z" />
<glyph unicode="5" d="M98 162q0 47 27 71.5t65 24.5q20 0 33 -6t21 -15.5l16 -19.5t19 -20q41 -43 88 -59.5t116 -16.5q143 0 234.5 87t91.5 249q0 70 -19.5 128t-59.5 101t-104.5 66.5t-152.5 23.5q-63 0 -107 -6t-74 -13t-47.5 -13.5t-29.5 -6.5q-25 0 -25 17v663q0 29 33 29h672 q23 0 25 -17l10 -116q4 -23 -25 -23q-53 0 -115.5 3t-158.5 3h-131q-66 0 -133 4q2 -47 3 -97t1 -97q0 -53 -1 -102.5t-3 -98.5q35 8 73.5 10.5t73.5 2.5q129 0 224.5 -34t156.5 -93.5t91 -141.5t30 -180q0 -100 -35 -190.5t-103.5 -158t-170 -107.5t-234.5 -40 q-113 0 -185.5 20.5t-114.5 49.5t-58.5 61.5t-16.5 57.5z" />
<glyph unicode="6" d="M90 616q0 219 52.5 384t141.5 274.5t208.5 164t252.5 54.5q80 0 132.5 -11.5t85 -30.5t46 -44t13.5 -51q0 -37 -22.5 -61.5t-59.5 -24.5q-29 0 -46 11l-40 26q-23 14 -56.5 25t-90.5 11q-82 0 -154 -37.5t-129 -115.5t-96 -199t-54 -286q18 47 51 90t79.5 75.5t106.5 52 t136 19.5q96 0 173 -34t130.5 -94t82 -145t28.5 -188q0 -111 -35 -204t-98.5 -160.5t-152.5 -105.5t-197 -38q-227 0 -357.5 167t-130.5 476zM299 492q0 -180 79 -281.5t214 -101.5q133 0 196.5 92t63.5 252q0 98 -19.5 165.5t-54.5 109.5t-83 60.5t-103 18.5 q-74 0 -129 -25.5t-91 -68.5t-54.5 -100.5t-18.5 -120.5z" />
<glyph unicode="7" d="M102 1292l21 138q2 16 20 16h934q10 0 17.5 -8t7.5 -25q0 -14 -8 -24l-187 -353q-88 -174 -154.5 -341t-106.5 -324.5t-40 -304.5q0 -43 -33.5 -67t-80.5 -24q-51 0 -86 25t-35 74q0 70 26.5 183.5t86 268t153.5 346t229 418.5q-84 -6 -168 -8t-159 -2q-147 0 -260 -3 t-158 -3q-23 0 -19 18z" />
<glyph unicode="8" d="M78 336q0 49 17.5 100t58.5 102.5t107.5 102.5t166.5 100q-59 31 -112.5 69t-94.5 84t-65.5 103.5t-24.5 130.5q0 70 31 136.5t89 117t140 81t184 30.5q106 0 188.5 -26.5t137.5 -72.5t84 -105.5t29 -125.5q0 -111 -80 -204t-234 -173q100 -49 169 -98t111 -99 t60.5 -105.5t18.5 -118.5q0 -92 -37 -164t-102.5 -122t-154.5 -77t-194 -27q-115 0 -207 26t-155.5 72t-97 112.5t-33.5 150.5zM289 344q0 -117 80 -179.5t204 -62.5q139 0 211 69t72 169q0 51 -16.5 94t-54 83t-100 81t-157.5 90q-68 -43 -113.5 -82t-73.5 -81t-40 -86 t-12 -95zM328 1151q0 -92 64.5 -163t203.5 -142q102 59 161.5 131t59.5 174q0 94 -61.5 152.5t-184.5 58.5q-125 0 -184 -60.5t-59 -150.5z" />
<glyph unicode="9" d="M94 979q0 113 36 207t100.5 162.5t153.5 106.5t196 38q123 0 213 -48t149 -135t88 -208t29 -266q0 -221 -46 -384t-129 -268.5t-196 -158t-244 -52.5q-184 0 -299 86q-10 8 -13 15.5t-3 17.5v111q0 25 16 24q8 0 11.5 -3t11.5 -7q55 -43 130 -68.5t153 -25.5 q102 0 179 46t130 128t82.5 194.5t38.5 245.5q-45 -121 -145.5 -181t-223.5 -60q-88 0 -164 31.5t-132 93t-89 151.5t-33 207zM301 997q0 -98 19.5 -167.5t55.5 -113.5t83 -64.5t102 -20.5q76 0 131.5 27.5t91 75.5t52 110.5t16.5 132.5q0 186 -77 284.5t-193 98.5 q-78 0 -131.5 -27.5t-86 -77t-48 -116t-15.5 -142.5z" />
<glyph unicode=":" horiz-adv-x="542" d="M141 114.5q0 53.5 38 91.5t91 38q55 0 92 -38t37 -91.5t-36.5 -91t-92.5 -37.5q-53 0 -91 37.5t-38 91zM141 883q0 55 38 92t91 37q55 0 92 -37t37 -92q0 -53 -36.5 -91t-92.5 -38q-53 0 -91 38t-38 91z" />
<glyph unicode=";" horiz-adv-x="546" d="M66 -262l129 473q4 23 22 22h182q10 0 15.5 -7t1.5 -17l-213 -471q-8 -20 -25 -21h-96q-10 0 -15 7q-3 3 -3 7q0 3 2 7zM160 883q0 55 39 92t92 37t91 -37t38 -92q0 -53 -38 -91t-91 -38t-92 38t-39 91z" />
<glyph unicode="&#x3c;" horiz-adv-x="991" d="M100 507.5q0 24.5 4.5 36t16.5 17.5l739 387q10 6 18 6q3 0 6 -1q9 -3 9 -15v-57q0 -14 -4 -20.5t-19 -16.5l-499 -324l503 -348q12 -10 15.5 -16t3.5 -17v-65q0 -10 -9 -13q-3 -1 -7 0q-6 0 -13 2l-743 392q-12 8 -16.5 18t-4.5 34.5z" />
<glyph unicode="=" horiz-adv-x="1005" d="M84 674v112q0 20 18 21h801q6 0 12.5 -6t6.5 -15v-112q0 -6 -6.5 -12.5t-12.5 -6.5h-801q-8 0 -13 6.5t-5 12.5zM84 283v110q0 20 18 21h801q6 0 12.5 -6.5t6.5 -14.5v-110q0 -6 -6.5 -12.5t-12.5 -6.5h-801q-8 0 -13 6.5t-5 12.5z" />
<glyph unicode="&#x3e;" horiz-adv-x="991" d="M100 877v65q0 10 10 12q3 1 6 1q6 0 13 -3l743 -391q12 -8 16.5 -18.5t4.5 -35t-4 -35.5t-17 -17l-739 -387q-10 -6 -18 -6h-5q-9 3 -10 16v57q0 14 3 20.5t20 16.5l500 324l-504 348q-14 10 -16.5 16.5t-2.5 16.5z" />
<glyph unicode="?" horiz-adv-x="985" d="M94 1251q0 27 17.5 65t57.5 72.5t106.5 58t166.5 23.5q111 0 201 -30.5t152.5 -89t97.5 -141.5t35 -185q0 -176 -91.5 -277.5t-252.5 -101.5q-88 0 -135 27q4 -76 6 -154t2 -125q0 -6 -6.5 -12t-12.5 -6h-110q-8 0 -13.5 6t-5.5 12v418q0 18 17 18q8 0 22 -10 q35 -18 71 -29.5t95 -11.5q106 0 162.5 64.5t56.5 185.5q0 131 -77.5 206t-200.5 75q-78 0 -122 -29t-66.5 -57.5t-42 -44t-48.5 -15.5q-41 0 -61.5 23.5t-20.5 64.5zM276 109q0 51 34 84.5t83 33.5q51 0 86 -33.5t35 -84.5q0 -49 -35 -83t-86 -34q-49 0 -83 34t-34 83z" />
<glyph unicode="@" horiz-adv-x="1939" d="M100 406q0 193 73 355.5t196 281t282.5 185t335.5 66.5q102 0 173 -25.5t116 -68.5t64.5 -101.5t19.5 -123.5q0 -51 -2 -128t-5 -158t-5 -154.5t-2 -118.5q0 -100 13 -155.5t42 -80.5q6 -10 9 -14t3 -14q0 -23 -20 -23h-76q-53 0 -76 47q-8 20 -18.5 63.5t-12.5 94.5 q-16 -43 -46.5 -85t-75 -75t-99.5 -52.5t-123 -19.5q-135 0 -213 74t-78 186q0 78 36 148t111 123t188.5 88t267.5 45v168q0 104 -43 154.5t-156 50.5q-166 0 -295 -63.5t-217 -166t-134 -229.5t-46 -254q0 -125 41 -235.5t120.5 -193.5t200.5 -132t281 -49q166 0 307 46 t245.5 136t164 223t59.5 309q0 111 -28.5 217.5t-82.5 198.5q-2 4 -4 10.5t-2 12.5q0 18 19 18h77q23 0 35 -22q53 -98 89 -217t36 -256q0 -193 -71.5 -346.5t-198.5 -260t-300 -164t-374 -57.5q-190 0 -339.5 60.5t-252 162t-156 235.5t-53.5 284zM770 397q0 -76 46 -113.5 t108 -37.5q49 0 95 20.5t81 55t56.5 83t21.5 101.5v166q-111 -8 -189 -33t-126 -61.5t-70.5 -83t-22.5 -97.5z" />
<glyph unicode="A" horiz-adv-x="1292" d="M4 33l526 1394q2 6 8.5 12.5t12.5 6.5h186q16 0 25 -19l526 -1394q4 -9 4 -16q0 -17 -22 -17h-176q-16 0 -25 20l-89 241q-42 118 -69 210q-66 -4 -136 -5t-136 -1q-68 0 -137.5 1t-134.5 5q-12 -41 -31 -96l-40 -116l-45 -122l-44 -117q-8 -20 -23 -20h-161 q-22 0 -22 17q-1 7 3 16zM412 602q57 4 116.5 5t114.5 1h113q57 0 108 -4l-21 52l-28 70l-29 77l-26 74q-86 242 -121 403q-18 -80 -49 -180.5t-72 -214.5l-30 -80l-29 -80l-27 -71z" />
<glyph unicode="B" horiz-adv-x="1318" d="M188 18v1407q0 20 19 21h438q139 0 230.5 -32t145.5 -81t75.5 -109.5t21.5 -117.5q0 -66 -25.5 -119t-68.5 -95t-99.5 -69.5t-117.5 -42.5q76 -6 149.5 -35.5t132 -81t93.5 -123t35 -157.5q0 -174 -126 -278.5t-352 -104.5h-532q-8 0 -13.5 6t-5.5 12zM389 1298 q6 -121 6 -233q0 -59 -1 -120.5t-5 -119.5q45 4 92 5t94 1q172 0 250 66t78 168q0 115 -69.5 172t-219.5 57h-112q-60 0 -113 4zM389 147q78 4 160 5.5t160 1.5q293 0 292 254q0 63 -21.5 115t-65.5 89t-114.5 57.5t-168.5 20.5q-59 0 -122 1t-120 5q6 -133 6 -270.5 t-6 -278.5z" />
<glyph unicode="C" horiz-adv-x="1366" d="M121 717q0 160 52 301t150.5 246.5t240 167t317.5 61.5q125 0 229 -29.5t176 -81.5q14 -10 18.5 -22t4.5 -31v-137q0 -33 -27 -33q-10 0 -27 12q-72 68 -169 106t-205 38q-131 0 -231.5 -43t-169 -121t-103.5 -186.5t-35 -239.5q0 -135 39 -243.5t108.5 -183.5t166 -116 t210.5 -41q117 0 212.5 31t181.5 102q16 10 24 11q25 0 25 -29v-109q0 -18 -5.5 -26t-17.5 -19q-90 -66 -196.5 -97.5t-262 -31.5t-285.5 54.5t-223.5 153t-145.5 235.5t-52 301z" />
<glyph unicode="D" horiz-adv-x="1538" d="M188 18v1407q0 20 19 21h452q172 0 312.5 -49t240 -143.5t152.5 -230.5t53 -310q0 -176 -54 -309.5t-152.5 -223.5t-234.5 -135t-300 -45h-469q-8 0 -13.5 6t-5.5 12zM389 1290q6 -123 6 -252v-563q0 -94 -1 -171t-5 -148q80 4 143.5 5t139.5 1q106 0 201.5 29.5t166 96 t112.5 173t42 260.5q0 119 -30.5 222.5t-97.5 179t-171 118.5t-252 43q-57 0 -128 1t-126 5z" />
<glyph unicode="E" horiz-adv-x="1163" d="M188 18v1407q0 20 19 21h860q12 0 16 -19l15 -127q0 -16 -15 -16q-47 0 -105 1t-119.5 1t-119 1t-102.5 1q-80 0 -137.5 1t-110.5 5q4 -59 5 -118.5t1 -112.5q0 -117 -6 -236q47 4 103.5 6.5t134.5 2.5t135 1t94 1q14 0 14 -19v-123q0 -16 -14 -16q-39 0 -97.5 1 t-135.5 1q-66 0 -124.5 3t-109.5 7q6 -135 6 -260q0 -143 -6 -280q37 2 71 3t72.5 2t82.5 1h102q98 0 201.5 2t195.5 2q14 0 14 -19l-16 -127q-4 -16 -14 -16h-891q-8 0 -13.5 6t-5.5 12z" />
<glyph unicode="F" horiz-adv-x="1058" d="M188 18v1407q0 20 19 21h862q10 0 14 -19l15 -127q0 -16 -15 -16q-47 0 -105 1t-118.5 1t-119 1t-103.5 1q-63 0 -128 1t-120 5q4 -59 5 -124.5t1 -120.5q0 -125 -6 -238q47 4 108.5 6t131.5 2q92 0 153.5 1t83.5 1q14 0 15 -18v-125q0 -16 -15 -16q-27 0 -85 2t-150 2 q-70 0 -126 1t-116 5q6 -133 6 -291v-363q0 -6 -6 -12t-12 -6h-170q-8 0 -13.5 6t-5.5 12z" />
<glyph unicode="G" horiz-adv-x="1542" d="M121 717q0 154 52 295t152.5 247.5t246 170t329.5 63.5q143 0 258 -31.5t191 -83.5q23 -12 22 -45v-145q0 -33 -29 -33q-12 0 -24 12q-33 31 -79 59.5t-100.5 50t-116.5 35t-130 13.5q-133 0 -235.5 -45t-173 -125t-106.5 -189.5t-36 -240.5q0 -133 38 -241.5 t106.5 -185.5t163.5 -119t212 -42q104 0 183 24.5t133 53.5v424q0 20 18 20h158q6 0 12 -6t6 -14v-514q-127 -78 -255 -115t-286 -37q-154 0 -284.5 54.5t-225 151.5t-147.5 234.5t-53 303.5z" />
<glyph unicode="H" horiz-adv-x="1570" d="M188 18v1407q0 20 19 21h170q6 0 12 -6t6 -15v-317q0 -133 -6 -258q94 6 207 6h373q111 0 207 -6q-6 125 -7 258v317q0 20 19 21h172q6 0 12 -6t6 -15v-1407q0 -6 -6 -12t-12 -6h-172q-8 0 -13.5 6t-5.5 12v383q0 147 7 289q-61 -4 -106 -4h-97h-381h-97q-44 0 -106 4 q6 -141 6 -289v-383q0 -6 -6 -12t-12 -6h-170q-8 0 -13.5 6t-5.5 12z" />
<glyph unicode="I" horiz-adv-x="583" d="M188 18v1407q0 20 19 21h170q6 0 12 -6t6 -15v-1407q0 -6 -6 -12t-12 -6h-170q-8 0 -13.5 6t-5.5 12z" />
<glyph unicode="J" horiz-adv-x="606" d="M-88 -260q0 20 18 20q8 0 11.5 -1t11.5 -5q16 -10 43 -17t61 -7q66 0 110 35.5t44 113.5v1546q0 20 18 21h170q6 0 12.5 -6t6.5 -15v-1540v-13q0 -80 -24 -136q-26 -61 -70.5 -101.5t-106 -58.5t-131.5 -18q-51 0 -90 8t-66 20q-18 10 -18 35v119z" />
<glyph unicode="K" horiz-adv-x="1400" d="M188 18v1407q0 20 19 21h170q6 0 12 -6t6 -15v-335q0 -66 -1 -130.5t-5 -123.5h33q29 0 109.5 77.5t197.5 206.5l139 154q74 82 150 156q16 16 35 16h204q16 0 17 -21q0 -16 -12 -22q-23 -12 -62 -46t-90 -83l-113 -112l-129 -132l-156 -152q-73 -69 -108 -90 q16 -6 46 -31.5t70 -64.5l89 -90l104 -108l138 -144l133 -132l112 -103q49 -43 74 -56q16 -8 16 -28q0 -31 -16 -31h-217q-10 0 -21.5 5t-19.5 11q-88 82 -181 180.5t-177 196.5l-109 122q-51 56 -94 97t-76 63.5t-51 22.5h-37q4 -63 6 -137t2 -145v-398q0 -6 -6 -12t-12 -6 h-170q-8 0 -13.5 6t-5.5 12z" />
<glyph unicode="L" horiz-adv-x="1146" d="M188 18v1407q0 20 19 21h170q6 0 12 -6t6 -15v-974q0 -72 -2 -145t-6 -152q92 4 184.5 7t182.5 3q96 0 189 1t185 1q16 0 17 -16l-15 -132q0 -18 -16 -18h-907q-8 0 -13.5 6t-5.5 12z" />
<glyph unicode="M" horiz-adv-x="1837" d="M188 18v1407q0 20 17 21h260q18 0 24 -21l347 -917q29 -84 54 -168t44 -166q18 80 42.5 166t53.5 172l338 913l9 14q5 7 16 7h239q6 0 12.5 -6t6.5 -15v-1407q0 -6 -6.5 -12t-12.5 -6h-149q-8 0 -13.5 6t-5.5 12v891q0 98 3 195.5t10 163.5l-443 -1250q-2 -6 -8 -12 t-12 -6h-176q-16 0 -25 18l-444 1250q2 -35 3 -77l2 -85l2 -85q1 -42 1 -75v-928q0 -6 -6 -12t-13 -6h-153q-8 0 -12.5 6t-4.5 12z" />
<glyph unicode="N" horiz-adv-x="1581" d="M188 18v1407q0 20 19 21h231q10 0 18.5 -6t12.5 -15l590 -913q57 -88 95 -166t67 -156q-10 106 -13.5 190.5t-3.5 184.5v860q0 20 19 21h151q6 0 12.5 -6t6.5 -15v-1407q0 -6 -6.5 -12t-12.5 -6h-200q-16 0 -25 16l-643 998q-86 131 -141 274q6 -78 9 -153.5t3 -161.5 v-955q0 -6 -5 -12t-12 -6h-153q-8 0 -13.5 6t-5.5 12z" />
<glyph unicode="O" horiz-adv-x="1697" d="M121 745q0 174 59.5 312.5t159.5 235t231 148.5t277 52q143 0 275 -50t233.5 -146.5t162 -234.5t60.5 -317q0 -174 -54.5 -316t-151.5 -243.5t-231 -157t-294 -55.5q-150 0 -282 54.5t-231 155t-156.5 242.5t-57.5 320zM350 745q0 -133 33 -243.5t96.5 -191.5t155.5 -126 t213 -45q123 0 216 44t156.5 124t95.5 191.5t32 246.5q0 147 -38 256t-104.5 180.5t-158 107.5t-197.5 36q-104 0 -195.5 -35t-159 -106.5t-106.5 -181.5t-39 -257z" />
<glyph unicode="P" horiz-adv-x="1202" d="M188 18v1401q0 10 6.5 18.5t12.5 8.5h403q133 0 230.5 -37t160 -98.5t93 -143.5t30.5 -172q0 -100 -33.5 -181t-101 -139.5t-168 -90t-233.5 -31.5q-123 0 -199 6q4 -61 5 -133t1 -143v-265q0 -6 -6 -12t-12 -6h-170q-8 0 -13.5 6t-5.5 12zM389 1296q2 -29 3 -65l2 -77 q1 -40 1 -79v-69v-75q0 -40 -1 -82l-2 -80t-3 -67q45 4 94 5h90q166 0 249 70.5t83 219.5q0 61 -16.5 115.5t-52 93.5t-93 61.5t-139.5 22.5q-53 0 -107.5 1t-107.5 5z" />
<glyph unicode="Q" horiz-adv-x="1703" d="M121 748q0 172 59.5 310t159.5 235.5t233.5 148.5t278.5 51t277.5 -51t231.5 -146.5t158.5 -233.5t59.5 -312q0 -139 -41 -260t-112.5 -213.5t-170 -151.5t-215.5 -80q98 -23 181 -60l159 -77q78 -39 157 -66.5t171 -27.5q72 0 119 20l18 7q8 3 19 3q23 0 22 -30v-107 q0 -33 -48 -54.5t-130 -21.5q-127 0 -235.5 51.5t-213 115t-211 117.5t-225.5 60q-147 6 -275 62.5t-223.5 156t-149.5 240t-54 314.5zM350 745q0 -133 33 -243.5t96.5 -191.5t155.5 -126t213 -45q123 0 216 44t156.5 124t95.5 191.5t32 246.5q0 147 -38 256t-104.5 180.5 t-158 107.5t-197.5 36q-104 0 -195.5 -35t-159 -106.5t-106.5 -181.5t-39 -257z" />
<glyph unicode="R" horiz-adv-x="1331" d="M188 18v1401q0 10 6.5 18.5t12.5 8.5h418q125 0 217 -32t151.5 -86t88 -128t28.5 -158t-35 -154.5t-92 -122.5t-131 -84t-154 -38q39 -8 86 -39t99.5 -76t108 -102t110.5 -121l146 -162q60 -66 93 -82q12 -4 13 -28q0 -33 -27 -33h-188q-20 0 -39 13.5t-53 60.5l-142 171 q-74 91 -144.5 169t-136 129t-120.5 51q-16 0 -52 1t-65 3q4 -66 6 -135.5t2 -140.5v-304q0 -6 -6 -12t-12 -6h-170q-8 0 -13.5 6t-5.5 12zM389 735q29 2 69 4t83 2q184 0 268 79t84 216q0 117 -71.5 185.5t-221.5 68.5q-107 0 -211 6q2 -29 3 -69l2 -84q1 -43 1 -85v-73 q0 -127 -6 -250z" />
<glyph unicode="S" horiz-adv-x="1144" d="M117 147v113q0 33 20 33q12 0 27 -14q90 -72 186 -110t205 -38q139 0 218 64.5t79 167.5q0 63 -23.5 106t-68.5 74.5t-111 59.5l-147 63q-74 29 -139.5 64.5t-116.5 84.5t-81 114.5t-30 153.5q0 78 31 152t92 131t151.5 92t206.5 35q211 0 361 -100q14 -10 17 -21.5 t3 -30.5v-139q0 -29 -24 -28q-14 0 -27 12q-143 141 -344 141q-127 0 -193.5 -66.5t-66.5 -158.5q0 -59 25.5 -101.5t67.5 -73t99 -55.5l117 -49q102 -39 179 -81t127.5 -94t76 -116.5t25.5 -146.5q0 -98 -38 -175t-104.5 -130t-156.5 -81t-197 -28q-74 0 -132 7.5 t-107.5 23.5t-94.5 40t-92 58q-10 10 -15 20.5t-5 26.5z" />
<glyph unicode="T" horiz-adv-x="1247" d="M-6 1292l18 135q2 18 15 19h1212q14 0 14 -16v-140q0 -14 -14 -14q-57 0 -120.5 2t-121.5 2q-139 0 -274 6q6 -115 6 -227v-1041q0 -6 -6 -12t-12 -6h-170q-8 0 -13.5 6t-5.5 12v1045q0 115 6 223q-123 -6 -247 -6q-72 0 -136.5 -2t-136.5 -2q-18 0 -14 16z" />
<glyph unicode="U" horiz-adv-x="1542" d="M170 494v931q0 20 18 21h172q6 0 12.5 -6t6.5 -15v-905q0 -174 103.5 -269t287.5 -95q193 0 296 87t103 267v915q0 20 19 21h166q6 0 12 -6t6 -15v-938q0 -117 -44 -212t-123 -161.5t-190.5 -103.5t-246.5 -37q-133 0 -243.5 37t-189.5 104.5t-122 164t-43 215.5z" />
<glyph unicode="V" horiz-adv-x="1292" d="M4 1413q-4 9 -3 16q0 17 22 17h176q6 0 14 -6t10 -15l326 -901q33 -92 60.5 -182t45.5 -178q39 176 105 360l323 901q8 20 25 21h162q22 0 22 -17q0 -7 -4 -16l-526 -1395q-2 -6 -8 -12t-13 -6h-186q-20 0 -25 18z" />
<glyph unicode="W" horiz-adv-x="2066" d="M12 1413q-4 10 -3 17q0 16 20 16h180q14 0 22 -21l271 -854q29 -88 52.5 -193.5t39.5 -197.5q16 92 38.5 189.5t53.5 197.5l258 860q6 18 23 19h151q18 0 23 -19l256 -835q35 -117 58.5 -219.5t39.5 -192.5q16 92 46 207t63 229l254 809q2 8 9 14.5t13 6.5h160 q18 0 18 -19q0 -6 -2 -14l-454 -1395q-2 -6 -7.5 -12t-11.5 -6h-180q-16 0 -21 18l-268 869q-23 70 -42 159l-36 175q-14 -82 -31.5 -167t-46.5 -173l-266 -863q-2 -6 -7 -12t-11 -6h-189q-16 0 -20 18z" />
<glyph unicode="X" horiz-adv-x="1462" d="M55 1436q4 10 21 10h198q20 0 35 -23l157 -205l107 -143l82 -114l84 -121l85 121l88 118l111 145l155 199q18 23 39 23h186q17 0 17 -11q0 -7 -9 -20l-202 -247l-142 -175l-115 -137l-116 -131l103 -121l117 -140l148 -185l201 -254q8 -8 4 -16.5t-18 -8.5h-203 q-23 0 -39 23l-147 192l-108 144l-87 121l-82 118l-85 -120l-89 -121l-112 -145l-150 -194q-14 -18 -31 -18h-184q-16 0 -17.5 11.5t6.5 21.5l194 239l147 182l118 141l107 120l-77 90l-73 87l-77 93l-89 111l-110 139l-142 178q-7 9 -7 17q0 3 1 6z" />
<glyph unicode="Y" horiz-adv-x="1388" d="M10 1446h191q23 0 35 -23l333 -444q37 -49 69 -100.5t56 -106.5q31 59 62.5 108.5t66.5 96.5l336 446q10 14 20.5 18.5t22.5 4.5h172q16 0 19 -10v-4q0 -9 -9 -19l-591 -782v-613q0 -6 -6.5 -12t-12.5 -6h-170q-8 0 -13 6t-5 12v613l-586 782q-9 10 -9 19q0 14 19 14z " />
<glyph unicode="Z" horiz-adv-x="1370" d="M90 39q0 12 8 22l678 953l74 101l55 74q25 32 45 54l41 45q-104 -4 -209.5 -5t-204 -1t-204 -2t-203.5 -2q-20 0 -16 16l16 133q2 18 16 19h1061q12 0 19.5 -9.5t7.5 -21.5t-6 -24l-662 -940l-79 -110l-59 -80q-26 -34 -48 -60l-43 -51q104 4 217 6t223 2q98 0 212 2 t212 2q18 0 16 -21l-16 -125q-4 -16 -18 -16h-1108q-8 0 -16.5 12.5t-8.5 26.5z" />
<glyph unicode="[" horiz-adv-x="815" d="M213 -416v1868q0 20 18 21h562q6 0 12 -6.5t6 -14.5v-84q0 -6 -6 -12t-12 -6h-209h-99q-51 0 -98 4q4 -41 5 -82t1 -84v-1321q0 -47 -1 -93t-5 -89q47 4 96 4h95h215q6 0 12 -6.5t6 -12.5v-84q0 -8 -6 -14t-12 -6h-562q-8 0 -13 6t-5 12z" />
<glyph unicode="\" horiz-adv-x="948" d="M-112 1439q3 7 10 7h161q8 0 16.5 -7t12.5 -14l952 -1826q2 -2 2 -5t-2 -7q-4 -7 -12 -7h-162q-6 0 -13 7l-11 12l-953 1826q-2 4 -2 8q0 3 1 6z" />
<glyph unicode="]" horiz-adv-x="815" d="M4 -330q0 6 6 12.5t13 6.5h208h99q51 0 98 -4q-4 41 -5 81.5t-1 83.5v1321q0 47 1 93.5t5 89.5q-47 -4 -96 -4h-94h-215q-6 0 -12.5 6t-6.5 14v84q0 6 6 12.5t13 6.5h561q8 0 13 -6.5t5 -12.5v-1868q0 -20 -18 -20h-561q-6 0 -12.5 6t-6.5 14v84z" />
<glyph unicode="^" horiz-adv-x="1054" d="M86 718q-1 3 -1 7q0 7 5 16l389 742q4 10 15.5 15t36 5t36 -5t17.5 -15l391 -746q2 -6 2 -11q0 -4 -1 -8q-3 -9 -13 -9h-68q-10 0 -17.5 3t-17.5 15l-338 500l-319 -496q-10 -14 -18.5 -18t-20.5 -4h-60q-14 0 -18 9z" />
<glyph unicode="_" horiz-adv-x="516" d="M0 -125h516v-166h-516v166z" />
<glyph unicode="`" horiz-adv-x="761" d="M178 1446h154q8 0 18 -7t15 -14l229 -290q5 -5 5 -11q0 -3 -1 -5q-4 -7 -14 -7h-76q-16 0 -41 21l-293 290q-5 5 -5 11q0 12 9 12z" />
<glyph unicode="a" horiz-adv-x="1050" d="M102 233q0 76 38 146t114 123t191.5 89t271.5 46v70q0 86 -45 135t-162 49q-125 0 -182 -70q-23 -29 -40.5 -47t-52 -18t-57 20.5t-22.5 59.5q0 25 20.5 57.5t64.5 61t113.5 48t169.5 19.5q104 0 176 -23.5t116 -64.5t63.5 -96.5t19.5 -120.5q0 -47 -2 -103.5t-3 -114 t-3 -111.5t-2 -97q0 -109 18.5 -168.5t40.5 -75.5q10 -10 10 -24q0 -10 -7 -16.5t-15 -6.5h-90q-41 0 -55 37q-16 29 -27.5 75t-13.5 95q-43 -109 -130.5 -171.5t-218.5 -62.5q-141 0 -220 73.5t-79 186.5zM285 266q0 -76 50 -114.5t118 -38.5q59 0 107 22.5t83 61.5 t54.5 91t19.5 111v133q-119 -8 -201 -32.5t-133 -59t-74.5 -80t-23.5 -94.5z" />
<glyph unicode="b" horiz-adv-x="1200" d="M145 18q0 12 9.5 78t9.5 178v1151q0 20 18 21h148q6 0 12 -6t6 -15q0 -145 -2 -296.5t-8 -294.5q29 78 108.5 133t202.5 55q104 0 189.5 -40t145.5 -110.5t93 -166t33 -205.5q0 -115 -35 -212.5t-95 -167t-144 -108.5t-183 -39q-129 0 -218 57.5t-120 166.5 q0 -51 -4 -102.5t-8 -76.5q-2 -6 -7 -12t-11 -6h-121q-19 0 -19 18zM348 381q0 -117 63.5 -196t190.5 -79q137 0 221 95.5t84 294.5q0 180 -81 283.5t-226 103.5q-63 0 -110.5 -20.5t-79 -54.5t-47 -79t-15.5 -94v-254z" />
<glyph unicode="c" horiz-adv-x="964" d="M92 481q0 104 37 201.5t106.5 173.5t169 121t224.5 45q92 0 150.5 -21.5t94.5 -52.5q49 -35 50 -88q0 -35 -21.5 -60.5t-54.5 -25.5q-25 0 -39 9.5t-35 27.5q-27 23 -65.5 40t-96.5 17q-78 0 -139 -31.5t-103 -85t-63.5 -121t-21.5 -138.5q0 -90 25.5 -160t69.5 -116 t104.5 -69.5t129.5 -23.5q147 0 240 78q6 4 11 8t12 4q10 0 14 -7t4 -18v-88q0 -23 -14 -34q-53 -41 -126 -67t-165 -26q-115 0 -206 37t-156.5 103.5t-100.5 159.5t-35 208z" />
<glyph unicode="d" horiz-adv-x="1196" d="M92 502q0 111 33 206t93.5 164.5t144 109.5t188.5 40q123 0 203 -55.5t110 -130.5q-6 141 -8 292.5t-2 296.5q0 8 6 14.5t12 6.5h148q18 0 18 -21v-1151q0 -113 9.5 -178t9.5 -78q0 -18 -19 -18h-120q-6 0 -11.5 6t-7.5 12q-4 25 -8 76t-4 101q-37 -104 -126 -163 t-212 -59q-98 0 -182 40t-144.5 111t-95.5 167t-35 211zM295 502q0 -199 83 -296t222 -97q63 0 110.5 20.5t79 57t48 87t16.5 107.5v260q0 49 -15.5 93t-47 78t-78.5 54.5t-111 20.5q-145 0 -226 -102.5t-81 -282.5z" />
<glyph unicode="e" horiz-adv-x="1044" d="M92 483q0 100 33 196.5t96.5 172.5t157.5 123t215 47q190 0 285.5 -105.5t95.5 -281.5q0 -29 -11.5 -45.5t-43.5 -16.5h-627q-4 -23 -7 -47t-3 -63q0 -70 21.5 -131.5t63.5 -107.5t103 -73.5t141 -27.5q78 0 143.5 21.5t114.5 60.5q10 10 23 10q14 0 14 -20v-95 q0 -23 -16 -34q-47 -37 -127 -65t-180 -28q-117 0 -208 39t-154.5 107.5t-96.5 161.5t-33 202zM311 684h500q0 92 -55.5 151.5t-163.5 59.5q-113 0 -180.5 -58.5t-100.5 -152.5z" />
<glyph unicode="f" horiz-adv-x="632" d="M49 862v107q0 18 12 18q33 0 69 -2t65 -6q-4 31 -7.5 67.5t-3.5 90.5q0 143 93.5 235t293.5 92q29 0 29 -28v-111q0 -23 -22 -22q-61 0 -102.5 -9.5t-66 -32t-34.5 -58.5t-10 -89q0 -39 -3.5 -72.5t-7.5 -62.5q57 4 116.5 6t113.5 2q14 0 14 -18v-107q0 -16 -14 -16 q-53 0 -112.5 1t-113.5 5q4 -43 7.5 -94t3.5 -133v-607q0 -6 -6.5 -12t-12.5 -6h-147q-8 0 -13.5 6t-5.5 12v607q0 84 3 135t8 92q-31 -4 -67 -5t-67 -1q-12 0 -12 16z" />
<glyph unicode="g" horiz-adv-x="1126" d="M63 -184q0 66 32 101.5t57 35.5h108q14 0 14 -14q0 -6 -6 -13q-10 -10 -18 -30.5t-8 -42.5q0 -74 58 -119t200 -45q154 0 244 56t90 153q0 59 -33 92t-119 33q-41 0 -77 -2.5t-71.5 -5.5t-74.5 -5t-84 -2q-117 0 -178.5 43t-61.5 121q0 72 54.5 126t148.5 64 q-96 31 -150.5 111t-54.5 195q0 80 31 145.5t83 111.5t121.5 71.5t147.5 25.5q125 0 203 -47t119 -119q20 78 71.5 125t128.5 47q53 0 77 -31.5t24 -77t-20.5 -71t-61.5 -25.5q-23 0 -35 7.5t-22.5 15.5t-21.5 15t-28 7q-29 0 -46 -21.5t-17 -56t7 -64.5t7 -81 q0 -72 -23.5 -132t-73.5 -105.5t-131 -71t-196 -25.5q-106 0 -151 -28.5t-45 -71.5q0 -35 28.5 -56.5t89.5 -21.5q39 0 75 3t75 7t86 7.5t108 3.5q76 0 129.5 -18.5t87 -50.5t49 -75t15.5 -94q0 -78 -36 -143.5t-103.5 -113.5t-167 -74.5t-223.5 -26.5q-219 0 -325 70.5 t-106 187.5zM322 666q0 -131 57 -187.5t143 -56.5q92 0 150.5 53t58.5 182q0 117 -55 178.5t-156 61.5q-94 0 -146 -58t-52 -173z" />
<glyph unicode="h" horiz-adv-x="1167" d="M154 18v1407q0 20 18 21h139q6 0 12.5 -6t6.5 -15q0 -61 -1 -147t-3 -177t-5 -177l-6 -148q41 111 145.5 178.5t246.5 67.5q66 0 124 -19.5t101 -59.5t68.5 -99.5t25.5 -138.5v-687q0 -6 -6 -12t-12 -6h-150q-8 0 -13 6t-5 12v644q0 111 -53.5 160.5t-149.5 49.5 q-57 0 -110.5 -20.5t-95.5 -60t-66.5 -97t-24.5 -133.5v-543q0 -6 -6 -12t-12 -6h-150q-8 0 -13 6t-5 12z" />
<glyph unicode="i" horiz-adv-x="493" d="M133 1339q0 47 34 81t81 34t80.5 -34t33.5 -81t-33.5 -77.5t-80.5 -30.5t-81 30.5t-34 77.5zM154 18v949q0 20 18 20h150q6 0 12 -6t6 -14v-949q0 -6 -6 -12t-12 -6h-150q-8 0 -13 6t-5 12z" />
<glyph unicode="j" horiz-adv-x="495" d="M-57 -270q0 20 14 20q6 0 10 -2t10 -6q31 -20 78 -21q41 0 75 29t34 92v1125q0 20 18 20h150q6 0 12 -6t6 -14v-1090q0 -90 -22.5 -151.5t-60.5 -98.5t-85 -53t-96 -16q-37 0 -71.5 9t-57.5 19q-14 8 -14 33v111zM141 1339q0 47 34 81t81 34t81 -34t34 -81t-34 -77.5 t-81 -30.5t-81 30.5t-34 77.5z" />
<glyph unicode="k" horiz-adv-x="999" d="M154 18v1407q0 20 18 21h145q6 0 12.5 -6t6.5 -15v-526q0 -29 -1 -71t-3 -88l-4 -88q-2 -42 -4 -68h36q12 0 59.5 45t105.5 107l116 128l92 107q14 16 31 16h170q14 0 14 -16q0 -10 -8 -19q-53 -49 -117 -117l-124 -134q-60 -65 -109 -111.5t-70 -54.5q14 -6 48 -41 l78 -84l94 -108l97 -111l83.5 -91t58.5 -51q14 -10 14 -26q0 -23 -16 -23h-195q-16 0 -30 12q-27 29 -63 74l-76 96l-81 103l-75 92q-35 41 -61.5 66.5t-37.5 25.5h-34q2 -31 4 -76l4 -93q2 -48 3 -94t1 -77v-111q0 -6 -6 -12t-13 -6h-145q-8 0 -13 6t-5 12z" />
<glyph unicode="l" horiz-adv-x="493" d="M154 18v1407q0 20 18 21h150q6 0 12 -6t6 -15v-1407q0 -6 -6 -12t-12 -6h-150q-8 0 -13 6t-5 12z" />
<glyph unicode="m" horiz-adv-x="1751" d="M145 969q0 6 5.5 12t11.5 6h131q8 0 12 -6t6 -12q6 -41 9.5 -88t3.5 -97q51 109 148 172.5t214 63.5q94 0 171 -55.5t101 -165.5q43 92 137.5 157.5t223.5 65.5q63 0 117.5 -21.5t93.5 -61.5t60.5 -97.5t21.5 -130.5v-693q0 -6 -6.5 -12t-12.5 -6h-149q-8 0 -13.5 6 t-5.5 12v650q0 205 -184 204q-49 0 -96 -18t-84 -55t-59.5 -90.5t-22.5 -122.5v-568q0 -6 -6 -12t-12 -6h-150q-8 0 -13 6t-5 12v656q0 96 -43 147t-142 51q-49 0 -96 -20.5t-84 -59t-59.5 -97t-22.5 -134.5v-543q0 -6 -6 -12t-12 -6h-150q-8 0 -13 6t-5 12v787 q0 80 -7.5 117t-7.5 47z" />
<glyph unicode="n" horiz-adv-x="1169" d="M141 969q0 6 5.5 12t11.5 6h129q8 0 12 -6t6 -12q4 -33 8 -88.5t4 -104.5q41 109 146.5 177.5t247.5 68.5q66 0 124 -20.5t101 -60.5t67.5 -99.5t24.5 -139.5v-684q0 -6 -6 -12t-12 -6h-150q-8 0 -13 6t-5 12v641q0 113 -54.5 163t-146.5 50q-57 0 -111.5 -20.5 t-95.5 -60t-66.5 -98t-25.5 -132.5v-543q0 -6 -6 -12t-12 -6h-150q-8 0 -13 6t-5 12v787q0 80 -7.5 117t-7.5 47z" />
<glyph unicode="o" horiz-adv-x="1171" d="M90 504q0 98 30 191t91 166t154.5 117t220.5 44t220 -44t153.5 -117t90 -166t29.5 -191t-29.5 -193.5t-90 -170t-153.5 -121t-220 -46.5t-220.5 46.5t-154.5 121t-91 170t-30 193.5zM291 500q0 -80 17.5 -152t53 -125t91 -83.5t133.5 -30.5t134 30.5t92 85t52.5 125 t16.5 150.5q0 82 -17.5 151.5t-53.5 120.5t-91 81t-133 30t-134.5 -30t-92 -82t-52 -121.5t-16.5 -149.5z" />
<glyph unicode="p" horiz-adv-x="1202" d="M145 969q0 18 19 18h119q6 0 11 -6t7 -12q4 -25 9 -76t5 -100q39 111 124 170t214 59q98 0 181.5 -39t144.5 -107.5t96 -165t35 -210.5q0 -111 -33 -206t-93 -167t-145 -113t-190 -41q-121 0 -198.5 48.5t-112.5 132.5q6 -147 8 -276.5t2 -276.5q0 -8 -6 -14.5t-12 -6.5 h-148q-18 0 -18 21v1112q0 113 -9.5 178.5t-9.5 77.5zM348 346q0 -49 15.5 -92t47 -76t79 -52.5t110.5 -19.5q145 0 226 105.5t81 286.5q0 199 -84 293t-221 94q-63 0 -110.5 -21.5t-79 -58.5t-48 -87t-16.5 -108v-264z" />
<glyph unicode="q" horiz-adv-x="1200" d="M90 500q0 115 35 211t95.5 164.5t143 107.5t181.5 39q125 0 214 -62.5t126 -166.5q0 49 5 100t9 76q2 6 7 12t12 6h118q18 0 19 -18q0 -12 -9.5 -78t-9.5 -178v-1112q0 -20 -18 -21h-148q-6 0 -12 6t-6 15q0 145 2 275t8 278q-39 -80 -117.5 -130.5t-191.5 -50.5 q-104 0 -189 41t-146.5 113t-94.5 167t-33 206zM293 502q0 -180 81 -285.5t226 -105.5q63 0 111.5 19.5t79 52t46 75.5t15.5 92v264q0 57 -16.5 107.5t-48 87.5t-78.5 58.5t-111 21.5q-137 0 -221 -94t-84 -293z" />
<glyph unicode="r" horiz-adv-x="798" d="M145 969q0 6 5.5 12t11.5 6h129q8 0 12 -6t6 -12q6 -41 9.5 -94.5t3.5 -108.5q37 113 115.5 184.5t191.5 71.5q98 0 141 -42t43 -97q0 -45 -21.5 -74t-60.5 -29q-27 0 -41 12l-30 23q-15 12 -37.5 23.5t-63.5 11.5q-53 0 -92 -24.5t-66.5 -64.5t-41 -94.5t-13.5 -111.5 v-537q0 -6 -6 -12t-12 -6h-150q-8 0 -13 6t-5 12v787q0 80 -7.5 117t-7.5 47z" />
<glyph unicode="s" horiz-adv-x="872" d="M104 90v94q0 27 15 27q16 0 28 -12q47 -39 116 -63.5t145 -24.5q98 0 149 42t51 101q0 39 -17.5 64.5t-48 44t-74.5 33.5l-97 34q-51 16 -98.5 40t-84 59.5t-59.5 85t-23 116.5q0 57 25 110.5t72 93.5t114.5 63.5t153.5 23.5q90 0 155.5 -22.5t102.5 -53.5 q20 -16 27.5 -31.5t7.5 -37.5q0 -39 -21.5 -62.5t-48.5 -23.5q-18 0 -29.5 5t-27.5 17q-80 66 -176 66q-90 0 -132 -43t-42 -99q0 -39 15 -64.5t41 -42t61 -29.5l77 -28q74 -27 131.5 -53t96.5 -62t59 -82t20 -110q0 -66 -27.5 -120t-77.5 -92t-119.5 -59.5t-153.5 -21.5 q-98 0 -170 23.5t-119 58.5q-17 15 -17 35z" />
<glyph unicode="t" horiz-adv-x="657" d="M41 885q0 33 14 41q78 49 144.5 123.5t119.5 171.5q8 16 25 16q25 0 25 -25v-47q0 -41 -5.5 -92t-13.5 -92q41 4 106.5 5t121.5 1q14 0 14 -18v-107q0 -16 -14 -16q-53 0 -114 1t-114 5q4 -45 7 -95t3 -132v-316q0 -100 36 -136t100 -36q45 0 73 15q23 10 23 -13v-123 q0 -16 -19 -20q-55 -12 -104 -12q-127 0 -210 78.5t-83 242.5v320q0 53 5 118.5t9 108.5q-31 -4 -68.5 -5t-60.5 -1q-20 0 -20 39z" />
<glyph unicode="u" horiz-adv-x="1169" d="M141 293v676q0 6 6.5 12t12.5 6h149q8 0 13.5 -6t5.5 -12v-633q0 -113 54 -163t148 -50q57 0 110.5 20.5t95.5 59.5t66.5 96t24.5 131v539q0 6 6.5 12t12.5 6h149q8 0 13.5 -6t5.5 -12v-787q0 -82 8 -117.5t8 -46.5q0 -6 -5 -12t-11 -6h-131q-8 0 -12.5 6t-6.5 12 q-4 33 -8 88.5t-4 108.5q-41 -109 -145.5 -175.5t-247.5 -66.5q-66 0 -124.5 20.5t-101.5 60.5t-67.5 99.5t-24.5 139.5z" />
<glyph unicode="v" horiz-adv-x="970" d="M9 981q5 6 14 6h157q16 0 27 -20l190 -535l55 -158q22 -66 37 -135q18 70 38 135.5t53 155.5l196 537q10 20 27 20h143q10 0 16 -7q2 -3 2 -8q0 -6 -3 -16l-375 -950q-6 -18 -23 -18h-157q-14 0 -21 18l-375 952q-3 9 -3 15q0 5 2 8z" />
<glyph unicode="w" horiz-adv-x="1554" d="M20 961q-2 8 -2 13q0 14 15 13h157q16 0 23 -20l164 -523q23 -68 41 -135t35 -159q16 92 33.5 157.5t39.5 132.5l166 527q6 20 23 20h143q18 0 25 -20l159 -518q23 -70 41.5 -141.5t34.5 -157.5q16 92 33.5 157.5t40.5 134.5l162 525q6 20 22 20h146q8 0 12 -6q2 -2 2 -6 q0 -6 -4 -14l-324 -955q-10 -18 -20 -18h-156q-12 0 -18 18l-174 553q-16 51 -32.5 123t-27.5 137q-10 -70 -28.5 -142.5t-34.5 -121.5l-176 -549q-6 -18 -19 -18h-157q-16 0 -19 18z" />
<glyph unicode="x" horiz-adv-x="1024" d="M25 7q-2 3 -3 6q0 6 7 14l223 272q100 117 168 188q-61 66 -154 179l-233 295q-10 12 -5 19t13 7h184q16 0 33 -20l155 -213l103 -150q41 63 112 157l156 206q16 20 37 20h158q8 0 11 -8t-7 -18l-221 -271q-94 -113 -162 -184q37 -37 83 -89t96 -116l105 -133l109 -141 q8 -9 8 -16q0 -11 -12 -11h-186q-12 0 -19.5 6t-15.5 17l-148 200l-116 166q-47 -74 -117 -165l-156 -204q-8 -10 -14 -15t-16 -5h-162q-8 0 -14 7z" />
<glyph unicode="y" horiz-adv-x="970" d="M8 -276q0 20 17 20q6 0 16 -6q16 -10 34.5 -15.5t43.5 -5.5q33 0 69.5 12.5t72.5 44t71 85t65 135.5l-387 964q-4 9 -3 15q0 4 1 7q4 7 15 7h157q20 0 27 -20l192 -533l47 -144q23 -69 46 -151q23 86 43 153.5t47 139.5l196 535q6 20 27 20h143q17 0 18 -13q0 -6 -3 -13 l-390 -990q-45 -115 -95 -192.5t-105.5 -125.5t-116.5 -69.5t-129 -21.5q-70 0 -107 16q-12 6 -12 31v115z" />
<glyph unicode="z" horiz-adv-x="940" d="M53 41q0 20 15 37l464 610l70 90q31 39 62 74q-72 -4 -142 -4h-139q-78 0 -144.5 -2t-132.5 -2q-23 0 -18 16l12 109q2 18 19 18h760q33 0 32 -43q0 -14 -10 -29l-459 -606l-73 -94l-68 -82q76 4 151 4h150q68 0 138.5 2t129.5 2q25 0 21 -18l-12 -107q-2 -16 -23 -16 h-770q-33 0 -33 41z" />
<glyph unicode="{" horiz-adv-x="870" d="M121 516q0 29 4 40t20 11q117 0 155 61.5t38 166.5q0 61 -7 126.5t-7 137.5q0 86 24.5 160.5t84 130t161.5 88t258 32.5q6 0 12 -6t6 -14v-82q0 -6 -6 -12t-12 -6q-115 0 -183.5 -21.5t-105.5 -60.5t-49 -92.5t-12 -116.5q0 -78 7 -145.5t7 -135.5q0 -92 -37 -164.5 t-133 -95.5q98 -29 135 -101.5t37 -164.5q0 -68 -7 -130.5t-7 -133.5q0 -68 11 -123t48 -95t105.5 -62.5t183.5 -22.5q6 0 12 -6.5t6 -14.5v-82q0 -6 -6 -12t-12 -6q-156 0 -258 31.5t-161.5 87t-84 130t-24.5 160.5q0 76 6 141.5t6 123.5q0 51 -8.5 93t-30 71.5t-58 46 t-94.5 16.5q-16 0 -20 11t-4 40z" />
<glyph unicode="|" horiz-adv-x="714" d="M264 -401v1949q0 20 19 21h149q6 0 12.5 -6.5t6.5 -14.5v-1949q0 -6 -6.5 -12.5t-12.5 -6.5h-149q-8 0 -13.5 6.5t-5.5 12.5z" />
<glyph unicode="}" horiz-adv-x="868" d="M-2 -334q0 6 6 12.5t12 6.5q113 0 182.5 22.5t107.5 61t50.5 92t12.5 114.5q0 78 -7.5 146.5t-7.5 136.5q0 92 37 165t133 95q-98 27 -135 99.5t-37 164.5q0 68 7.5 131.5t7.5 135.5q0 66 -12.5 122t-49.5 96t-105.5 62.5t-183.5 22.5q-6 0 -12 6t-6 14v80q0 6 6 12t12 6 q156 0 258.5 -31.5t163 -87t85 -130t24.5 -160.5q0 -74 -7.5 -139.5t-7.5 -122.5q0 -53 8.5 -95t30 -72t58.5 -46.5t94 -16.5q16 0 20.5 -11t4.5 -40t-4.5 -40t-20.5 -11q-115 0 -154 -61.5t-39 -165.5q0 -61 8.5 -127t8.5 -136q0 -86 -24.5 -160.5t-85 -131t-163 -89 t-258.5 -32.5q-6 0 -12 6t-6 14v82z" />
<glyph unicode="~" horiz-adv-x="1021" d="M96 750q0 98 63.5 167.5t184.5 69.5q74 0 124 -22.5t91 -48.5l78 -48q37 -23 82 -22.5t80 30t35 82.5q0 23 24 23q12 0 40 -5t28 -22q0 -109 -61.5 -178t-166.5 -69q-57 0 -107 24.5t-96 55t-91.5 55t-90.5 24.5q-57 0 -87.5 -37.5t-30.5 -78.5q0 -16 -6.5 -21.5 t-24.5 -5.5q-23 0 -45.5 6.5t-22.5 20.5z" />
<glyph unicode="&#xa1;" horiz-adv-x="677" d="M213 918q0 49 35 82.5t86 33.5q49 0 83 -33.5t34 -82.5q0 -51 -34 -85t-83 -34q-51 0 -86 34t-35 85zM215 -399l47 1028q0 6 6 12t13 6h98q8 0 13 -6t5 -12l47 -1028q0 -20 -18 -21h-193q-6 0 -12 6.5t-6 14.5z" />
<glyph unicode="&#xa2;" horiz-adv-x="980" d="M92 801q0 96 31 186t89 163t142 123t191 66v252q0 20 18 21h90q6 0 12.5 -6.5t6.5 -14.5v-248q76 -4 129 -26.5t86 -50.5q39 -33 39 -76q0 -39 -24.5 -70.5t-61.5 -31.5q-20 0 -34.5 10t-35.5 26q-29 25 -65.5 40.5t-94.5 15.5q-78 0 -138 -31t-101 -82t-61.5 -117.5 t-20.5 -136.5q0 -92 24.5 -160.5t68.5 -114.5t104.5 -70t129.5 -24q141 0 242 78q12 12 20.5 12.5t13.5 -7t5 -17.5v-90q0 -25 -14 -37q-41 -33 -94.5 -54.5t-116.5 -31.5v-279q0 -6 -6.5 -12t-12.5 -6h-90q-8 0 -13 6t-5 12v275q-104 8 -187.5 48t-142.5 105.5t-91 155.5 t-32 199z" />
<glyph unicode="&#xa3;" horiz-adv-x="1191" d="M72 680v102q0 18 12 19q33 0 71 -1t72 -5q-4 35 -6 69.5t-2 71.5v104q0 100 33 183.5t93.5 141.5t148.5 91t198 33q147 0 236.5 -42t136.5 -104q29 -35 29 -79q0 -41 -27 -69t-68 -28q-18 0 -33.5 6.5t-31.5 28.5q-20 31 -41 54.5t-48.5 40t-64.5 24.5t-90 8 q-139 0 -211.5 -83t-72.5 -236v-82q0 -76 -7 -133q25 2 65 3l83 2q43 1 84 1h67q14 0 15 -19v-102q0 -16 -15 -16h-67q-41 0 -85 1t-84 2t-65 3q4 -41 6.5 -109.5t2.5 -142.5v-128q0 -56 -5 -134q65 2 155 4q89 2 171 2q86 0 166 1t172 1q10 0 14 -19l-16 -129 q0 -16 -14 -16h-818q-8 0 -13 6t-5 12v424q0 78 2 132.5t6 95.5q-31 -4 -68.5 -5t-68.5 -1q-12 0 -12 16z" />
<glyph unicode="&#xa4;" horiz-adv-x="1124" d="M74 285l151 151q-76 106 -75 242q0 68 20 130t55 116l-151 151l104 101l152 -152q106 76 241 76q137 0 242 -76l152 152l104 -105l-151 -151q76 -104 75 -242q0 -133 -78 -240l154 -153l-102 -103l-154 154q-51 -37 -112.5 -57.5t-129.5 -20.5q-66 0 -126 19.5t-113 54.5 l-154 -152zM293 678q0 -59 21.5 -110.5t58.5 -89.5t88 -60.5t110 -22.5q57 0 108.5 22.5t89.5 60.5t59.5 89.5t21.5 110.5q0 57 -21.5 109.5t-59.5 91.5t-89 61.5t-109 22.5q-59 0 -110 -22.5t-88 -61.5t-58.5 -91.5t-21.5 -109.5z" />
<glyph unicode="&#xa5;" horiz-adv-x="1320" d="M3 1437q5 9 17 9h175q8 0 18 -7t16 -16l234 -325q51 -72 105.5 -162t97.5 -174q45 86 95 169t107 165l238 331q4 6 16.5 12.5t22.5 6.5h158q17 0 16 -13q0 -8 -8 -20l-402 -561q41 4 92 4h91q6 0 12 -5t6 -11v-109q0 -4 -6 -9t-12 -5h-136q-72 0 -135 4l-63 -90v-84 q66 4 132 4h132q6 0 12 -6t6 -10v-107q0 -6 -6 -11t-12 -5h-133q-68 0 -135 4q4 -47 4 -99v-98v-201q0 -6 -6.5 -12t-12.5 -6h-161q-6 0 -11.5 6t-5.5 12v211v96q0 48 4 91q-72 -4 -142 -4h-142q-18 0 -19 16v107q0 4 5 10t14 6h141q70 0 139 -4v84l-59 90q-70 -4 -150 -4 h-145q-20 0 -21 14v109q0 16 21 16h100q55 0 103 -4l-402 561q-7 10 -7 17q0 4 2 7z" />
<glyph unicode="&#xa6;" horiz-adv-x="714" d="M264 324h187v-725q0 -6 -6.5 -12.5t-12.5 -6.5h-149q-8 0 -13.5 6t-5.5 13v725zM264 877v671q0 20 19 21h149q6 0 12.5 -6.5t6.5 -14.5v-671h-187z" />
<glyph unicode="&#xa7;" horiz-adv-x="1261" d="M74 739q0 115 51 182.5t131 108.5q-10 16 -16.5 40t-6.5 50q0 76 29 144.5t83 119t134 80t183 29.5q117 0 193.5 -24.5t122.5 -59.5t64.5 -70.5t18.5 -60.5q0 -51 -30 -76.5t-70 -25.5q-23 0 -44.5 9t-31.5 32q-66 131 -232 131q-111 0 -169 -55.5t-58 -147.5 q0 -55 28.5 -102.5t76 -88.5t108.5 -78l127 -77q86 -47 163 -97.5t135 -108.5t93 -128t35 -156q0 -104 -52.5 -172.5t-131.5 -109.5q20 -41 20 -93q0 -68 -23.5 -134t-73.5 -118.5t-129 -84t-190 -31.5q-90 0 -163.5 23.5t-116.5 54.5q-18 12 -19 41v100q0 27 19 27 q8 0 12 -3.5t10 -7.5q51 -41 120 -66.5t153 -25.5q92 0 151.5 55.5t59.5 145.5q0 57 -31 105t-82 91t-117 82l-135 80q-74 43 -145.5 91.5t-128 104.5t-91 123.5t-34.5 151.5zM225 803q0 -57 25.5 -106.5t70 -92.5t104.5 -83t128 -79l127 -76q66 -40 122 -83t100 -88.5 t67 -92.5q35 29 51 67t16 79q0 61 -28.5 114.5t-77.5 100.5t-117 91t-145 87q-111 66 -213.5 140.5t-159.5 174.5q-70 -53 -70 -153z" />
<glyph unicode="&#xa8;" horiz-adv-x="919" d="M164 1264q0 43 30.5 73.5t73.5 30.5t74 -30.5t31 -73.5q0 -41 -31 -73t-74 -32t-73.5 32t-30.5 73zM547 1264q0 43 30.5 73.5t73.5 30.5t74 -30.5t31 -73.5q0 -41 -31 -73t-74 -32t-73.5 32t-30.5 73z" />
<glyph unicode="&#xa9;" horiz-adv-x="1763" d="M129 729q0 158 60.5 297t163 242.5t240.5 164t296 60.5t295 -60.5t237.5 -164t157.5 -242.5t57 -297t-57 -296t-157.5 -240.5t-237.5 -162t-295 -59.5t-296 59.5t-240.5 162t-163 240.5t-60.5 296zM270 729q0 -129 48.5 -244.5t132.5 -202.5t196.5 -137.5t241.5 -50.5 t240.5 50.5t194.5 137.5t131 202.5t48 244.5q0 131 -48 247t-131 203t-194.5 138t-240.5 51t-241.5 -51t-196.5 -138t-132.5 -203t-48.5 -247zM457 723q0 94 32.5 181t95 154.5t151.5 107.5t200 40q82 0 134 -18.5t87 -46.5q43 -31 43 -80q0 -31 -19.5 -53.5t-47.5 -22.5 q-23 0 -36.5 8t-29.5 25q-23 20 -58.5 35.5t-86.5 15.5q-70 0 -124.5 -28.5t-92 -75.5t-57 -108.5t-19.5 -125.5q0 -80 22.5 -141.5t62.5 -103.5t94 -62.5t116 -20.5q133 0 215 68q12 12 18 12q10 0 14.5 -7t4.5 -15v-78q0 -20 -15 -33q-47 -37 -111.5 -59.5t-148.5 -22.5 q-102 0 -184 33t-139.5 93.5t-89 143.5t-31.5 185z" />
<glyph unicode="&#xaa;" horiz-adv-x="718" d="M72 942q0 102 99 175t304 89v43q0 57 -27.5 87t-101.5 30q-41 0 -64.5 -10t-41.5 -31q-16 -12 -28.5 -30.5t-43.5 -18.5q-23 0 -42.5 14.5t-19.5 42.5q0 18 13.5 42t42 45.5t77 37t117.5 15.5q141 0 200.5 -58.5t59.5 -148.5q0 -63 -3 -146.5t-3 -140.5 q0 -72 11.5 -108.5t27.5 -55.5q6 -8 7 -12t1 -8q0 -14 -16 -15h-66q-20 0 -30 8.5t-19 24.5q-6 12 -14 42t-8 65q-29 -59 -85.5 -108.5t-148.5 -49.5t-145 50t-53 130zM213 963q0 -51 27.5 -72t68.5 -21q68 0 117 49.5t49 118.5v101q-141 -12 -201.5 -61t-60.5 -115z" />
<glyph unicode="&#xab;" horiz-adv-x="1304" d="M84 508q0 27 3 36t13 17l594 387q7 5 13 6q3 0 5 -2q7 -4 7 -16v-59q0 -12 -3 -21.5t-14 -19.5l-401 -314l404 -344q10 -10 12 -17t2 -18v-67q0 -10 -7 -14q-3 -1 -7 -1t-9 2l-596 392q-8 8 -12 17t-4 36zM586 508q0 27 4 36t14 17l592 387q7 5 13 6q3 0 5 -2q8 -4 9 -16 v-59q0 -12 -3 -21.5t-16 -19.5l-399 -314l401 -344q12 -10 14.5 -17t2.5 -18v-67q0 -10 -9 -14q-4 -1 -7 -1l-9 2l-594 392q-10 8 -14 17t-4 36z" />
<glyph unicode="&#xac;" horiz-adv-x="1056" d="M94 426v156h834v-676h-172v520h-662z" />
<glyph unicode="&#xad;" horiz-adv-x="614" d="M84 487v138q0 20 18 20h408q6 0 12 -6t6 -14v-138q0 -6 -6 -12t-12 -6h-408q-8 0 -13 6t-5 12z" />
<glyph unicode="&#xae;" horiz-adv-x="929" d="M70 1102q0 82 30.5 154.5t85 125t126 83t155.5 30.5q86 0 157.5 -30.5t125 -83t83 -125t29.5 -154.5q0 -84 -29.5 -156t-83 -124t-126 -82.5t-156.5 -30.5t-156.5 30.5t-126 82.5t-84 124t-30.5 156zM170 1102q0 -68 20.5 -124t58.5 -97t91 -64.5t121 -23.5q131 0 217 67 h-51q-16 0 -25 12q-25 18 -49 51l-49 61q-25 30 -46.5 52.5t-39.5 22.5h-23v-193q0 -6 -6 -6h-74q-16 0 -16 17v475q0 8 6 8h141q94 0 141.5 -42t47.5 -95.5t-43 -91t-129 -41.5q45 -8 82 -36t66.5 -58.5t53 -58.5t46.5 -36q51 90 51 201q0 68 -21.5 124t-60.5 98 t-95.5 65.5t-123.5 23.5q-70 0 -124 -23.5t-91 -65.5t-56.5 -99t-19.5 -123zM395 1124h43q49 0 70.5 28t21.5 62.5t-19 60t-67 25.5h-49v-176z" />
<glyph unicode="&#xaf;" horiz-adv-x="831" d="M164 1196v104q0 16 12 17h479q12 0 13 -17v-104q0 -14 -13 -14h-479q-12 0 -12 14z" />
<glyph unicode="&#x2c9;" horiz-adv-x="831" d="M164 1196v104q0 16 12 17h479q12 0 13 -17v-104q0 -14 -13 -14h-479q-12 0 -12 14z" />
<glyph unicode="&#xb0;" horiz-adv-x="919" d="M92 1094q0 72 25.5 140.5t74 122.5t118 87t159.5 33q88 0 155.5 -32t113.5 -85t69.5 -123t23.5 -143q0 -78 -25.5 -146.5t-73.5 -122t-115.5 -84t-151.5 -30.5t-152.5 29.5t-118 81.5t-76 122t-26.5 150zM262 1090q0 -133 53.5 -202t153.5 -69q102 0 148.5 65.5 t46.5 205.5q0 129 -45.5 196.5t-149.5 67.5q-113 0 -160 -68.5t-47 -195.5z" />
<glyph unicode="&#xb1;" horiz-adv-x="1024" d="M92 653v107q0 20 19 20h165q35 0 85.5 -1t80.5 -5q-6 41 -8 92.5t-2 85.5v148q0 6 6 12t15 6h118q6 0 12.5 -6t6.5 -12v-146q0 -35 -1 -87t-5 -93q33 4 70.5 5t90.5 1h164q6 0 12.5 -6t6.5 -14v-107q0 -6 -6.5 -12t-12.5 -6h-166q-59 0 -95 2t-64 4q4 -23 5 -66t1 -90 v-170q0 -8 -6 -13t-13 -5h-118q-20 0 -21 18v172q0 51 3 90t7 64q-33 -4 -85 -5t-87 -1h-159q-8 0 -13.5 6t-5.5 12zM94 18v117q0 20 19 21h794q6 0 12.5 -6.5t6.5 -14.5v-117q0 -6 -6.5 -12t-12.5 -6h-794q-8 0 -13.5 6t-5.5 12z" />
<glyph unicode="&#xb2;" horiz-adv-x="821" d="M117 801q0 10 1 18t9 12q117 49 194.5 98.5t126 97.5t69 94t20.5 89q0 70 -32 111t-108 41q-59 0 -94 -28.5t-37 -76.5q-2 -29 -22.5 -42t-44.5 -13q-27 0 -45.5 15.5t-18.5 48.5q0 25 13.5 61.5t45 71.5t84 59.5t130.5 24.5q125 0 199.5 -71t74.5 -175 q0 -74 -27.5 -133.5t-77 -105.5t-115 -81.5t-140.5 -62.5q47 4 109.5 8t100.5 4q72 0 111 2t55 2q14 0 15 -14l-11 -92q0 -10 -16 -10h-549q-12 0 -16 14.5t-4 32.5z" />
<glyph unicode="&#xb3;" horiz-adv-x="821" d="M131 1307q0 25 14.5 54.5t47 55t84 43t124.5 17.5q127 0 188.5 -50.5t61.5 -136.5q0 -84 -47 -138t-153 -87q113 0 173 -54.5t60 -156.5q0 -59 -26.5 -105.5t-69.5 -78t-98.5 -48t-112.5 -16.5q-78 0 -132.5 16.5t-94.5 45.5q-12 8 -13 30v66q0 25 17 24q10 0 20 -8 q35 -29 83 -43t103 -14q78 0 126.5 30.5t48.5 112.5q0 66 -37 100.5t-123 34.5q-31 0 -49.5 -3t-29.5 -7t-17.5 -7t-14.5 -3q-12 0 -14 12l-10 58q-2 12 8 16q135 29 197.5 76t62.5 127q0 104 -125 104q-53 0 -87 -25.5t-46 -68.5q-4 -16 -19.5 -25.5t-35.5 -9.5 q-23 0 -43.5 14.5t-20.5 47.5z" />
<glyph unicode="&#xb4;" horiz-adv-x="759" d="M178 1119q-1 2 -1 5q0 5 5 11l230 290q4 6 14 13.5t18 7.5h154q9 0 9 -12q0 -6 -5 -11l-293 -290q-25 -20 -41 -21h-75q-11 0 -15 7z" />
<glyph unicode="&#xb5;" horiz-adv-x="1140" d="M94 -354q0 20 7.5 76.5t14.5 140.5t14 188.5t7 218.5v699q0 6 6.5 12t12.5 6h149q8 0 13.5 -6t5.5 -12v-633q0 -113 47 -162t139 -49q55 0 106.5 19.5t91.5 58.5t63.5 94t23.5 129v543q0 6 6 12t12 6h150q8 0 13 -6t5 -12v-787q0 -82 8 -117.5t8 -46.5q0 -6 -5 -12 t-11 -6h-131q-8 0 -12 6t-7 12q-6 41 -10 91.5t-4 99.5q-47 -104 -139 -166.5t-227 -62.5q-57 0 -107.5 19t-77.5 54l8 -131q4 -66 9 -121l7 -95q3 -40 3 -56q0 -45 -31 -66.5t-65 -21.5q-41 0 -72 20.5t-31 63.5z" />
<glyph unicode="&#x3bc;" horiz-adv-x="1140" d="M94 -354q0 20 7.5 76.5t14.5 140.5t14 188.5t7 218.5v699q0 6 6.5 12t12.5 6h149q8 0 13.5 -6t5.5 -12v-633q0 -113 47 -162t139 -49q55 0 106.5 19.5t91.5 58.5t63.5 94t23.5 129v543q0 6 6 12t12 6h150q8 0 13 -6t5 -12v-787q0 -82 8 -117.5t8 -46.5q0 -6 -5 -12 t-11 -6h-131q-8 0 -12 6t-7 12q-6 41 -10 91.5t-4 99.5q-47 -104 -139 -166.5t-227 -62.5q-57 0 -107.5 19t-77.5 54l8 -131q4 -66 9 -121l7 -95q3 -40 3 -56q0 -45 -31 -66.5t-65 -21.5q-41 0 -72 20.5t-31 63.5z" />
<glyph unicode="&#xb6;" horiz-adv-x="1171" d="M63 999q0 88 32 169t96.5 142.5t164 98.5t232.5 37h405q6 0 12.5 -8t6.5 -19v-1401q0 -6 -5.5 -12t-13.5 -6h-176q-6 0 -12 6t-6 12v541h-189q-268 0 -407.5 117.5t-139.5 322.5z" />
<glyph unicode="&#xb7;" horiz-adv-x="499" d="M121 555q0 53 38 90t91 37q55 0 92 -37t37 -90q0 -55 -37 -93t-92 -38q-53 0 -91 38t-38 93z" />
<glyph unicode="&#x2219;" horiz-adv-x="499" d="M121 555q0 53 38 90t91 37q55 0 92 -37t37 -90q0 -55 -37 -93t-92 -38q-53 0 -91 38t-38 93z" />
<glyph unicode="&#xb8;" horiz-adv-x="745" d="M164 -399q0 16 14 10q27 -10 56.5 -14.5t54.5 -4.5q78 0 109.5 28t31.5 81q0 47 -26.5 78t-104.5 31q-16 0 -29.5 -4.5t-29.5 -8.5q-8 0 -15.5 12.5t-7.5 24.5q0 4 4 12l166 154h92l-133 -119h21q109 0 162 -54t53 -124q0 -37 -15.5 -73t-47.5 -65.5t-79 -47t-110 -17.5 q-49 0 -86 6.5t-68 16.5q-12 2 -12 18v60z" />
<glyph unicode="&#xb9;" horiz-adv-x="821" d="M203 1368q-2 10 12 16l270 89q5 2 9.5 2t8.5 -2q7 -4 7 -13v-440q0 -41 -1 -84t-3 -84q18 4 38 4h36h59q14 0 14 -14l4 -74q0 -12 -16 -12h-410q-16 0 -16 12l4 74q0 14 19 14h55q20 0 39.5 -1t38.5 -3q-2 45 -3 90t-1 86v135q0 41 1 88t3 82q-20 -10 -41 -18l-41 -15 l-64 -20q-14 -2 -16 10z" />
<glyph unicode="&#xba;" horiz-adv-x="815" d="M72 1118.5q0 67.5 20.5 131t62.5 112.5t106.5 80t150.5 31t149.5 -31t106.5 -80t63.5 -112.5t20.5 -131t-20.5 -132t-63.5 -116t-106.5 -82t-149.5 -30.5t-150.5 30.5t-106.5 82t-62.5 116t-20.5 132zM221 1116q0 -53 10.5 -100t33 -81t58 -53.5t89.5 -19.5q51 0 87 19.5 t57.5 53.5t31.5 80t10 101q0 53 -9 99.5t-31.5 81t-58.5 54t-87 19.5q-53 0 -89 -19.5t-58.5 -53t-33 -81t-10.5 -100.5z" />
<glyph unicode="&#xbb;" horiz-adv-x="1304" d="M86 80v59q0 12 3 21.5t13 19.5l400 314l-402 344q-10 10 -12 17t-2 17v68q0 10 7 13q3 1 7 2q4 0 9 -3l593 -391q10 -8 14.5 -17t4.5 -36t-4 -36t-15 -17l-591 -387q-7 -5 -13 -6q-3 0 -5 1q-7 5 -7 17zM588 80v59q0 12 3 21.5t13 19.5l402 314l-402 344q-12 10 -14 17 t-2 17v68q0 10 8 13q4 1 7 2l9 -3l594 -391q10 -8 13.5 -17t3.5 -36t-3 -36t-14 -17l-594 -387q-7 -5 -12 -6q-3 0 -5 1q-7 5 -7 17z" />
<glyph unicode="&#xbc;" horiz-adv-x="1726" d="M189 8q-1 3 -1 6q0 5 5 11l1185 1400q4 6 14.5 13.5t18.5 7.5h131q10 0 12 -8t-6 -17l-1181 -1403q-4 -4 -13.5 -11t-15.5 -7h-135q-11 0 -14 8zM209 1368q-2 10 12 16l273 89q6 2 11 2q11 0 11 -15v-440q0 -41 -1 -84t-3 -84q18 4 38 4h36h59q16 0 17 -14l2 -74 q0 -12 -17 -12h-409q-16 0 -17 12l4 74q2 6 5 10t14 4h55q20 0 39.5 -1t38.5 -3q-2 45 -3 90t-1 86v135q0 41 1 88t5 82q-20 -10 -42 -18l-42 -15l-64 -20q-14 -4 -14 10zM817 16v43q0 14 8 25l95 154l97 146l105 147l123 159h115q14 0 14 -12v-453v-60q0 -32 -2 -61 q47 2 90 2h90q18 0 15 -14l-6 -69q0 -23 -17 -23h-87q-40 0 -85 4q2 -27 2 -57v-60v-86q0 -4 -4 -8t-10 -4h-105q-6 0 -10 4t-4 8v90v58q0 29 4 55q-31 -4 -73 -4h-70h-268q-4 0 -10.5 3t-6.5 13zM965 102q41 4 70 4h71h70q41 0 69 -2q-2 12 -3 37t-2 54.5t-1 60.5v53 q0 53 2 105.5t6 109.5l-148 -219z" />
<glyph unicode="&#xbd;" horiz-adv-x="1726" d="M172 12q0 6 4 13l1186 1400q4 6 14 13.5t19 7.5h131q8 0 10 -8t-4 -17l-1182 -1403q-4 -4 -13 -11t-15 -7h-138q-12 0 -12 12zM195 1368q-2 10 12 16l272 89q6 2 11 2q11 0 12 -15v-440q0 -41 -1 -84t-3 -84q18 4 38 4h35h60q16 0 16 -14l2 -74q0 -12 -16 -12h-410 q-16 0 -16 12l4 74q0 14 18 14h56q20 0 39.5 -1t37.5 -3q-2 45 -3 90t-1 86v135q0 41 1 88t6 82q-23 -10 -43.5 -18t-40.5 -15l-64 -20q-14 -2 -16 10zM981 47q0 10 1 19.5t9 13.5q115 49 194 98t127 97.5t68.5 94.5t20.5 89q0 68 -32 109.5t-107 41.5q-59 0 -94 -30 q-36 -29 -38 -76q-2 -29 -22.5 -42t-44.5 -13q-27 0 -45.5 15t-18.5 50q0 23 13.5 59.5t45.5 71.5t84 59.5t130 24.5q125 0 199.5 -69.5t74.5 -176.5q0 -74 -27.5 -132t-76.5 -105t-114.5 -83t-141.5 -63q47 4 109.5 8.5t101.5 4.5q70 0 109.5 2t56.5 2q14 0 14 -15l-10 -90 q0 -12 -17 -12h-549q-12 0 -16 14.5t-4 32.5z" />
<glyph unicode="&#xbe;" horiz-adv-x="1726" d="M129 1307q0 25 14.5 54.5t47 55t84 43t124.5 17.5q129 0 190.5 -50.5t61.5 -136.5q0 -84 -47 -138t-153 -87q113 0 172 -54.5t59 -156.5q0 -59 -25.5 -105.5t-68.5 -78t-98.5 -48t-114.5 -16.5q-78 0 -131.5 16.5t-93.5 45.5q-14 10 -15 30v66q0 25 17 24q12 0 20 -8 q35 -29 83 -43t103 -14q78 0 126 30.5t48 112.5q0 66 -36.5 100.5t-122.5 34.5q-31 0 -48.5 -3t-28.5 -7t-18.5 -7t-13.5 -3q-12 0 -14 12l-10 58q-2 12 6 16q137 29 199.5 76t62.5 127q0 104 -125 104q-53 0 -87 -25.5t-48 -68.5q-4 -16 -18.5 -25.5t-37 -9.5t-43 14.5 t-20.5 47.5zM202 8q-1 3 -1 6q0 5 4 11l1186 1400q4 6 14 13.5t18 7.5h131q13 0 13 -12q0 -6 -4 -13l-1184 -1403q-4 -4 -13.5 -11t-15.5 -7h-135q-10 0 -13 8zM803 16v43q0 12 6 25l94 154l97 146l107 147l122 159h117q14 0 14 -12v-453v-60q0 -32 -4 -61q49 2 92 2h90 q18 0 14 -14l-6 -69q0 -23 -16 -23h-87q-40 0 -87 4q4 -27 4 -57v-60v-86q0 -4 -5 -8t-9 -4h-107q-4 0 -9 4t-5 8v90v58q0 29 4 55q-29 -4 -71 -4h-71h-268q-4 0 -10 3t-6 13zM950 102q41 4 71 4h71h68q40 0 69 -2q-2 12 -3 37t-1 55v60v53q0 100 6 215l-147 -219z" />
<glyph unicode="&#xbf;" horiz-adv-x="985" d="M100 0q0 193 95.5 292t246.5 99q47 0 80 -8q33 -9 56 -21q-2 76 -5.5 151t-3.5 120q0 6 6.5 12t12.5 6h110q8 0 13.5 -6t5.5 -12v-412q0 -18 -17 -18q-6 0 -10 3t-12 7q-35 23 -73 34t-95 11q-102 0 -160.5 -65.5t-58.5 -194.5q0 -135 77.5 -210t206.5 -75q78 0 120 29 t64.5 57.5t42 44t48.5 15.5q41 0 62.5 -23.5t21.5 -64.5q0 -29 -17.5 -66t-57.5 -69.5t-105.5 -56t-163.5 -23.5q-106 0 -196.5 29.5t-155 86t-101.5 139.5t-37 189zM514 917.5q0 49.5 34 84t85 34.5q49 0 84 -34.5t35 -84t-35 -83t-84 -33.5q-51 0 -85 33.5t-34 83z" />
<glyph unicode="&#xc0;" horiz-adv-x="1292" d="M4 33l526 1394q2 6 8.5 12.5t12.5 6.5h186q16 0 25 -19l526 -1394q4 -9 4 -16q0 -17 -22 -17h-176q-16 0 -25 20l-89 241q-42 118 -69 210q-66 -4 -136 -5t-136 -1q-68 0 -137.5 1t-134.5 5q-12 -41 -31 -96l-40 -116l-45 -122l-44 -117q-8 -20 -23 -20h-161 q-22 0 -22 17q-1 7 3 16zM340 1868h156q8 0 18 -7.5t14 -13.5l256 -286q6 -6 3 -12.5t-11 -6.5h-84q-6 0 -15 5t-15 12l-326 286q-7 5 -7 11q0 12 11 12zM412 602q57 4 116.5 5t114.5 1h113q57 0 108 -4l-21 52l-28 70l-29 77l-26 74q-86 242 -121 403q-18 -80 -49 -180.5 t-72 -214.5l-30 -80l-29 -80l-27 -71z" />
<glyph unicode="&#xc1;" horiz-adv-x="1292" d="M4 33l526 1394q2 6 8.5 12.5t12.5 6.5h186q16 0 25 -19l526 -1394q4 -9 4 -16q0 -17 -22 -17h-176q-16 0 -25 20l-89 241q-42 118 -69 210q-66 -4 -136 -5t-136 -1q-68 0 -137.5 1t-134.5 5q-12 -41 -31 -96l-40 -116l-45 -122l-44 -117q-8 -20 -23 -20h-161 q-22 0 -22 17q-1 7 3 16zM412 602q57 4 116.5 5t114.5 1h113q57 0 108 -4l-21 52l-28 70l-29 77l-26 74q-86 242 -121 403q-18 -80 -49 -180.5t-72 -214.5l-30 -80l-29 -80l-27 -71zM493 1548l-2 6q0 4 3 7l258 286q4 6 13 13.5t17 7.5h156q11 0 11 -12q0 -6 -5 -11 l-328 -286q-6 -6 -15 -11.5t-15 -5.5h-82q-8 0 -11 6z" />
<glyph unicode="&#xc2;" horiz-adv-x="1292" d="M4 33l526 1394q2 6 8.5 12.5t12.5 6.5h186q16 0 25 -19l526 -1394q4 -9 4 -16q0 -17 -22 -17h-176q-16 0 -25 20l-89 241q-42 118 -69 210q-66 -4 -136 -5t-136 -1q-68 0 -137.5 1t-134.5 5q-12 -41 -31 -96l-40 -116l-45 -122l-44 -117q-8 -20 -23 -20h-161 q-22 0 -22 17q-1 7 3 16zM314 1551q0 5 3 10l250 288q18 18 31 19h86q16 0 33 -19l246 -288q2 -3 2 -6.5t-2 -6.5q-4 -6 -11 -6h-86q-12 0 -32 19l-199 188l-199 -188q-23 -18 -33 -19h-77q-12 0 -12 9zM412 602q57 4 116.5 5t114.5 1h113q57 0 108 -4l-21 52l-28 70l-29 77 l-26 74q-86 242 -121 403q-18 -80 -49 -180.5t-72 -214.5l-30 -80l-29 -80l-27 -71z" />
<glyph unicode="&#xc3;" horiz-adv-x="1292" d="M4 33l526 1394q2 6 8.5 12.5t12.5 6.5h186q16 0 25 -19l526 -1394q4 -9 4 -16q0 -17 -22 -17h-176q-16 0 -25 20l-89 241q-42 118 -69 210q-66 -4 -136 -5t-136 -1q-68 0 -137.5 1t-134.5 5q-12 -41 -31 -96l-40 -116l-45 -122l-44 -117q-8 -20 -23 -20h-161 q-22 0 -22 17q-1 7 3 16zM326 1587q0 115 58 170t138 55q55 0 93 -19t69 -44t59.5 -44t63.5 -19q33 0 60.5 22.5t27.5 73.5q0 23 18 22q10 0 32 -5t22 -21q0 -109 -52.5 -170.5t-130.5 -61.5q-41 0 -78.5 22.5t-72.5 49.5t-70 49.5t-69 22.5q-41 0 -67 -31t-26 -72 q0 -25 -24 -24q-16 0 -33.5 6t-17.5 18zM412 602q57 4 116.5 5t114.5 1h113q57 0 108 -4l-21 52l-28 70l-29 77l-26 74q-86 242 -121 403q-18 -80 -49 -180.5t-72 -214.5l-30 -80l-29 -80l-27 -71z" />
<glyph unicode="&#xc4;" horiz-adv-x="1292" d="M4 33l526 1394q2 6 8.5 12.5t12.5 6.5h186q16 0 25 -19l526 -1394q4 -9 4 -16q0 -17 -22 -17h-176q-16 0 -25 20l-89 241q-42 118 -69 210q-66 -4 -136 -5t-136 -1q-68 0 -137.5 1t-134.5 5q-12 -41 -31 -96l-40 -116l-45 -122l-44 -117q-8 -20 -23 -20h-161 q-22 0 -22 17q-1 7 3 16zM342 1657q0 43 30.5 73.5t73.5 30.5t74 -30.5t31 -73.5q0 -41 -31 -72t-74 -31t-73.5 31t-30.5 72zM412 602q57 4 116.5 5t114.5 1h113q57 0 108 -4l-21 52l-28 70l-29 77l-26 74q-86 242 -121 403q-18 -80 -49 -180.5t-72 -214.5l-30 -80l-29 -80 l-27 -71zM739 1657q0 43 32 73.5t73 30.5q43 0 73.5 -30.5t30.5 -73.5q0 -41 -30.5 -72t-73.5 -31q-41 0 -73 31t-32 72z" />
<glyph unicode="&#xc5;" horiz-adv-x="1292" d="M4 33l526 1394q2 6 8.5 12.5t12.5 6.5h186q16 0 25 -19l526 -1394q4 -9 4 -16q0 -17 -22 -17h-176q-16 0 -25 20l-89 241q-42 118 -69 210q-66 -4 -136 -5t-136 -1q-68 0 -137.5 1t-134.5 5q-12 -41 -31 -96l-40 -116l-45 -122l-44 -117q-8 -20 -23 -20h-161 q-22 0 -22 17q-1 7 3 16zM410 1698q0 86 66.5 142t169 56t169 -56t66.5 -142q0 -88 -66.5 -143.5t-169 -55.5t-169 55.5t-66.5 143.5zM412 602q57 4 116.5 5t114.5 1h113q57 0 108 -4l-21 52l-28 70l-29 77l-26 74q-86 242 -121 403q-18 -80 -49 -180.5t-72 -214.5l-30 -80 l-29 -80l-27 -71zM520 1694q0 -59 37 -88t88 -29q53 0 88 27.5t35 89.5q0 66 -35 90t-88 24t-89 -23t-36 -91z" />
<glyph unicode="&#xc6;" horiz-adv-x="2015" d="M-51 33l1024 1394q4 6 13 12.5t15 6.5h920q10 0 14 -19l17 -127q0 -16 -15 -16q-92 0 -196.5 2t-192.5 2q-72 0 -149.5 1t-155.5 5q4 -58 5 -116t1 -111q0 -59 -1 -119.5t-5 -120.5q57 4 118.5 6.5t117.5 2.5q59 0 115.5 1t115.5 1q14 0 14 -19v-123q0 -16 -14 -16 q-59 0 -113.5 1t-113.5 1q-53 0 -118 2t-122 8q4 -59 5 -129.5t1 -134.5q0 -70 -1 -140.5t-5 -135.5q88 4 171 5t171 1q98 0 193.5 2t187.5 2q16 0 14 -19l-14 -127q0 -16 -14 -16h-893q-8 0 -13.5 6t-5.5 12v134q0 72 1 136t2 113.5t1 67.5q-129 -6 -266 -6q-66 0 -136.5 1 t-139.5 5q-8 -16 -38 -62l-74 -110l-95 -135l-102 -142q-6 -8 -16.5 -14t-16.5 -6h-205q-17 0 -17 10q0 8 11 23zM598 604q55 4 112.5 5t110.5 1q115 0 226 -6q-4 49 -5.5 122t-1.5 179q0 49 1 106.5t3.5 111l4.5 97.5t6 68q-12 -33 -39 -79t-61 -98l-72 -110l-76 -112 l-63 -92l-60 -83l-51 -67q-23 -29 -35 -43z" />
<glyph unicode="&#xc7;" horiz-adv-x="1366" d="M121 717q0 160 52 301t150.5 246.5t240 167t317.5 61.5q125 0 229 -29.5t176 -81.5q14 -10 18.5 -22t4.5 -31v-137q0 -33 -27 -33q-10 0 -27 12q-72 68 -169 106t-205 38q-131 0 -231.5 -43t-169 -121t-103.5 -186.5t-35 -239.5q0 -135 39 -243.5t108.5 -183.5t166 -116 t210.5 -41q117 0 212.5 31t181.5 102q16 10 24 11q25 0 25 -29v-109q0 -18 -5.5 -26t-17.5 -19q-78 -59 -169 -88.5t-216 -38.5l-104 -94h20q109 0 162 -54t53 -124q0 -37 -15.5 -73t-47 -65.5t-78.5 -47t-111 -17.5q-49 0 -86 6.5t-67 16.5q-12 2 -13 18v60q0 16 15 10 q27 -10 56.5 -14.5t53.5 -4.5q78 0 110 28t32 81q0 47 -27 78t-104 31q-16 0 -29.5 -4.5t-30.5 -8.5q-8 0 -15 12.5t-7 24.5q0 4 4 12l137 129q-152 2 -277.5 58.5t-217 154t-142.5 232.5t-51 297z" />
<glyph unicode="&#xc8;" horiz-adv-x="1163" d="M188 18v1407q0 20 19 21h860q12 0 16 -19l15 -127q0 -16 -15 -16q-47 0 -105 1t-119.5 1t-119 1t-102.5 1q-80 0 -137.5 1t-110.5 5q4 -59 5 -118.5t1 -112.5q0 -117 -6 -236q47 4 103.5 6.5t134.5 2.5t135 1t94 1q14 0 14 -19v-123q0 -16 -14 -16q-39 0 -97.5 1 t-135.5 1q-66 0 -124.5 3t-109.5 7q6 -135 6 -260q0 -143 -6 -280q37 2 71 3t72.5 2t82.5 1h102q98 0 201.5 2t195.5 2q14 0 14 -19l-16 -127q-4 -16 -14 -16h-891q-8 0 -13.5 6t-5.5 12zM403 1868h156q8 0 18.5 -7.5t14.5 -13.5l256 -286q4 -4 4 -9q0 -2 -1 -4 q-3 -6 -11 -6h-84q-6 0 -15.5 5t-15.5 12l-326 286q-7 5 -6 11q-1 12 10 12z" />
<glyph unicode="&#xc9;" horiz-adv-x="1163" d="M188 18v1407q0 20 19 21h860q12 0 16 -19l15 -127q0 -16 -15 -16q-47 0 -105 1t-119.5 1t-119 1t-102.5 1q-80 0 -137.5 1t-110.5 5q4 -59 5 -118.5t1 -112.5q0 -117 -6 -236q47 4 103.5 6.5t134.5 2.5t135 1t94 1q14 0 14 -19v-123q0 -16 -14 -16q-39 0 -97.5 1 t-135.5 1q-66 0 -124.5 3t-109.5 7q6 -135 6 -260q0 -143 -6 -280q37 2 71 3t72.5 2t82.5 1h102q98 0 201.5 2t195.5 2q14 0 14 -19l-16 -127q-4 -16 -14 -16h-891q-8 0 -13.5 6t-5.5 12zM509 1548q-1 3 -1 6q0 4 2 7l258 286q4 6 13.5 13.5t17.5 7.5h155q11 0 11 -12 q0 -6 -4 -11l-328 -286q-6 -6 -15.5 -11.5t-15.5 -5.5h-82q-8 0 -11 6z" />
<glyph unicode="&#xca;" horiz-adv-x="1163" d="M188 18v1407q0 20 19 21h860q12 0 16 -19l15 -127q0 -16 -15 -16q-47 0 -105 1t-119.5 1t-119 1t-102.5 1q-80 0 -137.5 1t-110.5 5q4 -59 5 -118.5t1 -112.5q0 -117 -6 -236q47 4 103.5 6.5t134.5 2.5t135 1t94 1q14 0 14 -19v-123q0 -16 -14 -16q-39 0 -97.5 1 t-135.5 1q-66 0 -124.5 3t-109.5 7q6 -135 6 -260q0 -143 -6 -280q37 2 71 3t72.5 2t82.5 1h102q98 0 201.5 2t195.5 2q14 0 14 -19l-16 -127q-4 -16 -14 -16h-891q-8 0 -13.5 6t-5.5 12zM331 1551q0 5 3 10l250 288q18 18 30 19h86q16 0 33 -19l246 -288q2 -3 2 -6.5 t-2 -6.5q-4 -6 -10 -6h-86q-12 0 -33 19l-199 188l-198 -188q-23 -18 -33 -19h-78q-11 0 -11 9z" />
<glyph unicode="&#xcb;" horiz-adv-x="1163" d="M188 18v1407q0 20 19 21h860q12 0 16 -19l15 -127q0 -16 -15 -16q-47 0 -105 1t-119.5 1t-119 1t-102.5 1q-80 0 -137.5 1t-110.5 5q4 -59 5 -118.5t1 -112.5q0 -117 -6 -236q47 4 103.5 6.5t134.5 2.5t135 1t94 1q14 0 14 -19v-123q0 -16 -14 -16q-39 0 -97.5 1 t-135.5 1q-66 0 -124.5 3t-109.5 7q6 -135 6 -260q0 -143 -6 -280q37 2 71 3t72.5 2t82.5 1h102q98 0 201.5 2t195.5 2q14 0 14 -19l-16 -127q-4 -16 -14 -16h-891q-8 0 -13.5 6t-5.5 12zM354 1657q0 43 31 73.5t74 30.5t73.5 -30.5t30.5 -73.5q0 -41 -30.5 -72t-73.5 -31 t-74 31t-31 72zM752 1657q0 43 31.5 73.5t72.5 30.5q43 0 74 -30.5t31 -73.5q0 -41 -31 -72t-74 -31q-41 0 -72.5 31t-31.5 72z" />
<glyph unicode="&#xcc;" horiz-adv-x="583" d="M-23 1868h156q8 0 18.5 -7.5t14.5 -13.5l256 -286q4 -4 4 -9q0 -2 -1 -4q-3 -6 -11 -6h-84q-6 0 -15.5 5t-15.5 12l-326 286q-7 5 -6 11q-1 12 10 12zM188 18v1407q0 20 19 21h170q6 0 12 -6t6 -15v-1407q0 -6 -6 -12t-12 -6h-170q-8 0 -13.5 6t-5.5 12z" />
<glyph unicode="&#xcd;" horiz-adv-x="583" d="M142 1548q-1 3 -1 6q0 4 2 7l258 286q4 6 13.5 13.5t17.5 7.5h156q11 0 11 -12q0 -6 -5 -11l-328 -286q-6 -6 -15 -11.5t-15 -5.5h-82q-9 0 -12 6zM188 18v1407q0 20 19 21h170q6 0 12 -6t6 -15v-1407q0 -6 -6 -12t-12 -6h-170q-8 0 -13.5 6t-5.5 12z" />
<glyph unicode="&#xce;" horiz-adv-x="583" d="M-34 1551q0 5 3 10l250 288q18 18 31 19h86q16 0 33 -19l245 -288q2 -3 2 -6.5t-2 -6.5q-4 -6 -10 -6h-86q-12 0 -33 19l-198 188l-199 -188q-23 -18 -33 -19h-78q-11 0 -11 9zM188 18v1407q0 20 19 21h170q6 0 12 -6t6 -15v-1407q0 -6 -6 -12t-12 -6h-170q-8 0 -13.5 6 t-5.5 12z" />
<glyph unicode="&#xcf;" horiz-adv-x="583" d="M-12 1657q0 43 30.5 73.5t73.5 30.5t74 -30.5t31 -73.5q0 -41 -31 -72t-74 -31t-73.5 31t-30.5 72zM188 18v1407q0 20 19 21h170q6 0 12 -6t6 -15v-1407q0 -6 -6 -12t-12 -6h-170q-8 0 -13.5 6t-5.5 12zM385 1657q0 43 32 73.5t72 30.5q43 0 74 -30.5t31 -73.5 q0 -41 -31 -72t-74 -31q-41 0 -72.5 31t-31.5 72z" />
<glyph unicode="&#xd0;" horiz-adv-x="1558" d="M0 680v98q0 18 18 19h72q35 0 72 -1t65 -5q-6 41 -8 88t-2 82v464q0 20 19 21h450q172 0 312.5 -49t239.5 -143.5t153.5 -230.5t54.5 -310q0 -176 -54.5 -309.5t-152.5 -223.5t-234.5 -135t-299.5 -45h-469q-8 0 -13.5 6t-5.5 12v504q0 49 3 86t7 62q-33 -4 -69.5 -5 t-67.5 -1h-72q-8 0 -13 6t-5 10zM416 670q4 -27 5 -66t1 -82v-106v-130q0 -65 -4 -130q78 4 142.5 5t137.5 1q106 0 202.5 29.5t167.5 96t113 173t42 260.5q0 119 -32 222.5t-98.5 179t-171 118.5t-251.5 43q-55 0 -127 1t-127 5q4 -53 5 -109.5t1 -113.5v-115q0 -35 -1 -78 t-5 -83q31 4 69.5 5t92.5 1h141q6 0 12 -5.5t6 -13.5v-98q0 -4 -6 -10t-12 -6h-144q-59 0 -94.5 1t-64.5 5z" />
<glyph unicode="&#xd1;" horiz-adv-x="1581" d="M188 18v1407q0 20 19 21h231q10 0 18.5 -6t12.5 -15l590 -913q57 -88 95 -166t67 -156q-10 106 -13.5 190.5t-3.5 184.5v860q0 20 19 21h151q6 0 12.5 -6t6.5 -15v-1407q0 -6 -6.5 -12t-12.5 -6h-200q-16 0 -25 16l-643 998q-86 131 -141 274q6 -78 9 -153.5t3 -161.5 v-955q0 -6 -5 -12t-12 -6h-153q-8 0 -13.5 6t-5.5 12zM500 1587q0 115 58 170t138 55q55 0 93 -19t69 -44t59.5 -44t63.5 -19q33 0 60.5 22.5t27.5 73.5q0 23 18 22q10 0 32 -5t22 -21q0 -109 -52.5 -170.5t-130.5 -61.5q-41 0 -78.5 22.5t-72.5 49.5t-70 49.5t-69 22.5 q-41 0 -67 -31t-26 -72q0 -25 -24 -24q-16 0 -33.5 6t-17.5 18z" />
<glyph unicode="&#xd2;" horiz-adv-x="1697" d="M121 745q0 174 59.5 312.5t159.5 235t231 148.5t277 52q143 0 275 -50t233.5 -146.5t162 -234.5t60.5 -317q0 -174 -54.5 -316t-151.5 -243.5t-231 -157t-294 -55.5q-150 0 -282 54.5t-231 155t-156.5 242.5t-57.5 320zM350 745q0 -133 33 -243.5t96.5 -191.5t155.5 -126 t213 -45q123 0 216 44t156.5 124t95.5 191.5t32 246.5q0 147 -38 256t-104.5 180.5t-158 107.5t-197.5 36q-104 0 -195.5 -35t-159 -106.5t-106.5 -181.5t-39 -257zM627 1868h155q8 0 18.5 -7.5t14.5 -13.5l256 -286q4 -4 4 -9q0 -2 -1 -4q-3 -6 -11 -6h-84q-6 0 -15.5 5 t-15.5 12l-325 286q-7 5 -7 11q0 12 11 12z" />
<glyph unicode="&#xd3;" horiz-adv-x="1697" d="M121 745q0 174 59.5 312.5t159.5 235t231 148.5t277 52q143 0 275 -50t233.5 -146.5t162 -234.5t60.5 -317q0 -174 -54.5 -316t-151.5 -243.5t-231 -157t-294 -55.5q-150 0 -282 54.5t-231 155t-156.5 242.5t-57.5 320zM350 745q0 -133 33 -243.5t96.5 -191.5t155.5 -126 t213 -45q123 0 216 44t156.5 124t95.5 191.5t32 246.5q0 147 -38 256t-104.5 180.5t-158 107.5t-197.5 36q-104 0 -195.5 -35t-159 -106.5t-106.5 -181.5t-39 -257zM638 1548q-1 3 -1 6q0 4 2 7l258 286q4 6 13.5 13.5t17.5 7.5h155q11 0 11 -12q0 -6 -4 -11l-328 -286 q-6 -6 -15.5 -11.5t-15.5 -5.5h-82q-8 0 -11 6z" />
<glyph unicode="&#xd4;" horiz-adv-x="1697" d="M121 745q0 174 59.5 312.5t159.5 235t231 148.5t277 52q143 0 275 -50t233.5 -146.5t162 -234.5t60.5 -317q0 -174 -54.5 -316t-151.5 -243.5t-231 -157t-294 -55.5q-150 0 -282 54.5t-231 155t-156.5 242.5t-57.5 320zM350 745q0 -133 33 -243.5t96.5 -191.5t155.5 -126 t213 -45q123 0 216 44t156.5 124t95.5 191.5t32 246.5q0 147 -38 256t-104.5 180.5t-158 107.5t-197.5 36q-104 0 -195.5 -35t-159 -106.5t-106.5 -181.5t-39 -257zM525 1551q0 5 3 10l250 288q18 18 31 19h86q16 0 33 -19l246 -288q2 -3 2 -6.5t-2 -6.5q-4 -6 -11 -6h-86 q-12 0 -33 19l-198 188l-199 -188q-23 -18 -33 -19h-77q-12 0 -12 9z" />
<glyph unicode="&#xd5;" horiz-adv-x="1697" d="M121 745q0 174 59.5 312.5t159.5 235t231 148.5t277 52q143 0 275 -50t233.5 -146.5t162 -234.5t60.5 -317q0 -174 -54.5 -316t-151.5 -243.5t-231 -157t-294 -55.5q-150 0 -282 54.5t-231 155t-156.5 242.5t-57.5 320zM350 745q0 -133 33 -243.5t96.5 -191.5t155.5 -126 t213 -45q123 0 216 44t156.5 124t95.5 191.5t32 246.5q0 147 -38 256t-104.5 180.5t-158 107.5t-197.5 36q-104 0 -195.5 -35t-159 -106.5t-106.5 -181.5t-39 -257zM530 1587q0 115 58.5 170t138.5 55q55 0 93 -19t69 -44t59.5 -44t63.5 -19q33 0 60.5 22.5t27.5 73.5 q0 23 18 22q10 0 31.5 -5t21.5 -21q0 -109 -52 -170.5t-130 -61.5q-41 0 -79 22.5t-72.5 49.5t-69.5 49.5t-70 22.5q-41 0 -66.5 -31t-25.5 -72q0 -25 -24 -24q-16 0 -34 6t-18 18z" />
<glyph unicode="&#xd6;" horiz-adv-x="1697" d="M121 745q0 174 59.5 312.5t159.5 235t231 148.5t277 52q143 0 275 -50t233.5 -146.5t162 -234.5t60.5 -317q0 -174 -54.5 -316t-151.5 -243.5t-231 -157t-294 -55.5q-150 0 -282 54.5t-231 155t-156.5 242.5t-57.5 320zM350 745q0 -133 33 -243.5t96.5 -191.5t155.5 -126 t213 -45q123 0 216 44t156.5 124t95.5 191.5t32 246.5q0 147 -38 256t-104.5 180.5t-158 107.5t-197.5 36q-104 0 -195.5 -35t-159 -106.5t-106.5 -181.5t-39 -257zM547 1657q0 43 30.5 73.5t73.5 30.5t74 -30.5t31 -73.5q0 -41 -31 -72t-74 -31t-73.5 31t-30.5 72z M944 1657q0 43 32 73.5t73 30.5q43 0 73.5 -30.5t30.5 -73.5q0 -41 -30.5 -72t-73.5 -31q-41 0 -73 31t-32 72z" />
<glyph unicode="&#xd7;" horiz-adv-x="1024" d="M170 788.5q0 8.5 4 14.5l94 92q4 4 12.5 4t12.5 -4l100 -100q29 -25 62.5 -62l60.5 -69l48 52l63 64l114 115q4 4 13.5 4t13.5 -4l84 -84q4 -4 4 -13.5t-4 -13.5l-117 -114l-67 -66q-27 -25 -50 -43q18 -14 49 -41.5t66 -62.5l121 -121q6 -7 6 -14t-6 -13l-94 -92 q-6 -6 -15 -7h-2q-7 0 -12 5l-121 121q-35 37 -60.5 66.5t-39.5 48.5q-20 -25 -54 -62l-59 -61l-114 -113q-4 -5 -10 -5h-3q-8 1 -12 5l-84 84q-9 9 -9 16q0 6 7 11l117 118l60 58q36 35 59 51q-35 25 -71 59l-63 60l-100 104q-4 4 -4 12.5z" />
<glyph unicode="&#xd8;" horiz-adv-x="1697" d="M116 12q0 4 3 6l184 201q-86 96 -134 228.5t-48 297.5q0 174 59.5 312.5t159.5 235t232.5 148.5t275.5 52q129 0 247.5 -42t217.5 -122l88 96q8 6 16 13.5t19 7.5h151q10 0 14 -7q1 -2 0 -4q0 -5 -6 -12l-178 -194q74 -92 118 -213t44 -271q0 -174 -55.5 -316 t-152.5 -243.5t-231 -157t-292 -55.5q-123 0 -235.5 38t-204.5 110l-95 -103q-4 -4 -12 -11t-18 -7h-154q-13 0 -13 12zM350 737q0 -102 26.5 -196.5t78.5 -165.5l739 819q-66 66 -155 99.5t-189 33.5q-106 0 -197.5 -37t-159 -110.5t-105.5 -184.5t-38 -258zM528 258 q59 -55 139.5 -87t180.5 -32q123 0 217 44t157.5 124t95.5 192.5t32 250.5q0 98 -23.5 178t-64.5 139z" />
<glyph unicode="&#xd9;" horiz-adv-x="1542" d="M170 494v931q0 20 18 21h172q6 0 12.5 -6t6.5 -15v-905q0 -174 103.5 -269t287.5 -95q193 0 296 87t103 267v915q0 20 19 21h166q6 0 12 -6t6 -15v-938q0 -117 -44 -212t-123 -161.5t-190.5 -103.5t-246.5 -37q-133 0 -243.5 37t-189.5 104.5t-122 164t-43 215.5z M524 1868h156q8 0 18.5 -7.5t14.5 -13.5l256 -286q4 -4 4 -9q0 -2 -1 -4q-3 -6 -11 -6h-84q-6 0 -15.5 5t-15.5 12l-326 286q-7 5 -6 11q-1 12 10 12z" />
<glyph unicode="&#xda;" horiz-adv-x="1542" d="M170 494v931q0 20 18 21h172q6 0 12.5 -6t6.5 -15v-905q0 -174 103.5 -269t287.5 -95q193 0 296 87t103 267v915q0 20 19 21h166q6 0 12 -6t6 -15v-938q0 -117 -44 -212t-123 -161.5t-190.5 -103.5t-246.5 -37q-133 0 -243.5 37t-189.5 104.5t-122 164t-43 215.5z M611 1548q-1 3 -1 6q0 4 2 7l258 286q4 6 13.5 13.5t17.5 7.5h156q11 0 11 -12q0 -6 -5 -11l-328 -286q-6 -6 -15 -11.5t-15 -5.5h-82q-9 0 -12 6z" />
<glyph unicode="&#xdb;" horiz-adv-x="1542" d="M170 494v931q0 20 18 21h172q6 0 12.5 -6t6.5 -15v-905q0 -174 103.5 -269t287.5 -95q193 0 296 87t103 267v915q0 20 19 21h166q6 0 12 -6t6 -15v-938q0 -117 -44 -212t-123 -161.5t-190.5 -103.5t-246.5 -37q-133 0 -243.5 37t-189.5 104.5t-122 164t-43 215.5z M445 1551q0 5 4 10l249 288q18 18 31 19h86q16 0 33 -19l246 -288q2 -3 2 -6.5t-2 -6.5q-4 -6 -11 -6h-86q-12 0 -32 19l-199 188l-199 -188q-23 -18 -32 -19h-78q-12 0 -12 9z" />
<glyph unicode="&#xdc;" horiz-adv-x="1542" d="M170 494v931q0 20 18 21h172q6 0 12.5 -6t6.5 -15v-905q0 -174 103.5 -269t287.5 -95q193 0 296 87t103 267v915q0 20 19 21h166q6 0 12 -6t6 -15v-938q0 -117 -44 -212t-123 -161.5t-190.5 -103.5t-246.5 -37q-133 0 -243.5 37t-189.5 104.5t-122 164t-43 215.5z M467 1657q0 43 30.5 73.5t73.5 30.5t74 -30.5t31 -73.5q0 -41 -31 -72t-74 -31t-73.5 31t-30.5 72zM864 1657q0 43 32 73.5t73 30.5q43 0 73.5 -30.5t30.5 -73.5q0 -41 -30.5 -72t-73.5 -31q-41 0 -73 31t-32 72z" />
<glyph unicode="&#xdd;" horiz-adv-x="1388" d="M10 1446h191q23 0 35 -23l333 -444q37 -49 69 -100.5t56 -106.5q31 59 62.5 108.5t66.5 96.5l336 446q10 14 20.5 18.5t22.5 4.5h172q16 0 19 -10v-4q0 -9 -9 -19l-591 -782v-613q0 -6 -6.5 -12t-12.5 -6h-170q-8 0 -13 6t-5 12v613l-586 782q-9 10 -9 19q0 14 19 14z M513 1548q-1 3 -1 6q0 4 2 7l258 286q4 6 13.5 13.5t17.5 7.5h155q11 0 11 -12q0 -6 -4 -11l-328 -286q-6 -6 -15.5 -11.5t-15.5 -5.5h-82q-8 0 -11 6z" />
<glyph unicode="&#xde;" horiz-adv-x="1191" d="M188 18v1407q0 20 19 21h170q6 0 12 -6t6 -15v-107q0 -54 -4 -110h219q131 0 228.5 -35.5t161 -97t94 -142.5t30.5 -169q0 -203 -135 -326t-405 -123q-59 0 -106.5 2t-88.5 5q4 -61 5 -143.5t1 -160.5q0 -6 -6 -12t-12 -6h-170q-8 0 -13.5 6t-5.5 12zM391 465q43 4 90 5 t88 1q168 0 252 70.5t84 218.5q0 61 -17.5 115.5t-53 94.5t-93 62.5t-137.5 22.5h-108q-51 0 -105 4q2 -29 3 -67t1 -78v-77v-67v-71v-82q0 -42 -1 -81.5t-3 -70.5z" />
<glyph unicode="&#xdf;" horiz-adv-x="1126" d="M49 866v103q0 18 12 18q33 0 68 -2t64 -6q-6 33 -7 78q0 78 26 150.5t81 129t140 90t206 33.5q92 0 161.5 -23.5t118 -63.5t73 -94t24.5 -115.5t-20.5 -107.5t-51.5 -82t-65.5 -63.5t-65.5 -55.5t-51.5 -56.5t-20.5 -65.5q0 -47 39 -86t92 -86q51 -41 86 -78t57.5 -73.5 t33 -74.5t10.5 -83q0 -74 -27.5 -127t-72 -86t-101.5 -48.5t-117 -15.5q-127 0 -190.5 44t-63.5 104q0 35 18.5 58.5t57.5 23.5q31 0 45.5 -15.5t28.5 -35t37.5 -35t77.5 -15.5q59 0 97 36t38 98q0 53 -31 101t-119 116l-61 50q-31 26 -54.5 54.5t-39 64t-15.5 81.5 q0 74 40 124t87 96t87 93t40 115q0 184 -200 184q-121 0 -185.5 -69.5t-64.5 -215.5v-1014q0 -6 -6.5 -12t-12.5 -6h-149q-8 0 -13.5 6t-5.5 12v682q0 59 1 94t5 64q-31 -4 -64.5 -6t-64.5 -2q-12 0 -12 16z" />
<glyph unicode="&#xe0;" horiz-adv-x="1050" d="M102 233q0 76 38 146t114 123t191.5 89t271.5 46v70q0 86 -45 135t-162 49q-125 0 -182 -70q-23 -29 -40.5 -47t-52 -18t-57 20.5t-22.5 59.5q0 25 20.5 57.5t64.5 61t113.5 48t169.5 19.5q104 0 176 -23.5t116 -64.5t63.5 -96.5t19.5 -120.5q0 -47 -2 -103.5t-3 -114 t-3 -111.5t-2 -97q0 -109 18.5 -168.5t40.5 -75.5q10 -10 10 -24q0 -10 -7 -16.5t-15 -6.5h-90q-41 0 -55 37q-16 29 -27.5 75t-13.5 95q-43 -109 -130.5 -171.5t-218.5 -62.5q-141 0 -220 73.5t-79 186.5zM262 1446h154q8 0 18 -7t15 -14l229 -290q8 -8 4 -15.5t-14 -7.5 h-76q-16 0 -41 21l-293 290q-5 5 -5 11q0 12 9 12zM285 266q0 -76 50 -114.5t118 -38.5q59 0 107 22.5t83 61.5t54.5 91t19.5 111v133q-119 -8 -201 -32.5t-133 -59t-74.5 -80t-23.5 -94.5z" />
<glyph unicode="&#xe1;" horiz-adv-x="1050" d="M102 233q0 76 38 146t114 123t191.5 89t271.5 46v70q0 86 -45 135t-162 49q-125 0 -182 -70q-23 -29 -40.5 -47t-52 -18t-57 20.5t-22.5 59.5q0 25 20.5 57.5t64.5 61t113.5 48t169.5 19.5q104 0 176 -23.5t116 -64.5t63.5 -96.5t19.5 -120.5q0 -47 -2 -103.5t-3 -114 t-3 -111.5t-2 -97q0 -109 18.5 -168.5t40.5 -75.5q10 -10 10 -24q0 -10 -7 -16.5t-15 -6.5h-90q-41 0 -55 37q-16 29 -27.5 75t-13.5 95q-43 -109 -130.5 -171.5t-218.5 -62.5q-141 0 -220 73.5t-79 186.5zM285 266q0 -76 50 -114.5t118 -38.5q59 0 107 22.5t83 61.5 t54.5 91t19.5 111v133q-119 -8 -201 -32.5t-133 -59t-74.5 -80t-23.5 -94.5zM373 1119q-1 2 -2 5q0 5 6 11l229 290q4 6 14.5 13.5t18.5 7.5h154q9 0 8 -12q0 -6 -4 -11l-293 -290q-25 -20 -41 -21h-76q-10 0 -14 7z" />
<glyph unicode="&#xe2;" horiz-adv-x="1050" d="M102 233q0 76 38 146t114 123t191.5 89t271.5 46v70q0 86 -45 135t-162 49q-125 0 -182 -70q-23 -29 -40.5 -47t-52 -18t-57 20.5t-22.5 59.5q0 25 20.5 57.5t64.5 61t113.5 48t169.5 19.5q104 0 176 -23.5t116 -64.5t63.5 -96.5t19.5 -120.5q0 -47 -2 -103.5t-3 -114 t-3 -111.5t-2 -97q0 -109 18.5 -168.5t40.5 -75.5q10 -10 10 -24q0 -10 -7 -16.5t-15 -6.5h-90q-41 0 -55 37q-16 29 -27.5 75t-13.5 95q-43 -109 -130.5 -171.5t-218.5 -62.5q-141 0 -220 73.5t-79 186.5zM217 1130l223 295q4 6 12.5 13.5t18.5 7.5h100q10 0 17.5 -6 t13.5 -15l223 -295q2 -3 2 -6t-2 -6q-4 -6 -10 -6h-88q-14 0 -33 18l-180 195l-176 -195q-18 -18 -33 -18h-82q-10 0 -10 7q0 4 4 11zM285 266q0 -76 50 -114.5t118 -38.5q59 0 107 22.5t83 61.5t54.5 91t19.5 111v133q-119 -8 -201 -32.5t-133 -59t-74.5 -80t-23.5 -94.5z " />
<glyph unicode="&#xe3;" horiz-adv-x="1050" d="M102 233q0 76 38 146t114 123t191.5 89t271.5 46v70q0 86 -45 135t-162 49q-125 0 -182 -70q-23 -29 -40.5 -47t-52 -18t-57 20.5t-22.5 59.5q0 25 20.5 57.5t64.5 61t113.5 48t169.5 19.5q104 0 176 -23.5t116 -64.5t63.5 -96.5t19.5 -120.5q0 -47 -2 -103.5t-3 -114 t-3 -111.5t-2 -97q0 -109 18.5 -168.5t40.5 -75.5q10 -10 10 -24q0 -10 -7 -16.5t-15 -6.5h-90q-41 0 -55 37q-16 29 -27.5 75t-13.5 95q-43 -109 -130.5 -171.5t-218.5 -62.5q-141 0 -220 73.5t-79 186.5zM211 1178q0 119 58.5 177t138.5 58q55 0 93 -20.5t68.5 -46t59 -46 t63.5 -20.5q33 0 60.5 24.5t27.5 77.5q0 23 19 23q10 0 31.5 -5t21.5 -22q0 -117 -52 -180t-130 -63q-41 0 -79 23.5t-73 51t-69.5 51t-69.5 23.5q-41 0 -66.5 -32.5t-25.5 -73.5q0 -27 -25 -27q-16 0 -33.5 6.5t-17.5 20.5zM285 266q0 -76 50 -114.5t118 -38.5 q59 0 107 22.5t83 61.5t54.5 91t19.5 111v133q-119 -8 -201 -32.5t-133 -59t-74.5 -80t-23.5 -94.5z" />
<glyph unicode="&#xe4;" horiz-adv-x="1050" d="M102 233q0 76 38 146t114 123t191.5 89t271.5 46v70q0 86 -45 135t-162 49q-125 0 -182 -70q-23 -29 -40.5 -47t-52 -18t-57 20.5t-22.5 59.5q0 25 20.5 57.5t64.5 61t113.5 48t169.5 19.5q104 0 176 -23.5t116 -64.5t63.5 -96.5t19.5 -120.5q0 -47 -2 -103.5t-3 -114 t-3 -111.5t-2 -97q0 -109 18.5 -168.5t40.5 -75.5q10 -10 10 -24q0 -10 -7 -16.5t-15 -6.5h-90q-41 0 -55 37q-16 29 -27.5 75t-13.5 95q-43 -109 -130.5 -171.5t-218.5 -62.5q-141 0 -220 73.5t-79 186.5zM223 1264q0 43 31 73.5t74 30.5t73.5 -30.5t30.5 -73.5 q0 -41 -30.5 -73t-73.5 -32t-74 32t-31 73zM285 266q0 -76 50 -114.5t118 -38.5q59 0 107 22.5t83 61.5t54.5 91t19.5 111v133q-119 -8 -201 -32.5t-133 -59t-74.5 -80t-23.5 -94.5zM606 1264q0 43 31 73.5t74 30.5t73.5 -30.5t30.5 -73.5q0 -41 -30.5 -73t-73.5 -32t-74 32 t-31 73z" />
<glyph unicode="&#xe5;" horiz-adv-x="1050" d="M102 233q0 76 38 146t114 123t191.5 89t271.5 46v70q0 86 -45 135t-162 49q-125 0 -182 -70q-23 -29 -40.5 -47t-52 -18t-57 20.5t-22.5 59.5q0 25 20.5 57.5t64.5 61t113.5 48t169.5 19.5q104 0 176 -23.5t116 -64.5t63.5 -96.5t19.5 -120.5q0 -47 -2 -103.5t-3 -114 t-3 -111.5t-2 -97q0 -109 18.5 -168.5t40.5 -75.5q10 -10 10 -24q0 -10 -7 -16.5t-15 -6.5h-90q-41 0 -55 37q-16 29 -27.5 75t-13.5 95q-43 -109 -130.5 -171.5t-218.5 -62.5q-141 0 -220 73.5t-79 186.5zM285 266q0 -76 50 -114.5t118 -38.5q59 0 107 22.5t83 61.5 t54.5 91t19.5 111v133q-119 -8 -201 -32.5t-133 -59t-74.5 -80t-23.5 -94.5zM303 1282q0 45 18.5 84t49 66.5t71.5 43t88.5 15.5t89.5 -15.5t72.5 -43t49 -66.5t18.5 -84t-18.5 -83t-49 -65.5t-72.5 -43t-89.5 -15.5t-88.5 15.5t-71.5 43t-49 65.5t-18.5 83zM418 1280 q0 -51 30.5 -87t81.5 -36q53 0 84 36t31 87q0 53 -30.5 87t-84.5 34q-51 0 -81.5 -34t-30.5 -87z" />
<glyph unicode="&#xe6;" horiz-adv-x="1648" d="M102 233q0 76 38 146t114 124t191.5 90t271.5 46v68q0 86 -45 135t-162 49q-125 0 -182 -70q-23 -29 -40.5 -47t-52 -18t-57 20.5t-22.5 59.5q0 25 18.5 57.5t61.5 61t111.5 48t168.5 19.5q135 0 210 -49t116 -133q23 39 61.5 72.5t85.5 58t101.5 38t107.5 13.5 q190 0 285.5 -105.5t95.5 -281.5q0 -29 -11.5 -45.5t-43.5 -16.5h-627q-4 -23 -7 -47t-3 -63q0 -70 21.5 -131.5t63.5 -107.5t103.5 -73.5t141.5 -27.5q78 0 143 21.5t115 60.5q10 10 22 10q14 0 14 -20v-95q0 -23 -16 -34q-47 -37 -127 -65t-180 -28q-166 0 -264.5 76 t-145.5 199q-53 -129 -150.5 -202t-226.5 -73q-141 0 -220 73.5t-79 186.5zM285 266q0 -76 50 -114.5t118 -38.5q59 0 107 22.5t83 61.5t54.5 91t19.5 111v133q-119 -8 -201 -32.5t-133 -59t-74.5 -80t-23.5 -94.5zM915 684h500q0 92 -55 151.5t-164 59.5 q-113 0 -180.5 -58.5t-100.5 -152.5z" />
<glyph unicode="&#xe7;" horiz-adv-x="964" d="M92 481q0 104 37 201.5t106.5 173.5t169 121t224.5 45q92 0 150.5 -21.5t95.5 -52.5q49 -35 49 -88q0 -35 -21.5 -60.5t-54.5 -25.5q-25 0 -39 9.5t-35 27.5q-27 23 -65.5 40t-96.5 17q-78 0 -139 -31.5t-103 -85t-63.5 -121t-21.5 -138.5q0 -90 25.5 -160t69.5 -116 t104.5 -69.5t129.5 -23.5q147 0 240 78q6 4 11 8t12 4q10 0 14 -7t4 -18v-88q0 -23 -14 -34q-47 -37 -108.5 -61.5t-139.5 -29.5l-105 -94h21q109 0 162 -54t53 -124q0 -37 -15.5 -73t-47 -65.5t-79 -47t-110.5 -17.5q-49 0 -86 6.5t-68 16.5q-12 2 -12 18v60q0 16 14 10 q27 -10 56.5 -14.5t54.5 -4.5q78 0 109.5 28t31.5 81q0 47 -26.5 78t-104.5 31q-16 0 -29.5 -4.5t-29.5 -8.5q-8 0 -15.5 12.5t-7.5 24.5q0 4 4 12l138 129q-102 8 -185.5 47t-141.5 106t-90 155.5t-32 197.5z" />
<glyph unicode="&#xe8;" horiz-adv-x="1044" d="M92 483q0 100 33 196.5t96.5 172.5t157.5 123t215 47q190 0 285.5 -105.5t95.5 -281.5q0 -29 -11.5 -45.5t-43.5 -16.5h-627q-4 -23 -7 -47t-3 -63q0 -70 21.5 -131.5t63.5 -107.5t103 -73.5t141 -27.5q78 0 143.5 21.5t114.5 60.5q10 10 23 10q14 0 14 -20v-95 q0 -23 -16 -34q-47 -37 -127 -65t-180 -28q-117 0 -208 39t-154.5 107.5t-96.5 161.5t-33 202zM311 684h500q0 92 -55.5 151.5t-163.5 59.5q-113 0 -180.5 -58.5t-100.5 -152.5zM326 1446h153q8 0 18.5 -7t14.5 -14l229 -290q5 -5 6 -11q0 -3 -2 -5q-4 -7 -14 -7h-76 q-16 0 -41 21l-292 290q-5 5 -5 11q0 12 9 12z" />
<glyph unicode="&#xe9;" horiz-adv-x="1044" d="M92 483q0 100 33 196.5t96.5 172.5t157.5 123t215 47q190 0 285.5 -105.5t95.5 -281.5q0 -29 -11.5 -45.5t-43.5 -16.5h-627q-4 -23 -7 -47t-3 -63q0 -70 21.5 -131.5t63.5 -107.5t103 -73.5t141 -27.5q78 0 143.5 21.5t114.5 60.5q10 10 23 10q14 0 14 -20v-95 q0 -23 -16 -34q-47 -37 -127 -65t-180 -28q-117 0 -208 39t-154.5 107.5t-96.5 161.5t-33 202zM311 684h500q0 92 -55.5 151.5t-163.5 59.5q-113 0 -180.5 -58.5t-100.5 -152.5zM403 1119q-1 2 -1 5q0 5 6 11l229 290q4 6 14.5 13.5t18.5 7.5h153q9 0 9 -12q0 -6 -5 -11 l-292 -290q-25 -20 -41 -21h-76q-11 0 -15 7z" />
<glyph unicode="&#xea;" horiz-adv-x="1044" d="M92 483q0 100 33 196.5t96.5 172.5t157.5 123t215 47q190 0 285.5 -105.5t95.5 -281.5q0 -29 -11.5 -45.5t-43.5 -16.5h-627q-4 -23 -7 -47t-3 -63q0 -70 21.5 -131.5t63.5 -107.5t103 -73.5t141 -27.5q78 0 143.5 21.5t114.5 60.5q10 10 23 10q14 0 14 -20v-95 q0 -23 -16 -34q-47 -37 -127 -65t-180 -28q-117 0 -208 39t-154.5 107.5t-96.5 161.5t-33 202zM274 1130l224 295q4 6 12 13.5t18 7.5h101q10 0 17 -6t13 -15l224 -295q2 -3 2 -6t-2 -6q-4 -6 -11 -6h-88q-14 0 -32 18l-181 195l-176 -195q-18 -18 -32 -18h-82q-11 0 -11 7 q0 4 4 11zM311 684h500q0 92 -55.5 151.5t-163.5 59.5q-113 0 -180.5 -58.5t-100.5 -152.5z" />
<glyph unicode="&#xeb;" horiz-adv-x="1044" d="M92 483q0 100 33 196.5t96.5 172.5t157.5 123t215 47q190 0 285.5 -105.5t95.5 -281.5q0 -29 -11.5 -45.5t-43.5 -16.5h-627q-4 -23 -7 -47t-3 -63q0 -70 21.5 -131.5t63.5 -107.5t103 -73.5t141 -27.5q78 0 143.5 21.5t114.5 60.5q10 10 23 10q14 0 14 -20v-95 q0 -23 -16 -34q-47 -37 -127 -65t-180 -28q-117 0 -208 39t-154.5 107.5t-96.5 161.5t-33 202zM270 1264q0 43 31 73.5t74 30.5t73.5 -30.5t30.5 -73.5q0 -41 -30.5 -73t-73.5 -32t-74 32t-31 73zM311 684h500q0 92 -55.5 151.5t-163.5 59.5q-113 0 -180.5 -58.5 t-100.5 -152.5zM653 1264q0 43 31 73.5t74 30.5t73.5 -30.5t30.5 -73.5q0 -41 -30.5 -73t-73.5 -32t-74 32t-31 73z" />
<glyph unicode="&#xec;" horiz-adv-x="493" d="M-27 1446h154q8 0 18.5 -7t14.5 -14l229 -290q5 -5 6 -11q0 -3 -2 -5q-4 -7 -14 -7h-76q-16 0 -41 21l-293 290q-5 5 -4 11q-1 12 8 12zM154 18v949q0 20 18 20h150q6 0 12 -6t6 -14v-949q0 -6 -6 -12t-12 -6h-150q-8 0 -13 6t-5 12z" />
<glyph unicode="&#xed;" horiz-adv-x="493" d="M86 1119q-1 2 -1 5q0 5 5 11l229 290q4 6 14.5 13.5t18.5 7.5h154q9 0 9 -12q0 -6 -5 -11l-293 -290q-25 -20 -41 -21h-76q-10 0 -14 7zM154 18v949q0 20 18 20h150q6 0 12 -6t6 -14v-949q0 -6 -6 -12t-12 -6h-150q-8 0 -13 6t-5 12z" />
<glyph unicode="&#xee;" horiz-adv-x="493" d="M-57 1130l223 295q4 6 12 13.5t19 7.5h100q10 0 17.5 -6t13.5 -15l223 -295q2 -3 2 -6t-2 -6q-4 -6 -10 -6h-88q-14 0 -33 18l-180 195l-177 -195q-18 -18 -32 -18h-82q-10 0 -10 7q0 4 4 11zM154 18v949q0 20 18 20h150q6 0 12 -6t6 -14v-949q0 -6 -6 -12t-12 -6h-150 q-8 0 -13 6t-5 12z" />
<glyph unicode="&#xef;" horiz-adv-x="493" d="M-49 1264q0 43 30.5 73.5t73.5 30.5t74 -30.5t31 -73.5q0 -41 -31 -73t-74 -32t-73.5 32t-30.5 73zM154 18v949q0 20 18 20h150q6 0 12 -6t6 -14v-949q0 -6 -6 -12t-12 -6h-150q-8 0 -13 6t-5 12zM334 1264q0 43 30.5 73.5t73.5 30.5t74 -30.5t31 -73.5q0 -41 -31 -73 t-74 -32t-73.5 32t-30.5 73z" />
<glyph unicode="&#xf0;" horiz-adv-x="1146" d="M119 467q0 111 27.5 199t76.5 150.5t120 96t157 33.5q125 0 215 -63.5t129 -161.5q-10 131 -41 245.5t-78 192.5l-215 -59q-16 -4 -23 10l-26 61q-4 10 -1 18.5t15 12.5l170 41q-43 49 -95 77t-112 28q-51 0 -81.5 -11.5t-51.5 -25.5l-37 -26q-16 -11 -39 -11 q-35 0 -56 21.5t-21 64.5q0 23 12 46.5t39.5 42.5t74 31.5t115.5 12.5q262 0 430 -199l174 43q6 2 13.5 0t11.5 -10l31 -67q1 -4 1 -8q0 -12 -18 -17l-145 -35q66 -109 103.5 -257t37.5 -339q0 -135 -28.5 -250.5t-86 -200.5t-143.5 -132.5t-201 -47.5q-102 0 -186 37 t-143.5 103.5t-92 157t-32.5 196.5zM319 453q0 -156 59.5 -250t186.5 -94q119 0 189.5 91t70.5 275q0 68 -14 129.5t-46 109.5t-83 75.5t-125 27.5q-51 0 -94 -19.5t-75 -63.5t-50.5 -113.5t-18.5 -167.5z" />
<glyph unicode="&#xf1;" horiz-adv-x="1169" d="M141 969q0 6 5.5 12t11.5 6h129q8 0 12 -6t6 -12q4 -33 8 -88.5t4 -104.5q41 109 146.5 177.5t247.5 68.5q66 0 124 -20.5t101 -60.5t67.5 -99.5t24.5 -139.5v-684q0 -6 -6 -12t-12 -6h-150q-8 0 -13 6t-5 12v641q0 113 -54.5 163t-146.5 50q-57 0 -111.5 -20.5 t-95.5 -60t-66.5 -98t-25.5 -132.5v-543q0 -6 -6 -12t-12 -6h-150q-8 0 -13 6t-5 12v787q0 80 -7.5 117t-7.5 47zM270 1178q0 119 58.5 177t138.5 58q55 0 93 -20.5t68.5 -46t59.5 -46t64 -20.5q33 0 60.5 24.5t27.5 77.5q0 23 18 23q10 0 31.5 -5t21.5 -22q0 -117 -52 -180 t-130 -63q-41 0 -79 23.5t-72.5 51t-69.5 51t-70 23.5q-41 0 -66.5 -32.5t-25.5 -73.5q0 -27 -24 -27q-16 0 -34 6.5t-18 20.5z" />
<glyph unicode="&#xf2;" horiz-adv-x="1171" d="M90 504q0 98 30 191t91 166t154.5 117t220.5 44t220 -44t153.5 -117t90 -166t29.5 -191t-29.5 -193.5t-90 -170t-153.5 -121t-220 -46.5t-220.5 46.5t-154.5 121t-91 170t-30 193.5zM291 500q0 -80 17.5 -152t53 -125t91 -83.5t133.5 -30.5t134 30.5t92 85t52.5 125 t16.5 150.5q0 82 -17.5 151.5t-53.5 120.5t-91 81t-133 30t-134.5 -30t-92 -82t-52 -121.5t-16.5 -149.5zM340 1446h154q8 0 18 -7t14 -14l230 -290q5 -5 5 -11q0 -3 -1 -5q-4 -7 -15 -7h-75q-16 0 -41 21l-293 290q-5 5 -5 11q0 12 9 12z" />
<glyph unicode="&#xf3;" horiz-adv-x="1171" d="M90 504q0 98 30 191t91 166t154.5 117t220.5 44t220 -44t153.5 -117t90 -166t29.5 -191t-29.5 -193.5t-90 -170t-153.5 -121t-220 -46.5t-220.5 46.5t-154.5 121t-91 170t-30 193.5zM291 500q0 -80 17.5 -152t53 -125t91 -83.5t133.5 -30.5t134 30.5t92 85t52.5 125 t16.5 150.5q0 82 -17.5 151.5t-53.5 120.5t-91 81t-133 30t-134.5 -30t-92 -82t-52 -121.5t-16.5 -149.5zM416 1119q-1 2 -2 5q0 5 6 11l229 290q4 6 14.5 13.5t18.5 7.5h154q9 0 8 -12q0 -6 -4 -11l-293 -290q-25 -20 -41 -21h-76q-10 0 -14 7z" />
<glyph unicode="&#xf4;" horiz-adv-x="1171" d="M90 504q0 98 30 191t91 166t154.5 117t220.5 44t220 -44t153.5 -117t90 -166t29.5 -191t-29.5 -193.5t-90 -170t-153.5 -121t-220 -46.5t-220.5 46.5t-154.5 121t-91 170t-30 193.5zM281 1130l223 295q4 6 12 13.5t19 7.5h100q10 0 17 -6t14 -15l223 -295q2 -3 2 -6 t-2 -6q-4 -6 -10 -6h-88q-14 0 -33 18l-180 195l-177 -195q-18 -18 -32 -18h-82q-10 0 -10 7q0 4 4 11zM291 500q0 -80 17.5 -152t53 -125t91 -83.5t133.5 -30.5t134 30.5t92 85t52.5 125t16.5 150.5q0 82 -17.5 151.5t-53.5 120.5t-91 81t-133 30t-134.5 -30t-92 -82 t-52 -121.5t-16.5 -149.5z" />
<glyph unicode="&#xf5;" horiz-adv-x="1171" d="M90 504q0 98 30 191t91 166t154.5 117t220.5 44t220 -44t153.5 -117t90 -166t29.5 -191t-29.5 -193.5t-90 -170t-153.5 -121t-220 -46.5t-220.5 46.5t-154.5 121t-91 170t-30 193.5zM264 1178q0 119 58.5 177t138.5 58q55 0 93 -20.5t68.5 -46t59.5 -46t63 -20.5 q33 0 61 24.5t28 77.5q0 23 18 23q10 0 31.5 -5t21.5 -22q0 -117 -52 -180t-130 -63q-41 0 -79 23.5t-72.5 51t-69.5 51t-70 23.5q-41 0 -66.5 -32.5t-25.5 -73.5q0 -27 -25 -27q-16 0 -33.5 6.5t-17.5 20.5zM291 500q0 -80 17.5 -152t53 -125t91 -83.5t133.5 -30.5 t134 30.5t92 85t52.5 125t16.5 150.5q0 82 -17.5 151.5t-53.5 120.5t-91 81t-133 30t-134.5 -30t-92 -82t-52 -121.5t-16.5 -149.5z" />
<glyph unicode="&#xf6;" horiz-adv-x="1171" d="M90 504q0 98 30 191t91 166t154.5 117t220.5 44t220 -44t153.5 -117t90 -166t29.5 -191t-29.5 -193.5t-90 -170t-153.5 -121t-220 -46.5t-220.5 46.5t-154.5 121t-91 170t-30 193.5zM289 1264q0 43 30.5 73.5t73.5 30.5t74 -30.5t31 -73.5q0 -41 -31 -73t-74 -32 t-73.5 32t-30.5 73zM291 500q0 -80 17.5 -152t53 -125t91 -83.5t133.5 -30.5t134 30.5t92 85t52.5 125t16.5 150.5q0 82 -17.5 151.5t-53.5 120.5t-91 81t-133 30t-134.5 -30t-92 -82t-52 -121.5t-16.5 -149.5zM672 1264q0 43 30.5 73.5t73.5 30.5t74 -30.5t31 -73.5 q0 -41 -31 -73t-74 -32t-73.5 32t-30.5 73z" />
<glyph unicode="&#xf7;" horiz-adv-x="1024" d="M94 504v117q0 20 19 20h798q6 0 12.5 -6t6.5 -14v-117q0 -6 -6 -12.5t-13 -6.5h-798q-8 0 -13.5 6.5t-5.5 12.5zM395 246q0 47 32 77.5t79 30.5q45 0 77.5 -30.5t32.5 -77.5t-32.5 -79t-77.5 -32q-47 0 -79 32t-32 79zM395 891q0 45 32 76.5t79 31.5q45 0 77.5 -31.5 t32.5 -76.5q0 -47 -32.5 -80t-77.5 -33q-47 0 -79 33t-32 80z" />
<glyph unicode="&#xf8;" horiz-adv-x="1173" d="M46 10q0 5 3 8l148 148q-53 72 -79 159t-26 179q0 98 30 191t91 166t154.5 117t220.5 44q100 0 181 -30.5t144 -86.5l60 62l17 13q9 7 18 7h102q14 0 16 -8q1 -2 1 -4q0 -6 -5 -12l-137 -136q47 -61 71.5 -149t24.5 -174q0 -98 -29.5 -193.5t-90 -170t-153.5 -121 t-220 -46.5q-98 0 -180 32t-140 83l-67 -70q-4 -6 -13.5 -12t-17.5 -6h-113q-11 0 -11 10zM291 504q0 -51 9 -103.5t32 -93.5l471 481q-37 47 -90.5 72t-124.5 25q-78 0 -134.5 -30t-92 -82t-53 -120.5t-17.5 -148.5zM373 203q37 -45 91 -70.5t124 -25.5q78 0 134 31.5 t92 84.5t52.5 125t16.5 152q0 47 -8.5 92t-30.5 92z" />
<glyph unicode="&#xf9;" horiz-adv-x="1169" d="M141 293v676q0 6 6.5 12t12.5 6h149q8 0 13.5 -6t5.5 -12v-633q0 -113 54 -163t148 -50q57 0 110.5 20.5t95.5 59.5t66.5 96t24.5 131v539q0 6 6.5 12t12.5 6h149q8 0 13.5 -6t5.5 -12v-787q0 -82 8 -117.5t8 -46.5q0 -6 -5 -12t-11 -6h-131q-8 0 -12.5 6t-6.5 12 q-4 33 -8 88.5t-4 108.5q-41 -109 -145.5 -175.5t-247.5 -66.5q-66 0 -124.5 20.5t-101.5 60.5t-67.5 99.5t-24.5 139.5zM342 1446h154q8 0 18 -7t14 -14l230 -290q5 -5 5 -11q0 -3 -1 -5q-4 -7 -14 -7h-76q-16 0 -41 21l-293 290q-5 5 -5 11q0 12 9 12z" />
<glyph unicode="&#xfa;" horiz-adv-x="1169" d="M141 293v676q0 6 6.5 12t12.5 6h149q8 0 13.5 -6t5.5 -12v-633q0 -113 54 -163t148 -50q57 0 110.5 20.5t95.5 59.5t66.5 96t24.5 131v539q0 6 6.5 12t12.5 6h149q8 0 13.5 -6t5.5 -12v-787q0 -82 8 -117.5t8 -46.5q0 -6 -5 -12t-11 -6h-131q-8 0 -12.5 6t-6.5 12 q-4 33 -8 88.5t-4 108.5q-41 -109 -145.5 -175.5t-247.5 -66.5q-66 0 -124.5 20.5t-101.5 60.5t-67.5 99.5t-24.5 139.5zM430 1119q-1 2 -1 5q0 5 5 11l230 290q4 6 14 13.5t18 7.5h154q9 0 9 -12q0 -6 -5 -11l-293 -290q-25 -20 -41 -21h-76q-10 0 -14 7z" />
<glyph unicode="&#xfb;" horiz-adv-x="1169" d="M141 293v676q0 6 6.5 12t12.5 6h149q8 0 13.5 -6t5.5 -12v-633q0 -113 54 -163t148 -50q57 0 110.5 20.5t95.5 59.5t66.5 96t24.5 131v539q0 6 6.5 12t12.5 6h149q8 0 13.5 -6t5.5 -12v-787q0 -82 8 -117.5t8 -46.5q0 -6 -5 -12t-11 -6h-131q-8 0 -12.5 6t-6.5 12 q-4 33 -8 88.5t-4 108.5q-41 -109 -145.5 -175.5t-247.5 -66.5q-66 0 -124.5 20.5t-101.5 60.5t-67.5 99.5t-24.5 139.5zM283 1130l223 295q4 6 12 13.5t19 7.5h100q10 0 17 -6t14 -15l223 -295q2 -3 2 -6t-2 -6q-4 -6 -10 -6h-88q-14 0 -33 18l-180 195l-177 -195 q-18 -18 -32 -18h-82q-10 0 -10 7q0 4 4 11z" />
<glyph unicode="&#xfc;" horiz-adv-x="1169" d="M141 293v676q0 6 6.5 12t12.5 6h149q8 0 13.5 -6t5.5 -12v-633q0 -113 54 -163t148 -50q57 0 110.5 20.5t95.5 59.5t66.5 96t24.5 131v539q0 6 6.5 12t12.5 6h149q8 0 13.5 -6t5.5 -12v-787q0 -82 8 -117.5t8 -46.5q0 -6 -5 -12t-11 -6h-131q-8 0 -12.5 6t-6.5 12 q-4 33 -8 88.5t-4 108.5q-41 -109 -145.5 -175.5t-247.5 -66.5q-66 0 -124.5 20.5t-101.5 60.5t-67.5 99.5t-24.5 139.5zM291 1264q0 43 30.5 73.5t73.5 30.5t74 -30.5t31 -73.5q0 -41 -31 -73t-74 -32t-73.5 32t-30.5 73zM674 1264q0 43 30.5 73.5t73.5 30.5t74 -30.5 t31 -73.5q0 -41 -31 -73t-74 -32t-73.5 32t-30.5 73z" />
<glyph unicode="&#xfd;" horiz-adv-x="970" d="M8 -276q0 20 17 20q6 0 16 -6q16 -10 34.5 -15.5t43.5 -5.5q33 0 69.5 12.5t72.5 44t71 85t65 135.5l-387 964q-4 9 -3 15q0 4 1 7q4 7 15 7h157q20 0 27 -20l192 -533l47 -144q23 -69 46 -151q23 86 43 153.5t47 139.5l196 535q6 20 27 20h143q17 0 18 -13q0 -6 -3 -13 l-390 -990q-45 -115 -95 -192.5t-105.5 -125.5t-116.5 -69.5t-129 -21.5q-70 0 -107 16q-12 6 -12 31v115zM352 1119q-1 2 -1 5q0 5 5 11l230 290q4 6 14 13.5t18 7.5h154q9 0 9 -12q0 -6 -5 -11l-293 -290q-25 -20 -41 -21h-75q-11 0 -15 7z" />
<glyph unicode="&#xfe;" horiz-adv-x="1200" d="M164 -399v1824q0 20 18 21h146q6 0 12 -6t6 -15l-27 -632q33 109 117 169t207 60q119 0 206 -45t145.5 -120t87 -171t28.5 -196.5t-33 -193.5t-93 -165t-145 -115t-190 -43q-236 0 -311 183q4 -141 6 -280.5t2 -274.5q0 -8 -6 -14.5t-12 -6.5h-146q-18 1 -18 21zM346 346 q0 -49 15.5 -92t47 -76t79 -52.5t110.5 -19.5q145 0 226 105.5t81 286.5q0 199 -84 293t-221 94q-63 0 -110.5 -21.5t-79 -58.5t-48 -87t-16.5 -108v-264z" />
<glyph unicode="&#xff;" horiz-adv-x="970" d="M8 -276q0 20 17 20q6 0 16 -6q16 -10 34.5 -15.5t43.5 -5.5q33 0 69.5 12.5t72.5 44t71 85t65 135.5l-387 964q-4 9 -3 15q0 4 1 7q4 7 15 7h157q20 0 27 -20l192 -533l47 -144q23 -69 46 -151q23 86 43 153.5t47 139.5l196 535q6 20 27 20h143q17 0 18 -13q0 -6 -3 -13 l-390 -990q-45 -115 -95 -192.5t-105.5 -125.5t-116.5 -69.5t-129 -21.5q-70 0 -107 16q-12 6 -12 31v115zM190 1264q0 43 31 73.5t74 30.5t73.5 -30.5t30.5 -73.5q0 -41 -30.5 -73t-73.5 -32t-74 32t-31 73zM573 1264q0 43 31 73.5t74 30.5t73.5 -30.5t30.5 -73.5 q0 -41 -30.5 -73t-73.5 -32t-74 32t-31 73z" />
<glyph unicode="&#x152;" horiz-adv-x="2326" d="M121 745q0 174 59.5 312.5t159.5 235t232.5 148.5t275.5 52q137 0 266 -47h1118q14 0 15 -19l14 -127q0 -16 -14 -16q-45 0 -103.5 1t-119 1t-119 1t-103.5 1h-135q-70 0 -133.5 1t-115.5 3t-85 4q98 -78 163 -195.5t77 -271.5q88 6 219 7q80 0 136.5 1t92.5 1 q12 0 13 -19v-123q0 -16 -13 -16q-39 0 -94 1t-133 1q-53 0 -111.5 2t-109.5 6q-4 -180 -72.5 -318.5t-189.5 -221.5q74 4 206 6t306 2q49 0 108.5 1t122 1t120.5 1t103 1q14 0 15 -19l-17 -127q0 -16 -14 -16h-1206q-94 -27 -207 -27q-150 0 -282 54.5t-231 155 t-156.5 242.5t-57.5 320zM350 745q0 -133 33 -243.5t96.5 -191.5t155.5 -126t213 -45q123 0 216 44t156.5 124t95.5 191.5t32 246.5q0 147 -38 256t-104.5 180.5t-158 107.5t-197.5 36q-104 0 -195.5 -35t-159 -106.5t-106.5 -181.5t-39 -257z" />
<glyph unicode="&#x153;" horiz-adv-x="1822" d="M92 504q0 98 30 191t91 166t154.5 117t220.5 44q145 0 242.5 -60.5t150.5 -156.5q59 96 156.5 156.5t234.5 60.5q190 0 286.5 -105.5t96.5 -283.5q0 -29 -12 -44.5t-47 -15.5h-625q-4 -23 -7 -47t-3 -63q0 -70 21.5 -131.5t63.5 -107.5t103.5 -73.5t141.5 -27.5 q78 0 143 21.5t115 60.5q12 10 22 10q14 0 15 -20v-95q0 -23 -17 -34q-47 -37 -127 -65t-178 -28q-135 0 -235.5 54.5t-157.5 148.5q-53 -90 -147.5 -146.5t-235.5 -56.5q-127 0 -220.5 46.5t-154.5 121t-91 170t-30 193.5zM293 500q0 -80 16.5 -152t52 -125t92 -83.5 t134.5 -30.5t133 30.5t91 85t52.5 125t16.5 150.5q0 82 -16.5 151.5t-52.5 120.5t-91 81t-133 30t-134.5 -30t-92 -82t-52 -121.5t-16.5 -149.5zM1090 684h501q0 92 -56 151.5t-165 59.5q-111 0 -179 -58.5t-101 -152.5z" />
<glyph unicode="&#x178;" horiz-adv-x="1388" d="M10 1446h191q23 0 35 -23l333 -444q37 -49 69 -100.5t56 -106.5q31 59 62.5 108.5t66.5 96.5l336 446q10 14 20.5 18.5t22.5 4.5h172q16 0 19 -10v-4q0 -9 -9 -19l-591 -782v-613q0 -6 -6.5 -12t-12.5 -6h-170q-8 0 -13 6t-5 12v613l-586 782q-9 10 -9 19q0 14 19 14z M389 1657q0 43 31 73.5t74 30.5t73.5 -30.5t30.5 -73.5q0 -41 -30.5 -72t-73.5 -31t-74 31t-31 72zM786 1657q0 43 32 73.5t73 30.5q43 0 73.5 -30.5t30.5 -73.5q0 -41 -30.5 -72t-73.5 -31q-41 0 -73 31t-32 72z" />
<glyph unicode="&#x2c6;" horiz-adv-x="940" d="M168 1130l223 295q4 6 12.5 13.5t18.5 7.5h100q10 0 17.5 -6t13.5 -15l223 -295q2 -3 2 -6t-2 -6q-4 -6 -10 -6h-88q-14 0 -33 18l-180 195l-176 -195q-18 -18 -33 -18h-82q-10 0 -10 7q0 4 4 11z" />
<glyph unicode="&#x2dc;" horiz-adv-x="968" d="M164 1178q0 119 58.5 177t137.5 58q55 0 93.5 -20.5t69 -46t59 -46t63.5 -20.5q33 0 60.5 24.5t27.5 77.5q0 23 19 23q10 0 31.5 -5t21.5 -22q0 -117 -52.5 -180t-129.5 -63q-41 0 -79 23.5t-73 51t-69.5 51t-69.5 23.5q-41 0 -66.5 -32.5t-25.5 -73.5q0 -27 -25 -27 q-16 0 -33.5 6.5t-17.5 20.5z" />
<glyph unicode="&#x2013;" horiz-adv-x="1024" d="M94 494v124q0 20 19 21h798q6 0 12.5 -6t6.5 -15v-124q0 -6 -6 -12.5t-13 -6.5h-798q-8 0 -13.5 6.5t-5.5 12.5z" />
<glyph unicode="&#x2014;" horiz-adv-x="1484" d="M94 494v124q0 20 19 21h1261q6 0 12.5 -6t6.5 -15v-124q0 -6 -6.5 -12.5t-12.5 -6.5h-1261q-8 0 -13.5 6.5t-5.5 12.5z" />
<glyph unicode="&#x2018;" horiz-adv-x="444" d="M66 1079l192 457q8 20 23 20h84q20 0 16 -20l-121 -461q-8 -20 -22 -20h-158q-6 0 -12 7q-4 4 -4 10q0 3 2 7z" />
<glyph unicode="&#x2019;" horiz-adv-x="444" d="M68 1077l122 461q4 20 21 21h158q8 0 13 -7q3 -3 3 -8q0 -4 -2 -8l-193 -459q-8 -20 -22 -20h-84q-20 0 -16 20z" />
<glyph unicode="&#x201a;" horiz-adv-x="444" d="M63 -248l123 461q4 20 21 20h158q8 0 13 -6q3 -3 3 -8q0 -4 -2 -8l-193 -459q-8 -20 -22 -20h-82q-23 0 -19 20z" />
<glyph unicode="&#x201c;" horiz-adv-x="804" d="M66 1079l192 457q8 20 23 20h82q23 0 18 -20l-121 -461q-8 -20 -22 -20h-158q-8 0 -13 7q-3 4 -3 9q0 3 2 8zM428 1079l190 457q8 20 23 20h84q20 0 16 -20l-120 -461q-8 -20 -23 -20h-158q-6 0 -11 7q-3 4 -3 9q0 3 2 8z" />
<glyph unicode="&#x201d;" horiz-adv-x="802" d="M63 1077l121 461q8 20 23 21h158q6 0 11 -6.5t1 -16.5l-191 -459q-8 -20 -24 -20h-82q-21 0 -17 20zM424 1077l121 461q8 20 22 21h158q6 0 12 -7q4 -4 4 -8q0 -3 -2 -8l-192 -459q-8 -20 -23 -20h-84q-20 0 -16 20z" />
<glyph unicode="&#x201e;" horiz-adv-x="802" d="M63 -248l121 461q8 20 23 20h158q6 0 11 -6t1 -16l-191 -459q-8 -20 -24 -20h-82q-21 0 -17 20zM424 -248l121 461q8 20 22 20h158q6 0 12 -6q4 -4 4 -9q0 -3 -2 -7l-192 -459q-8 -20 -23 -20h-84q-20 0 -16 20z" />
<glyph unicode="&#x2022;" horiz-adv-x="1812" d="M109 463q-4 17 -4.5 36t4.5 40q8 39 29.5 70.5t52 54t65.5 38t68 21.5l2 8q-31 8 -58.5 26.5t-48 45t-30.5 59.5q-4 16 -4 32q0 18 5 36q10 39 33 72.5t54.5 59t69.5 40t77 14.5q55 0 98 -26.5t78 -65.5t64.5 -86t57.5 -86t55.5 -65.5t62.5 -26.5q18 0 35.5 14t21.5 33 q1 8 1 16q0 25 -14 50q-19 34 -53 70l-70 75q-38 39 -68.5 83t-47.5 92q-9 28 -9 57q0 22 5 46q8 39 29.5 74t52.5 61.5t69.5 42t81.5 15.5q31 0 59 -14.5t49.5 -37t34.5 -54t13 -64.5h8q12 33 37 63.5t55.5 54t64.5 38t65 14.5q39 0 70.5 -15.5t52 -42t28.5 -61.5 q4 -17 4 -35.5t-4 -38.5q-12 -51 -48 -96t-84 -87t-101 -82l-102 -77q-48 -37 -83 -72.5t-43 -72.5q-4 -18 7.5 -33.5t33.5 -15.5q35 0 75 26.5t84 65.5l93 86q49 47 99.5 86t103.5 65.5t106 26.5q86 0 127 -57q29 -41 30 -93q0 -21 -5 -42q-8 -39 -29.5 -71t-52.5 -56.5 t-65.5 -40t-67.5 -21.5l-2 -8q29 -6 56.5 -24.5t48 -44t29.5 -58.5q5 -17 5 -35q0 -16 -4 -33q-10 -37 -31.5 -71.5t-52.5 -60t-69.5 -41t-79.5 -15.5q-55 0 -98.5 26.5t-78 65.5t-63.5 86t-56.5 86t-54 65.5t-59.5 26.5q-23 0 -40 -14t-17 -31q-2 -10 -3 -20q0 -24 14 -47 q19 -33 51 -69l69 -75q37 -39 67.5 -82t46.5 -92q9 -28 10 -59q0 -23 -6 -47q-8 -39 -29.5 -74t-52 -61.5t-69.5 -42t-82 -15.5q-59 0 -104.5 43t-55.5 115h-8q-35 -72 -94.5 -115t-122.5 -43q-39 0 -70.5 15.5t-53 42t-30.5 61.5q-4 15 -3 32q0 20 5 42q12 53 49 100 t86.5 90t103.5 82l101 75q47 36 80 72t41 72q4 16 -7 30.5t-34 14.5q-35 0 -73.5 -26.5t-83.5 -65.5t-93.5 -86t-99.5 -86t-104.5 -65.5t-106.5 -26.5q-41 0 -71.5 15.5t-51 42t-28.5 61.5z" />
<glyph unicode="&#x2026;" horiz-adv-x="1624" d="M156 115q0 53 38.5 91t92 38t91.5 -38t38 -91q0 -55 -38 -93t-91.5 -38t-92 38t-38.5 93zM682 115q0 53 38 91t93 38q53 0 91 -38t38 -91q0 -55 -38 -93t-91 -38q-55 0 -93 38t-38 93zM1208 115q0 53 38 91t93 38q53 0 91 -38t38 -91q0 -55 -37.5 -93t-91.5 -38 q-55 0 -93 38t-38 93z" />
<glyph unicode="&#x2039;" horiz-adv-x="802" d="M84 508q0 27 3 36t13 17l594 387q7 5 13 6q3 0 5 -2q7 -4 7 -16v-59q0 -12 -3 -21.5t-14 -19.5l-401 -314l404 -344q10 -10 12 -17t2 -18v-67q0 -10 -7 -14q-3 -1 -7 -1t-9 2l-596 392q-8 8 -12 17t-4 36z" />
<glyph unicode="&#x203a;" horiz-adv-x="802" d="M84 80v59q0 12 3 21.5t15 19.5l400 314l-404 344q-10 10 -12 17t-2 17v68q0 10 7 13l6 2q4 0 9 -3l596 -391q8 -8 12.5 -17t4.5 -36t-3 -36t-14 -17l-591 -387q-10 -6 -16 -6q-11 0 -11 18z" />
<glyph unicode="&#x20ac;" horiz-adv-x="1392" d="M49 856v92q0 16 25 17h36q22 0 45 -1t43.5 -2t34.5 -1q29 104 83.5 200t136.5 170t189.5 118t244.5 44q117 0 203 -26.5t145 -73.5q14 -10 15 -20.5t1 -20.5v-142q0 -33 -24 -32q-12 0 -25 12q-53 61 -129 99t-188 38q-92 0 -167 -29.5t-131.5 -80t-96 -117t-60.5 -142.5 q106 6 209 7h199q16 0 16 -21v-90q0 -16 -16 -16h-209q-55 0 -110.5 1t-110.5 5q-4 -33 -6.5 -61.5t-2.5 -55.5q0 -23 1 -44t3 -42q53 4 105.5 5t105.5 1h226q14 0 14 -18v-90q0 -18 -18 -19h-211q-51 0 -101.5 1t-99.5 7q39 -180 155.5 -288.5t288.5 -108.5q104 0 191.5 32 t150.5 91q8 10 23 10q18 0 18 -31v-100q0 -12 -2 -22.5t-16 -20.5q-72 -59 -168 -88t-231 -29q-123 0 -226.5 43t-182.5 118t-132 176.5t-76 215.5q-39 -4 -78 -5t-73 -1q-16 0 -17 23v88q0 16 23 16q29 0 66.5 -1t64.5 -3q-2 18 -2 37v35q0 29 2 61.5t6 63.5q-37 -2 -75 -2 h-68q-17 0 -17 18z" />
<glyph unicode="&#x2122;" horiz-adv-x="1550" d="M100 1358l4 82q0 6 7 6h483q6 0 6 -6l4 -82q0 -6 -6 -6l-184 2v-428q0 -8 -8 -8h-105q-8 0 -8 8v428l-187 -2q-6 0 -6 6zM717 926v514q0 6 8 6h154q8 0 12 -6l143 -391l140 391q2 6 10 6h149q8 0 8 -6v-514q0 -8 -8 -8h-92q-10 0 -10 8l10 430l-164 -430q0 -8 -8 -8h-78 q-6 0 -10 8l-164 430l10 -430q0 -8 -8 -8h-94q-8 0 -8 8z" />
<glyph unicode="&#xe000;" horiz-adv-x="985" d="M0 985h985v-985h-985v985z" />
<glyph unicode="&#xfb01;" horiz-adv-x="1112" d="M49 862v107q0 18 12 18q33 0 69 -2t65 -6q-4 31 -7.5 67.5t-3.5 90.5q0 154 91.5 240.5t273.5 86.5q29 0 29 -28v-103q0 -23 -25 -22q-53 0 -90 -9.5t-58.5 -32t-30.5 -59t-9 -94.5q0 -39 -3.5 -73.5t-7.5 -63.5q59 4 120 6t112 2h354q6 0 12 -6t6 -14v-949q0 -6 -6 -12 t-12 -6h-149q-8 0 -13.5 6t-5.5 12v615q0 82 2 132t6 95q-31 -4 -90 -6t-121 -2q-47 0 -102 1t-109 5q4 -45 7.5 -95t3.5 -132v-613q0 -6 -6.5 -12t-12.5 -6h-147q-8 0 -13.5 6t-5.5 12v607q0 84 3 135t8 92q-31 -4 -67 -5t-67 -1q-12 0 -12 16zM752 1339q0 47 33.5 81 t80.5 34t80 -34t33 -81t-33 -77.5t-80 -30.5t-80.5 30.5t-33.5 77.5z" />
<glyph unicode="&#xfb02;" horiz-adv-x="1112" d="M49 862v107q0 18 12 18q33 0 69 -2t65 -6q-4 31 -7.5 67.5t-3.5 90.5q0 154 91.5 240.5t273.5 86.5q29 0 29 -28v-103q0 -23 -25 -22q-53 0 -90 -9.5t-58.5 -32t-30.5 -59.5t-9 -94q0 -39 -3.5 -73.5t-7.5 -63.5q45 4 96.5 6t110.5 2q31 0 63.5 -1l62.5 -2t55.5 -2 t39.5 -3q-4 33 -7 68.5t-3 74.5v303q0 20 19 21h149q6 0 12 -6t6 -15v-1407q0 -6 -6 -12t-12 -6h-149q-8 0 -13.5 6t-5.5 12v615q0 82 4 132t8 95q-16 -2 -41.5 -3t-55.5 -2l-60 -2q-31 -1 -58 -1q-48 0 -102 1q-55 1 -109 5q4 -45 7.5 -95t3.5 -132v-613q0 -6 -6.5 -12 t-12.5 -6h-147q-8 0 -13.5 6t-5.5 12v607q0 84 3 135t8 92q-31 -4 -67 -5t-67 -1q-12 0 -12 16z" />
<glyph unicode="&#xfb03;" horiz-adv-x="1697" d="M49 862v107q0 18 12 18q33 0 69 -2t65 -6q-4 31 -7.5 67.5t-3.5 90.5q0 143 93.5 235t293.5 92q29 0 29 -28v-111q0 -23 -22 -22q-61 0 -102.5 -9.5t-66 -32t-34.5 -58.5t-10 -89q0 -39 -3.5 -72.5t-7.5 -62.5q57 4 107.5 6t103.5 2q70 0 129.5 -2t87.5 -6q-4 31 -7 67.5 t-3 90.5q0 154 92 240.5t273 86.5q29 0 28 -28v-103q0 -23 -24 -22q-53 0 -90 -9.5t-58.5 -32t-31 -59t-9.5 -94.5q0 -39 -3 -73.5t-7 -63.5q59 4 118.5 6t110.5 2h357q6 0 12 -6t6 -14v-949q0 -6 -6 -12t-12 -6h-150q-8 0 -13 6t-5 12v615q0 82 3 132t7 95q-31 -4 -92 -6 t-123 -2q-47 0 -101.5 1t-107.5 5q4 -45 7 -95t3 -132v-613q0 -6 -6 -12t-12 -6h-147q-8 0 -13.5 6t-5.5 12v613q0 84 3 134t7 93q-31 -4 -92 -5t-119 -1q-107 0 -213 6q4 -45 7.5 -95t3.5 -132v-613q0 -6 -6.5 -12t-12.5 -6h-147q-8 0 -13.5 6t-5.5 12v607q0 84 3 135t8 92 q-31 -4 -67 -5t-67 -1q-12 0 -12 16zM1337 1339q0 47 34 81t81 34t81 -34t34 -81t-34 -77.5t-81 -30.5t-81 30.5t-34 77.5z" />
<glyph unicode="&#xfb04;" horiz-adv-x="1699" d="M49 862v107q0 18 12 18q33 0 69 -2t65 -6q-4 31 -7.5 67.5t-3.5 90.5q0 143 93.5 235t293.5 92q29 0 29 -28v-111q0 -23 -22 -22q-61 0 -102.5 -9.5t-66 -32t-34.5 -58.5t-10 -89q0 -39 -3.5 -72.5t-7.5 -62.5q57 4 107.5 6t103.5 2q70 0 129.5 -2t87.5 -6q-4 31 -7 67.5 t-3 90.5q0 154 92 240.5t273 86.5q29 0 28 -28v-103q0 -23 -24 -22q-53 0 -90 -9.5t-58.5 -32t-31 -59t-9.5 -94.5q0 -39 -3 -73.5t-7 -63.5q57 4 110.5 6t104.5 2q66 0 125 -2t88 -6l-8 69q-4 36 -4 74v303q0 20 18 21h150q6 0 12 -6t6 -15v-1407q0 -6 -6 -12t-12 -6h-150 q-8 0 -13 6t-5 12v615q0 82 5 132t9 95q-29 -4 -91 -6t-126 -2q-47 0 -101.5 1t-107.5 5q4 -45 7 -95t3 -132v-613q0 -6 -6 -12t-12 -6h-147q-8 0 -13.5 6t-5.5 12v613q0 84 3 134t7 93q-31 -4 -92 -5t-119 -1q-106 0 -213 6q4 -45 7.5 -95t3.5 -132v-613q0 -6 -6.5 -12 t-12.5 -6h-147q-8 0 -13.5 6t-5.5 12v607q0 84 3 135t8 92q-31 -4 -67 -5t-67 -1q-12 0 -12 16z" />
</font>
</defs>
</svg>
