<?xml version="1.0" standalone="no"?>
<!DOCTYPE svg PUBLIC "-//W3C//DTD SVG 1.1//EN" "http://www.w3.org/Graphics/SVG/1.1/DTD/svg11.dtd" >
<svg xmlns="http://www.w3.org/2000/svg">
<metadata></metadata>
<defs>
<font id="abcgreenlogoregular" horiz-adv-x="1212" >
<font-face units-per-em="2048" ascent="1638" descent="-410" />
<missing-glyph horiz-adv-x="516" />
<glyph horiz-adv-x="2048" />
<glyph horiz-adv-x="2048" />
<glyph unicode="&#xd;" horiz-adv-x="516" />
<glyph unicode=" "  horiz-adv-x="516" />
<glyph unicode="&#x09;" horiz-adv-x="516" />
<glyph unicode="&#xa0;" horiz-adv-x="516" />
<glyph unicode="!" horiz-adv-x="686" d="M104 141q8 70 62.5 117t122.5 47q72 0 114.5 -47t34.5 -117q-8 -68 -60 -111.5t-122 -43.5q-68 0 -113 44t-39 111zM244 428q-4 6 0 12l168 985q4 20 20 21h330q6 0 12 -6t4 -15l-329 -985q-2 -6 -10.5 -12t-14.5 -6h-168q-8 0 -12 6z" />
<glyph unicode="&#x22;" horiz-adv-x="839" d="M242 944l71 481q0 20 23 21h242q10 0 15 -6t1 -15l-174 -481q-2 -6 -12.5 -12t-16.5 -6h-129q-10 0 -16 6t-4 12zM647 944l72 481q4 20 22 21h242q10 0 15.5 -6t0.5 -15l-174 -481q-2 -6 -12 -12t-16 -6h-129q-10 0 -16.5 6t-4.5 12z" />
<glyph unicode="#" horiz-adv-x="1359" d="M51 358l39 150q2 8 9 13t14 5h219l55 219h-217q-6 0 -11 6.5t-3 12.5l37 149q2 8 9 13.5t13 5.5h219l80 317q4 20 23 21h206q6 0 11.5 -6.5t3.5 -14.5l-82 -317h244l79 317q4 20 23 21h205q6 0 11 -6.5t3 -14.5l-80 -317h205q20 0 16 -19l-36 -149q-2 -6 -9.5 -12.5 t-15.5 -6.5h-207l-57 -219h207q20 0 16 -18l-39 -150q0 -6 -7 -12t-15 -6h-207l-80 -322q-4 -6 -11.5 -12t-13.5 -6h-205q-8 0 -12 6t0 12l82 322h-244l-79 -322q-4 -6 -11.5 -12t-13.5 -6h-207q-8 0 -12 6t0 12l82 322h-219q-6 0 -11.5 6t-5.5 12zM573 526h244l55 219h-241 z" />
<glyph unicode="$" horiz-adv-x="1130" d="M48 189.5q-5 11.5 3 41.5l37 148q10 43 33 43q8 0 15 -4t11 -6q59 -49 128 -74t159 -35l88 332q-131 57 -213 134t-82 198q0 72 29 142.5t87 127.5t146.5 97t208.5 52l54 207q8 20 22 21h141q6 0 13.5 -6t3.5 -15l-51 -202q125 -16 193.5 -54.5t90.5 -70.5 q10 -14 17.5 -31.5t7.5 -42.5q0 -23 -10.5 -49.5t-28.5 -50t-46 -39t-63 -15.5q-41 0 -58 8.5t-34 24.5q-16 18 -46 45t-83 39l-80 -317q145 -76 213 -156t68 -197q0 -78 -34 -146.5t-95.5 -122.5t-146 -89t-185.5 -43l-65 -254q-2 -10 -10.5 -17.5t-16.5 -7.5h-143 q-8 0 -10.5 9.5t-0.5 15.5l64 250q-111 10 -192 34.5t-126 53.5q-8 10 -13 21.5zM518 1024q0 -39 22.5 -66.5t67.5 -50.5l64 254q-63 0 -108.5 -39t-45.5 -98zM586 305q27 2 54.5 12.5t49 29t35.5 44t14 58.5q0 47 -20.5 74.5t-63.5 54.5z" />
<glyph unicode="%" horiz-adv-x="1855" d="M68.5 15.5q-5.5 15.5 13.5 31.5l1530 1378q6 6 16 13.5t19 7.5h217q12 0 18 -13.5t-8 -25.5l-1518 -1389q-4 -6 -16 -12t-18 -6h-232q-16 0 -21.5 15.5zM215 969q0 96 38 187t104.5 162t157.5 114t198 43q145 0 218 -75t73 -192q0 -111 -43 -205t-113 -162.5t-158 -106.5 t-176 -38q-74 0 -130 21.5t-94 58.5t-56.5 87t-18.5 106zM467 946q0 -92 92 -92q51 0 89 43t61.5 101.5t35 119t11.5 92.5q0 41 -20.5 62.5t-73.5 21.5t-91.5 -43t-61 -101t-32.5 -116.5t-10 -87.5zM973 256q0 96 38 187.5t104.5 162t157.5 113.5t197 43q145 0 218 -75 t73 -191q0 -111 -43 -205t-112.5 -163t-157.5 -106.5t-176 -37.5q-74 0 -130.5 21.5t-94 58t-56 87t-18.5 105.5zM1225 233q0 -92 92 -92q51 0 89 43t61.5 101.5t34.5 119t11 93.5q0 41 -20.5 62.5t-73.5 21.5t-91 -43t-60.5 -101.5t-32.5 -117t-10 -87.5z" />
<glyph unicode="&#x26;" horiz-adv-x="1871" d="M152 596q0 176 67.5 337t187 283.5t284.5 195.5t358 73q154 0 227.5 -64.5t73.5 -158.5q0 -72 -43 -147t-142.5 -140.5t-261.5 -115.5t-401 -71q-8 -35 -10.5 -66.5t-2.5 -66.5q0 -82 28 -157.5t84 -134t142 -93t201 -34.5t198 25.5t136 67.5t77.5 96t24.5 112 q0 100 -80 176q-84 -35 -133 -65t-74.5 -58.5t-32.5 -58t-9 -66.5q0 -8 -7.5 -14.5t-15.5 -6.5h-203q-14 0 -14 21q6 59 23.5 109.5t60.5 97.5t117.5 93t193.5 99q125 55 207 105.5t131 113t68.5 144.5t19.5 198q0 8 7.5 14.5t15.5 6.5h264q14 0 14 -21q0 -123 -17.5 -215 t-62.5 -163.5t-123.5 -129t-201.5 -112.5q72 -66 110.5 -143.5t38.5 -161.5q0 -109 -52 -205t-152.5 -168t-247 -113t-332.5 -41q-188 0 -327.5 50.5t-231.5 136.5t-137 198.5t-45 237.5zM575 987q135 12 225.5 34.5t143.5 52.5t75.5 61.5t22.5 60.5t-16 46.5t-57 17.5 q-63 0 -122 -21.5t-110 -58.5t-92 -86.5t-70 -106.5z" />
<glyph unicode="'" horiz-adv-x="434" d="M242 944l71 481q0 20 23 21h242q10 0 15 -6t1 -15l-174 -481q-2 -6 -12.5 -12t-16.5 -6h-129q-10 0 -16 6t-4 12z" />
<glyph unicode="(" horiz-adv-x="868" d="M115 178q0 209 49 390.5t130 328.5t185.5 262t215 193t217 117.5t194.5 39.5q4 0 10 -5t2 -15l-39 -164q-2 -6 -11 -12t-15 -6q-96 0 -179 -68t-152 -177.5t-122 -246.5t-90 -276.5t-56.5 -265.5t-19.5 -214q0 -158 62.5 -233.5t167.5 -75.5q4 0 10 -5t4 -13l-41 -164 q-2 -10 -10.5 -15.5t-14.5 -5.5q-70 0 -156.5 37t-162.5 115t-127 196.5t-51 282.5z" />
<glyph unicode=")" horiz-adv-x="870" d="M-231 -432l41 164q2 6 9 12t13 6q96 0 179 66.5t152.5 174t123 244t90.5 274.5t56.5 265t19.5 219q0 160 -62.5 237t-167.5 77q-4 0 -9 5t-3 13l41 164q2 10 10 15t14 5q70 0 157 -37.5t163 -116.5t127 -199t51 -284q0 -203 -48 -380t-127 -324.5t-181.5 -263 t-213 -194.5t-221 -121t-202.5 -42q-4 0 -10.5 5.5t-1.5 15.5z" />
<glyph unicode="*" horiz-adv-x="1812" d="M108.5 463q-8.5 35 0.5 76q8 39 29.5 70.5t52 54t65.5 38t68 21.5l2 8q-31 8 -58.5 26.5t-48 45t-30 59.5t0.5 68q10 39 33 72.5t54.5 59t69.5 40t77 14.5q55 0 98 -26.5t78 -65.5t64.5 -86t57.5 -86t55.5 -65.5t62.5 -26.5q18 0 35.5 14t21.5 33q6 33 -13.5 66.5 t-52 69.5t-70.5 75t-68.5 83t-47 92t-4.5 103q8 39 29.5 74t52.5 61.5t69.5 42t81.5 15.5q31 0 59 -14.5t49.5 -37t34.5 -54t13 -64.5h8q12 33 37 63.5t55.5 54t64.5 38t65 14.5q39 0 70.5 -15.5t52 -42t28.5 -61.5t0 -74q-12 -51 -48 -96t-84 -87t-101.5 -82t-101.5 -76.5 t-83 -72.5t-43 -73q-4 -18 7.5 -33.5t33.5 -15.5q35 0 75 26.5t84 65.5t93 86t99.5 86t103.5 65.5t106 26.5q86 0 127 -57.5t25 -134.5q-8 -39 -29.5 -71t-52.5 -56.5t-65.5 -40t-67.5 -21.5l-2 -8q29 -6 56.5 -24.5t48 -44t29.5 -58.5t1 -68q-10 -37 -31.5 -71.5t-52.5 -60 t-69.5 -41t-79.5 -15.5q-55 0 -98.5 26.5t-78 65.5t-63.5 86t-56.5 86t-54 65.5t-59.5 26.5q-23 0 -40 -14t-17 -31q-8 -35 11 -67.5t51 -68.5t69 -74.5t67.5 -82t47 -92.5t3.5 -106q-8 -39 -29.5 -74t-52 -61.5t-69.5 -42t-82 -15.5q-59 0 -104.5 43t-55.5 115h-8 q-35 -72 -94.5 -115t-122.5 -43q-39 0 -70.5 15.5t-53 42t-30 61.5t1.5 74q12 53 49 100t86.5 90t103.5 82t101 75t80 71.5t41 72.5q4 16 -7 30.5t-34 14.5q-35 0 -73.5 -26.5t-84 -65.5t-93.5 -86t-99 -86t-104.5 -65.5t-106.5 -26.5q-41 0 -71.5 15.5t-51 42t-29 61.5z " />
<glyph unicode="+" horiz-adv-x="1058" d="M65.5 430q-4.5 6 0.5 12l53 222q8 20 24 20h166q35 0 73 -1t64 -5q4 35 13.5 85t19.5 85l31 129q2 6 10 12t17 6h241q6 0 10.5 -6t2.5 -12l-31 -127q-10 -35 -22.5 -86t-26.5 -86q55 6 151 6h150q6 0 11 -6t1 -14l-53 -222q-4 -6 -11.5 -12t-13.5 -6h-151q-49 0 -84 1 t-64 5q0 -16 -9 -58t-22 -89l-38 -154q-2 -8 -9.5 -13t-13.5 -5h-242q-20 0 -16 18l41 156q8 37 21.5 77.5t23.5 67.5q-78 -6 -145 -6h-160q-8 0 -12.5 6z" />
<glyph unicode="," horiz-adv-x="630" d="M-94 -225l239 526q8 20 27 21h313q16 0 21.5 -7.5t-4.5 -23.5l-385 -516q-16 -31 -33 -31h-166q-33 0 -12 31z" />
<glyph unicode="-" horiz-adv-x="686" d="M78 438l57 236q4 20 25 20h465q16 0 12 -20l-59 -236q-2 -6 -10.5 -12t-14.5 -6h-463q-8 0 -11 6t-1 12z" />
<glyph unicode="." horiz-adv-x="630" d="M61 160q0 39 14.5 72.5t40 59t59.5 40t73 14.5t72.5 -14.5t59.5 -40t40 -59t14 -72.5q0 -41 -14 -75t-40 -60.5t-59.5 -41t-72.5 -14.5t-73 14.5t-59.5 41t-40 60.5t-14.5 75z" />
<glyph unicode="/" horiz-adv-x="1071" d="M-326.5 -413q-1.5 7 2.5 12l1414 1826q4 6 13 13.5t17 7.5h305q6 0 8.5 -7t-1.5 -14l-1414 -1826q-4 -4 -14 -11.5t-16 -7.5h-305q-8 0 -9.5 7z" />
<glyph unicode="0" d="M72 426q0 207 63.5 399.5t171 341t247.5 237.5t294 89q111 0 188.5 -33t127.5 -93t74 -146t24 -193q0 -207 -62.5 -398.5t-169 -337t-246 -232.5t-292.5 -87q-109 0 -188 33t-130 93.5t-76.5 143.5t-25.5 183zM414 383q0 -84 30.5 -123t85.5 -39q59 0 110.5 49t94.5 126 t78 172.5t58.5 189.5t36 176t12.5 133q0 74 -28 115t-89 41q-63 0 -117.5 -49.5t-97.5 -127t-76 -174t-54.5 -189.5t-32.5 -174t-11 -126z" />
<glyph unicode="1" d="M104 18l68 197q8 25 31 25h106q35 0 69 -2t64 -7q10 47 21.5 97.5t21.5 97.5l125 504q12 45 26 97t30 97q-47 -23 -95.5 -41t-93.5 -34l-166 -54q-31 -10 -24 11l55 221q4 20 29 28l663 218q16 4 27.5 -1.5t7.5 -15.5l-256 -1026q-12 -47 -26.5 -98t-30.5 -99 q35 4 69.5 5.5t65.5 1.5h104q20 0 19 -25l-31 -197q-4 -18 -29 -18h-833q-27 0 -17 18z" />
<glyph unicode="2" d="M-16 53q0 29 6 45.5t22 28.5q102 68 211 143.5t211.5 155.5t192.5 162t157.5 162.5t107.5 158.5t40 150q0 147 -170 147q-92 0 -146.5 -54t-70.5 -140q-10 -59 -54.5 -93t-109.5 -34q-72 0 -113 26.5t-41 98.5q0 55 36 137t111 158.5t188.5 132t271.5 55.5 q113 0 196.5 -27.5t140 -77t85 -118t28.5 -150.5q0 -123 -60.5 -242.5t-170 -233.5t-261 -219.5t-333.5 -199.5q78 16 174 22.5t194 10.5q90 2 157 6t89 4q23 0 17 -30l-82 -213q-10 -25 -35 -25h-959q-12 0 -21 13.5t-9 39.5z" />
<glyph unicode="3" d="M39 111l55 215q6 25 25 24q10 0 22 -12q66 -59 139.5 -86t163.5 -27q88 0 148.5 20.5t98.5 56.5t54.5 81t16.5 94q0 86 -75.5 113.5t-229.5 27.5q-45 0 -39 27l39 160q6 25 26 24q123 0 204 22.5t129 61.5t67.5 90.5t19.5 108.5q0 59 -37 92t-102 33q-80 0 -129 -34 t-96 -89q-37 -45 -111 -45q-53 0 -87 30.5t-34 96.5q0 37 24.5 87t83 97t156 80t240.5 33q229 0 335.5 -90t106.5 -234q0 -84 -37.5 -157.5t-103 -130t-156 -93t-196.5 -49.5q176 -6 267 -82.5t91 -201.5q0 -129 -61.5 -220.5t-157.5 -149.5t-214 -85t-232 -27 q-147 0 -245.5 29t-156.5 74q-20 12 -12 35z" />
<glyph unicode="4" d="M10 346l35 146q4 14 10 28.5t15 24.5q100 123 196 232.5t195.5 217t207 217t234.5 234.5h264q8 0 14.5 -6t4.5 -15l-178 -698q-10 -43 -22.5 -90t-27.5 -86q47 4 104.5 6t125.5 2q14 0 17 -7t-1 -15l-74 -199q-4 -10 -10 -14.5t-18 -4.5q-68 0 -115 1.5t-86 5.5 q-4 -31 -14 -76t-21 -86l-35 -146q-4 -6 -11 -12t-15 -6h-256q-10 0 -14.5 6t0.5 12l34 150q10 43 22.5 85t24.5 71q-47 -4 -94 -4.5t-88 -0.5h-409q-23 0 -15 27zM326 553q33 0 83 3t111 3h75t75 -4q8 37 17 80t24 92l41 158q12 51 29.5 107.5t35.5 105.5 q-55 -70 -118.5 -142.5t-129 -144.5t-129 -137.5t-114.5 -120.5z" />
<glyph unicode="5" d="M27 180q0 68 34.5 117t104.5 49q39 0 62.5 -14.5t43.5 -36.5q27 -35 69 -58.5t126 -23.5q66 0 121 25.5t95 68.5t62.5 102.5t22.5 127.5q0 84 -46 127t-169 43q-127 0 -198.5 -20.5t-98.5 -20.5q-10 0 -18.5 5t-4.5 21l185 725q6 29 39 29h760q8 0 15 -4t7 -15l-33 -219 q-4 -25 -37 -24q-72 0 -141.5 3t-146.5 3q-70 0 -127.5 1t-94.5 5q-4 -35 -12 -74t-16 -73q-10 -37 -20.5 -71t-22.5 -67q33 6 67.5 9.5t69.5 3.5q197 0 294 -88t97 -246q0 -117 -47 -227.5t-138 -197.5t-224.5 -139.5t-305.5 -52.5q-104 0 -175.5 17.5t-115.5 47.5 t-63.5 66.5t-19.5 75.5z" />
<glyph unicode="6" d="M86 401q0 102 25.5 222t76 242t127 234.5t178 201t229.5 140.5t282 52q174 0 243.5 -44t69.5 -124q0 -55 -38 -103t-116 -48q-31 0 -49 11t-40.5 25.5t-55.5 25.5t-94 11q-145 0 -270.5 -115.5t-209.5 -363.5q55 92 155.5 153.5t225.5 61.5q158 0 243 -87t85 -241 q0 -123 -43 -245.5t-124 -219t-200.5 -157t-273.5 -60.5q-207 0 -316.5 108.5t-109.5 319.5zM406 348q0 -70 34.5 -110.5t104.5 -40.5t121 48t83.5 116.5t48 142.5t15.5 127q0 139 -125 139q-72 0 -124 -42t-88 -105.5t-53 -137t-17 -137.5z" />
<glyph unicode="7" d="M231 1171l99 256q2 18 22 19h1039q33 0 32 -53q0 -16 -4 -24.5t-16 -22.5q-162 -180 -293 -337t-231.5 -303.5t-167 -286.5t-99.5 -288q-16 -78 -68 -117t-128 -39q-82 0 -129 35t-47 101q0 59 45 164.5t136 244.5t225 306t312 352q-76 -10 -153.5 -13.5t-167.5 -5.5 q-147 -2 -254 -4t-137 -2q-16 0 -15 18z" />
<glyph unicode="8" d="M8 272q0 51 18.5 114t68.5 124t140.5 116.5t233.5 96.5q-100 55 -155.5 123.5t-55.5 167.5q0 92 45 178t126 153.5t191.5 107.5t241.5 40q109 0 188.5 -24.5t131 -66.5t76 -97.5t24.5 -116.5q0 -113 -101.5 -220.5t-310.5 -164.5q145 -80 206 -161t61 -189 q0 -80 -36 -165t-116 -155t-208 -115t-312 -45q-104 0 -188 21.5t-143.5 60.5t-92.5 94.5t-33 122.5zM367 336q0 -72 45 -114t129 -42q63 0 108 18.5t74 47t41 64.5t12 71q0 70 -42.5 126t-151.5 128q-123 -68 -169 -148.5t-46 -150.5zM596 1085q0 -53 30.5 -99t114.5 -97 q98 47 152.5 110.5t54.5 143.5q0 59 -35.5 96t-111.5 37q-51 0 -90 -16.5t-64.5 -43t-38 -60.5t-12.5 -71z" />
<glyph unicode="9" d="M38 71.5q-1 8.5 1 24.5l55 211q4 16 12.5 24.5t18.5 8.5q6 0 10 -1t10 -9q45 -53 108.5 -84t149.5 -31q158 0 287 112.5t215 362.5q-63 -106 -164.5 -162.5t-220.5 -56.5q-68 0 -127 21.5t-102 62.5t-68.5 103.5t-25.5 142.5q0 137 47 263t131 221t201.5 151.5 t259.5 56.5q422 0 421 -444q0 -90 -22.5 -205t-69.5 -235t-117.5 -234.5t-169 -203.5t-223 -143.5t-278.5 -54.5q-117 0 -198 19.5t-132 62.5q-8 8 -9 16.5zM532 817q0 -66 32 -101.5t98 -35.5q70 0 122 44t86.5 110.5t52 142.5t17.5 139q0 152 -131 152q-70 0 -121 -46 t-86 -114t-52.5 -146.5t-17.5 -144.5z" />
<glyph unicode=":" horiz-adv-x="630" d="M61 160q0 39 14.5 72.5t40 59t59.5 41t73 15.5t72.5 -15.5t59.5 -41t40 -59t14 -72.5q0 -80 -54 -134.5t-132 -54.5t-132.5 54.5t-54.5 134.5zM240 862q0 39 14 73t39.5 59.5t59.5 40t73 14.5t72.5 -14.5t59.5 -40t40 -59.5t14 -73q0 -41 -14 -74.5t-40 -60.5t-59.5 -41 t-72.5 -14t-73 14t-59.5 41t-39.5 60.5t-14 74.5z" />
<glyph unicode=";" horiz-adv-x="630" d="M-94 -225l239 526q4 8 12.5 14.5t16.5 6.5h313q35 0 17 -29l-385 -518q-23 -29 -35 -29h-166q-31 0 -12 29zM260 862q0 39 14.5 73t40 59.5t59 40t72.5 14.5t74 -14.5t60.5 -40t40 -59.5t14.5 -73q0 -80 -54.5 -135t-134.5 -55q-39 0 -72.5 14t-59 41t-40 60.5 t-14.5 74.5z" />
<glyph unicode="&#x3c;" horiz-adv-x="980" d="M83 456.5q-3 14.5 7 51.5q10 41 16.5 52t22.5 18l860 409q35 18 29 -14l-31 -121q-4 -14 -10 -23.5t-23 -21.5l-440 -287l293 -309q10 -12 11 -20.5t-3 -18.5l-33 -135q-4 -10 -14 -13.5t-18 1.5l-656 413q-8 4 -11 18.5z" />
<glyph unicode="=" horiz-adv-x="1060" d="M16 199l50 200q4 20 24 21h848q6 0 11 -6t1 -15l-49 -200q-2 -6 -9 -12.5t-13 -6.5h-850q-8 0 -11.5 6.5t-1.5 12.5zM139 690l49 201q4 20 23 20h850q6 0 11 -6t3 -14l-51 -201q-2 -6 -10 -12t-15 -6h-847q-8 0 -11.5 6t-1.5 12z" />
<glyph unicode="&#x3e;" horiz-adv-x="980" d="M-27 43l31 121q4 14 9 23.5t24 21.5l440 287l-293 309q-10 12 -11 20.5t3 18.5l33 135q4 10 13 13t18 -1l659 -413q10 -4 10 -18.5t-10 -51.5q-10 -41 -15 -52.5t-22 -17.5l-858 -409q-37 -16 -31 14z" />
<glyph unicode="?" horiz-adv-x="1024" d="M158 141q8 70 62 117t122 47q72 0 115 -47t35 -117q-8 -68 -60.5 -111.5t-122.5 -43.5q-68 0 -112.5 44t-38.5 111zM162 1188q0 33 19.5 81t73.5 93t149.5 76.5t246.5 31.5q106 0 187.5 -26.5t134.5 -72.5t79.5 -106.5t26.5 -129.5q0 -115 -46 -186.5t-115.5 -121 t-149.5 -85t-149.5 -74.5t-115.5 -91.5t-46 -136.5q0 -6 -6.5 -12t-12.5 -6h-170q-16 0 -16 31q0 96 37 167.5t93 127t120.5 98.5t121 83t93.5 81t37 90q0 47 -37 80.5t-119 33.5q-66 0 -101.5 -20t-72.5 -61q-29 -33 -57.5 -49.5t-73.5 -16.5q-59 0 -95 34t-36 87z" />
<glyph unicode="@" horiz-adv-x="2041" d="M74 207q0 203 94 403.5t263 362.5t403.5 262t517.5 100q176 0 302 -44t208 -116.5t119.5 -167t37.5 -194.5q0 -129 -49 -259t-136 -233.5t-208 -168t-264 -64.5q-86 0 -134 36t-48 116q0 23 2 49t8 55q-31 -72 -73 -122t-91 -81.5t-102.5 -46t-106.5 -14.5 q-111 0 -165 59.5t-54 149.5q0 88 46 192.5t136 192.5t225.5 147.5t311.5 59.5q51 0 94 -4.5t90 -4.5q16 0 23.5 -8t1.5 -28q-20 -80 -47 -177.5t-58 -220.5q-10 -41 -15 -69.5t-5 -46.5q0 -43 41 -43q47 0 95 40.5t88 107.5t64.5 148.5t24.5 163.5q0 72 -22.5 133.5 t-72.5 106.5t-130 70.5t-193 25.5q-135 0 -252.5 -35.5t-215 -97t-174 -143.5t-130 -172t-81 -184.5t-27.5 -182.5q0 -84 25.5 -154.5t79.5 -122t138 -80t201 -28.5q170 0 281.5 27.5t183.5 68.5q6 4 14.5 7.5t12.5 3.5q18 0 12 -37l-45 -166q-10 -47 -31 -60 q-113 -49 -231.5 -75.5t-286.5 -26.5q-178 0 -309 46t-217 126t-128 187.5t-42 230.5zM872 401q0 -29 17.5 -47t52.5 -18q37 0 74 15.5t70.5 44t59 69.5t40.5 92l33 119q-84 -4 -147.5 -34t-108.5 -71t-68 -87t-23 -83z" />
<glyph unicode="A" horiz-adv-x="1435" d="M-109 33l834 1394q4 6 11 12.5t14 6.5h405q16 0 21 -19l145 -1394v-6q0 -9 -4 -17q-6 -10 -23 -10h-325q-14 0 -19 20q-8 74 -13 148q-4 53 -4 104q0 20 1 39q-66 -4 -131.5 -5t-126.5 -1q-121 0 -258 6q-29 -66 -73 -143.5t-87 -147.5q-4 -8 -12 -14t-15 -6h-329 q-19 0 -19 12q0 8 8 21zM547 537q49 4 101 5t95 1h87.5t84.5 -4q-6 43 -12 111t-10 134q-3 71 -3 143q0 36 1 72q2 109 10 213q-43 -104 -98 -214.5t-109 -209.5q-37 -68 -78 -136t-69 -115z" />
<glyph unicode="B" horiz-adv-x="1452" d="M59 18l353 1407q4 20 20 21h590q205 0 310.5 -79t105.5 -214q0 -139 -98.5 -246.5t-311.5 -140.5q68 -6 125 -32.5t97 -67.5t62.5 -96.5t22.5 -118.5q0 -92 -31.5 -174t-102.5 -143.5t-182.5 -97.5t-270.5 -36h-676q-6 0 -12 4q-3 2 -3 7q0 3 2 7zM475 258q18 2 48 3 t64 2t70.5 1h67.5q127 0 193.5 56.5t66.5 150.5q0 72 -48 113t-165 41q-51 0 -111.5 2t-95.5 4q-6 -43 -14 -90t-23 -103q-12 -49 -25.5 -93t-27.5 -87zM623 852q29 4 69.5 6t83.5 2q154 0 217.5 56.5t63.5 140.5q0 66 -42 96.5t-143 30.5h-40.5t-47 1t-46 2t-36.5 3 q-4 -45 -11 -86t-17 -84q-10 -41 -23.5 -86t-27.5 -82z" />
<glyph unicode="C" horiz-adv-x="1394" d="M137 524q0 96 28 206t83 217.5t138 205.5t195.5 174t252 121t309.5 45q119 0 213 -25.5t153 -70.5q15 -9 21 -23q3 -5 2 -14q0 -13 -6 -35l-62 -242q-10 -39 -45 -39q-16 0 -24 13q-63 55 -146.5 89t-177.5 34q-143 0 -245.5 -59.5t-169 -149.5t-97.5 -196.5t-31 -203.5 q0 -147 80 -227t232 -80q100 0 194 25.5t185 83.5q10 4 18 8t14 4q12 0 21.5 -10t5.5 -31l-49 -199q-8 -33 -19.5 -46t-33.5 -25q-66 -37 -176.5 -69t-272.5 -32q-154 0 -265.5 44t-184 119t-106.5 175.5t-34 212.5z" />
<glyph unicode="D" horiz-adv-x="1648" d="M59 18l355 1407q4 20 20 21h570q305 0 467.5 -134t162.5 -397q0 -168 -62.5 -331.5t-184 -293.5t-300 -210t-411.5 -80h-604q-6 0 -12 4q-3 2 -3 7q0 3 2 7zM477 276q66 4 112 6.5t107 2.5q143 0 247 54t170.5 140t98 189.5t31.5 201.5q0 133 -81 212t-263 79 q-45 0 -99.5 1t-99.5 5q-6 -55 -18 -108t-29 -119l-90 -354q-29 -111 -47 -180.5t-39 -129.5z" />
<glyph unicode="E" horiz-adv-x="1273" d="M59 18l353 1407q4 20 22 21h948q14 0 13 -19l-29 -243q-4 -16 -18 -17q-47 0 -99.5 1t-105.5 1t-103.5 1t-89.5 1q-78 0 -140 2.5t-108 6.5q-6 -41 -13 -84t-17 -80q-10 -41 -21.5 -80t-27.5 -78q98 12 251 12q57 0 109.5 2t108.5 2q16 0 10 -18l-60 -235q-4 -16 -18 -17 q-53 0 -102.5 2t-112.5 2q-135 0 -246 13q-12 -86 -33 -170q-25 -98 -55 -185q39 2 74 4t68.5 3t70.5 1h82q98 0 195.5 2.5t189.5 2.5q16 0 10 -19l-96 -244q-6 -16 -18 -16h-977q-8 0 -12 6q-3 4 -4 8q0 2 1 4z" />
<glyph unicode="F" horiz-adv-x="1183" d="M59 18l353 1407q4 20 22 21h950q10 0 11 -19l-29 -243q-4 -16 -18 -17q-47 0 -99.5 1t-105.5 1t-102.5 1t-88.5 1q-76 0 -140 2.5t-110 6.5q-16 -102 -38 -191q-12 -53 -25.5 -95t-26.5 -79q47 6 107.5 9t122.5 3q80 0 148.5 2t96.5 2q12 0 11 -18l-62 -240 q-4 -16 -16 -16q-37 0 -93.5 3t-138.5 3q-72 0 -129 3t-108 7q-8 -43 -20.5 -107.5t-32.5 -143.5l-76 -304q-2 -6 -9 -12t-14 -6h-325q-8 0 -12 6q-3 4 -4 8q0 2 1 4z" />
<glyph unicode="G" horiz-adv-x="1562" d="M139 524q0 182 78 356.5t216 310.5t325.5 219t408.5 83q160 0 263.5 -27.5t175.5 -74.5q10 -6 19 -25q4 -8 4 -19q0 -13 -5 -28l-65 -246q-10 -41 -43 -41q-16 0 -29 12q-29 27 -69 54.5t-91 50t-113.5 38t-136.5 15.5q-139 0 -242.5 -61.5t-173 -155.5t-104.5 -207.5 t-35 -216.5q0 -141 82 -224t230 -83q55 0 106 10t90 25l90 366q6 20 25 21h299q4 0 10 -5t4 -16l-131 -518q-139 -82 -281.5 -123t-316.5 -41q-150 0 -260.5 45t-184 121t-109.5 175.5t-36 209.5z" />
<glyph unicode="H" horiz-adv-x="1675" d="M61 18l353 1407q4 20 22 21h326q6 0 11 -6t3 -15l-69 -270q-16 -66 -33 -129t-35 -123q98 6 207 6h188q111 0 203 -6q12 59 27.5 123t31.5 129l68 270q4 20 22 21h326q6 0 12 -6q4 -4 3 -9q0 -3 -1 -6l-352 -1407q-2 -6 -9 -12t-13 -6h-326q-8 0 -12 6t-2 12l80 316 q18 72 36.5 143.5t38.5 136.5q-63 -4 -107 -4h-97h-195h-96t-103 4q-14 -66 -31.5 -137t-35.5 -143l-78 -316q-4 -6 -11 -12t-14 -6h-325q-8 0 -12 6q-2 3 -3 6q0 3 2 6z" />
<glyph unicode="I" horiz-adv-x="710" d="M59 18l353 1407q4 20 22 21h326q6 0 11 -6q4 -4 4 -10q0 -2 -1 -5l-352 -1407q-2 -6 -9 -12t-14 -6h-325q-8 0 -12 6q-3 4 -4 8q0 2 1 4z" />
<glyph unicode="J" horiz-adv-x="792" d="M-309 -380q0 11 6 36l51 201q4 20 15.5 26t23.5 6q10 0 14 -2t15 -6q34 -22 100 -22h6q29 0 61.5 8t61.5 24.5t51.5 44t32.5 68.5l356 1421q4 20 23 21h323q6 0 11 -6q5 -4 5 -10q0 -3 -1 -5l-352 -1405q-29 -137 -91.5 -227t-142.5 -142t-168 -72.5t-170 -20.5 q-72 0 -127 13t-88 30q-16 8 -16 19z" />
<glyph unicode="K" horiz-adv-x="1550" d="M57 18l355 1407q4 20 20 21h328q6 0 12 -5t4 -16l-98 -389q-16 -66 -45 -153.5t-60 -165.5q94 190 211 330.5t238 233.5t240.5 138t224.5 45q88 0 129 -51t41 -115q0 -47 -12.5 -90t-34 -76.5t-51 -54t-66.5 -20.5q-23 0 -40 8t-36.5 19.5t-45 19.5t-64.5 8 q-43 0 -94.5 -18.5t-104.5 -49t-106.5 -71.5t-98.5 -86q47 -41 111.5 -139.5t150.5 -260.5q41 -74 82 -143.5t77 -125.5t63.5 -95t44.5 -53q10 -8 10 -31q2 -16 -5 -27.5t-18 -11.5h-377q-16 0 -28 16q-47 76 -98.5 178.5t-98.5 208.5q-53 113 -91.5 172.5t-61.5 79.5 q-66 -76 -107 -165t-59 -168l-76 -302q-4 -10 -11.5 -15t-13.5 -5h-327q-6 0 -12 4q-3 2 -3 7q0 3 2 7z" />
<glyph unicode="L" horiz-adv-x="1224" d="M59 18l353 1407q4 20 22 21h326q6 0 11 -6t3 -15l-196 -778q-20 -86 -44 -176t-59 -201q92 6 186.5 8.5t184.5 2.5q47 0 86 1t74.5 1t72.5 1t84 1q11 0 11 -8q0 -4 -3 -11l-90 -250q-10 -16 -24 -16h-983q-8 0 -12 6q-3 4 -4 8q0 2 1 4z" />
<glyph unicode="M" horiz-adv-x="2011" d="M59 18l353 1407q4 20 18 21h510q4 0 10 -6t6 -15l29 -720q2 -49 2 -99t-2 -101q-4 -102 -14 -200q39 98 83 199.5t97 197.5l391 723q4 8 11.5 14.5t13.5 6.5h497q13 0 13 -15v-6l-353 -1407q-4 -6 -9 -12t-11 -6h-297q-8 0 -11 6t-1 12l151 598q20 82 43 165t44.5 162 t42 147.5t36.5 121.5l-625 -1194q-4 -6 -12 -12t-14 -6h-336q-18 0 -23 18l-28 1194q-10 -53 -22.5 -118.5t-28 -134t-32 -137t-30.5 -126.5l-170 -678q-2 -6 -8 -12t-12 -6h-301q-8 0 -10 6q-1 3 -2 7q0 2 1 5z" />
<glyph unicode="N" horiz-adv-x="1687" d="M59 18l353 1407q4 20 22 21h461q8 0 16.5 -5t10.5 -16l165 -698q25 -104 40.5 -222t17.5 -249q14 92 28.5 164t26.5 133t25.5 117.5t29.5 117.5l158 637q4 20 23 21h297q6 0 11 -6q4 -4 4 -10q0 -2 -1 -5l-352 -1407q-2 -6 -9.5 -12t-13.5 -6h-436q-16 0 -21 16l-180 772 q-14 59 -24.5 111.5t-17.5 104t-12 102.5t-7 108q-23 -133 -46.5 -248.5t-52.5 -226.5l-180 -721q-2 -6 -9 -12t-13 -6h-299q-8 0 -12 6q-3 4 -4 8q0 2 1 4z" />
<glyph unicode="O" horiz-adv-x="1724" d="M143 520q0 113 29 227.5t85 223t138 204t187.5 166t234.5 111.5t279 41q141 0 253.5 -40t191.5 -111.5t120 -169t41 -214.5q0 -106 -28.5 -221.5t-84 -224.5t-137.5 -207t-187.5 -172t-234.5 -117t-278 -43q-143 0 -256 41t-192 114t-120 173t-41 219zM541 547 q0 -141 66.5 -211t195.5 -70q82 0 150.5 31t125 83t99.5 119.5t71.5 141.5t44 148.5t15.5 142.5q0 131 -62.5 199.5t-210.5 68.5q-88 0 -157.5 -31.5t-125 -85t-95.5 -121t-66.5 -140t-38.5 -144.5t-12 -131z" />
<glyph unicode="P" horiz-adv-x="1372" d="M57 18l353 1401q8 27 22 27h533q229 0 345.5 -102.5t116.5 -270.5q0 -104 -40.5 -209.5t-124.5 -190.5t-214.5 -138.5t-308.5 -53.5q-72 0 -121 3t-90 8q-8 -43 -22 -114t-33 -142l-53 -218q-2 -6 -10.5 -12t-14.5 -6h-325q-12 0 -13 18zM590 729q35 4 73.5 6t73.5 2 q152 0 232 84t80 213q0 152 -175 152q-43 0 -86 2t-81 6q-8 -45 -21.5 -109.5t-28.5 -117.5q-16 -66 -33.5 -127.5t-33.5 -110.5z" />
<glyph unicode="Q" horiz-adv-x="1736" d="M145 518q0 168 65.5 341t188.5 314.5t299 230.5t398 89q141 0 252.5 -42t190.5 -114.5t121 -171t42 -213.5q0 -119 -38 -255t-123 -259t-220 -215t-328 -125q82 -14 143.5 -42.5t119 -58.5t119 -51.5t145.5 -21.5q78 0 120 21q12 6 19.5 9t21.5 3q12 0 21 -9q4 -5 4 -15 q0 -7 -2 -17l-47 -190q-12 -51 -68.5 -78t-140.5 -27q-82 0 -146.5 23.5t-121 60.5t-109.5 80t-111.5 83t-128 69.5t-157.5 39.5q-127 12 -225.5 58.5t-166 118t-102.5 165t-35 199.5zM541 549q0 -139 64.5 -211t195.5 -72q123 0 217 66.5t158.5 167t98.5 217.5t34 217 q0 133 -63.5 199.5t-205.5 66.5q-133 0 -227 -68.5t-154.5 -169t-89 -213t-28.5 -200.5z" />
<glyph unicode="R" horiz-adv-x="1478" d="M59 18l351 1401q8 27 22 27h539q119 0 206 -25.5t143 -68.5t83 -102.5t27 -127.5q0 -92 -31 -178t-92.5 -155.5t-154.5 -117.5t-218 -65q27 -8 57.5 -32.5t62 -59.5t63.5 -78t63 -90q45 -72 77.5 -119t54 -77.5t36 -46t24.5 -21.5q18 -10 19 -29q0 -23 -8.5 -38 t-26.5 -15h-359q-29 0 -55.5 39t-60.5 113q-88 176 -149 274t-122 98h-32.5t-40.5 4q-10 -59 -27.5 -140t-34.5 -152l-53 -218q-2 -6 -10.5 -12t-14.5 -6h-325q-13 0 -13 13v5zM600 764q23 2 56.5 4t68.5 2q86 0 148.5 23.5t101.5 62.5t57.5 88t18.5 98q-1 140 -177 140 q-45 0 -89 2t-76 8q-8 -43 -21.5 -107.5t-28.5 -119.5q-12 -51 -27.5 -102.5t-31.5 -98.5z" />
<glyph unicode="S" horiz-adv-x="1249" d="M43 98q-3 9 -3 20t3 23l51 203q4 18 16.5 29.5t24.5 11.5q10 0 17.5 -5l13.5 -9q33 -33 77 -56.5t92 -39t99 -22.5t98 -7q117 0 188 46t71 118q0 66 -52.5 104.5t-146.5 79.5q-82 33 -145.5 66.5t-107.5 76.5t-66.5 98.5t-22.5 127.5q0 88 45 182t132 171t217 127t302 50 q121 0 209 -21.5t170 -66.5q15 -9 21 -23q2 -5 3 -13q0 -12 -6 -32l-63 -250q-4 -20 -16.5 -29t-26.5 -9q-16 0 -25 12q-51 68 -146 103.5t-198 35.5q-111 0 -170 -47t-59 -119q0 -33 16.5 -57.5t44 -45t66.5 -39t84 -38.5q74 -29 135.5 -63.5t105.5 -78.5t67.5 -99.5 t23.5 -129.5q0 -94 -46 -186t-134.5 -166t-213 -119t-282.5 -45t-265.5 26.5t-179.5 78.5q-12 8 -18 26z" />
<glyph unicode="T" horiz-adv-x="1273" d="M154 1176l102 251q6 18 18 19h1239q10 0 10 -10q0 -4 -1 -9l-62 -256q-6 -16 -18 -16q-47 0 -100.5 2t-98.5 2q-68 0 -130 4t-128 11q-10 -57 -22.5 -118t-26.5 -118l-229 -920q-2 -6 -9.5 -12t-13.5 -6h-326q-8 0 -12 6t-2 12l231 924q14 57 31 117.5t33 114.5 q-61 -6 -118.5 -10.5t-119.5 -4.5q-35 0 -63.5 -1t-55 -1t-55 -1t-63.5 -1q-12 0 -12 10q0 5 2 11z" />
<glyph unicode="U" horiz-adv-x="1615" d="M152 266q-14 47 -14 101q0 57 16 122l233 936q4 20 23 21h329q6 0 11.5 -6t3.5 -15l-222 -880q-9 -37 -9 -68q0 -71 46 -115q66 -62 189 -63q135 0 235.5 61.5t130.5 182.5l222 882q4 20 22 21h320q6 0 11 -6q4 -4 4 -10q0 -2 -1 -5l-234 -931q-31 -121 -105.5 -217.5 t-179 -164t-232.5 -103.5t-263 -36q-131 0 -242.5 34t-187.5 98.5t-106 160.5z" />
<glyph unicode="V" horiz-adv-x="1452" d="M240 1413q-2 33 24 33h320q6 0 13 -6t7 -15l39 -696q6 -115 10 -248q1 -33 1 -66q0 -99 -9 -196q53 127 117.5 255t136.5 255l393 696q4 8 13.5 14.5t15.5 6.5h336q18 0 18 -12q0 -8 -8 -21l-836 -1395q-4 -6 -11 -12t-13 -6h-408q-16 0 -20 18z" />
<glyph unicode="W" horiz-adv-x="2177" d="M238 1413q0 33 24 33h338q4 0 10 -6t6 -15l5 -661q0 -123 -6.5 -256t-22.5 -260q41 125 100.5 254t122.5 256l336 669q4 10 12 14.5t15 4.5h313q27 0 27 -19l-7 -661q-2 -139 -7 -264t-25 -254q45 129 104 256t131 266l334 655q8 20 25 21h325q13 0 13 -10q0 -8 -9 -23 l-741 -1395q-4 -6 -11.5 -12t-13.5 -6h-405q-16 0 -17 18v611q0 111 8.5 232.5t22.5 215.5q-33 -94 -82 -215t-106 -233l-312 -611q-4 -6 -10 -12t-12 -6h-420q-16 0 -16 18z" />
<glyph unicode="X" horiz-adv-x="1556" d="M-104 12q-1 3 -2 7q0 10 10 20q242 233 422 402t309 282q-43 70 -86 141.5t-90 153.5t-100.5 178t-118.5 217q-6 12 -1 22.5t21 10.5h393q20 0 31 -27q37 -80 64.5 -144.5t49 -121.5t40 -111.5t36.5 -115.5q51 61 97.5 117.5t97.5 113.5t110.5 120.5t135.5 141.5 q12 12 23.5 19.5t27.5 7.5h373q12 0 16 -10q1 -3 1 -7q0 -8 -7 -16q-139 -135 -245.5 -238.5t-194.5 -186.5t-160.5 -149.5t-144.5 -129.5q41 -57 82.5 -121t89 -143.5t104.5 -181t129 -232.5q6 -10 -2 -20.5t-18 -10.5h-394q-14 0 -20 7t-14 22q-35 72 -64 132t-52.5 115.5 t-44 107.5t-38.5 108q-53 -59 -99.5 -112.5t-96.5 -109t-107.5 -115t-128.5 -132.5q-18 -23 -43 -23h-375q-12 0 -16 12z" />
<glyph unicode="Y" horiz-adv-x="1486" d="M177 1434q5 12 24 12h356q25 0 35 -27l106 -237q41 -92 67 -178t38 -173q61 92 128.5 175.5t149.5 164.5l242 246q16 16 26.5 22.5t26.5 6.5h348q16 0 20 -10v-5q0 -9 -11 -20l-803 -825l-144 -568q-2 -6 -9 -12t-13 -6h-326q-8 0 -12 6t-2 12l143 568l-389 825 q-3 5 -3 12q0 5 2 11z" />
<glyph unicode="Z" horiz-adv-x="1404" d="M-72 16q-3 8 -3 18t3 21q2 10 6.5 18.5t16.5 20.5l782 803q86 86 152.5 149.5t142.5 127.5q-102 -10 -199.5 -14.5t-173.5 -4.5q-37 0 -85 -1t-97 -1t-96 -1t-86 -1q-27 0 -15 23l99 251q6 20 22 21h1176q15 0 23 -14q4 -8 5 -18q0 -7 -2 -15q-2 -10 -8 -20.5t-12 -18.5 l-782 -823q-80 -84 -145.5 -146.5t-137.5 -126.5q94 10 190.5 15.5t206.5 5.5q33 0 83 1t103.5 1t103.5 1t85 1q12 0 18.5 -8.5t0.5 -18.5l-95 -239q-8 -23 -32 -23h-1229q-15 0 -21 16z" />
<glyph unicode="[" horiz-adv-x="874" d="M-2 -436l485 1929q4 20 25 20h631q16 0 12 -20l-43 -166q-2 -6 -8 -12t-13 -6h-159h-98.5t-98.5 4q-4 -41 -14 -82t-21 -84l-311 -1237q-10 -43 -21.5 -84t-25.5 -82q47 4 98 4h99h157q6 0 11.5 -6t3.5 -10l-41 -166q-2 -8 -10.5 -14.5t-14.5 -6.5h-631q-8 0 -11 6.5 t-1 12.5z" />
<glyph unicode="\" horiz-adv-x="929" d="M14 1425q-2 6 1 13.5t10 7.5h305q8 0 16 -7t10 -14l492 -1826q2 -4 -4 -11.5t-15 -7.5h-305q-6 0 -11 7t-7 12z" />
<glyph unicode="]" horiz-adv-x="874" d="M-254 -434l41 164q2 6 9 12t14 6h159h97.5t97.5 -4q6 41 16 82t21 84l311 1239q10 43 21.5 84t25.5 80q-47 -4 -98 -4h-99h-159q-6 0 -11.5 6t-3.5 14l43 166q2 6 9.5 12t13.5 6h631q8 0 12 -6t2 -12l-485 -1929q-4 -20 -25 -21h-631q-16 0 -12 21z" />
<glyph unicode="^" horiz-adv-x="1056" d="M100.5 697.5q-2.5 9.5 10.5 23.5l598 756q10 14 22 17t53 3q37 0 49.5 -5t14.5 -15l223 -760q2 -10 -4 -19.5t-16 -9.5h-133q-10 0 -18.5 3t-18.5 16l-217 368l-375 -364q-16 -14 -26.5 -18.5t-24.5 -4.5h-123q-12 0 -14.5 9.5z" />
<glyph unicode="_" horiz-adv-x="516" d="M-203 -340l62 256h516l-62 -256h-516z" />
<glyph unicode="`" horiz-adv-x="854" d="M406 1435.5q6 10.5 16 10.5h211q8 0 17 -7t14 -14l178 -295q4 -8 1 -15t-18 -7h-125q-14 0 -32 18l-260 291q-8 8 -2 18.5z" />
<glyph unicode="a" horiz-adv-x="1218" d="M55 330q0 119 40 243.5t115 227t181.5 168t239.5 65.5q121 0 180 -69.5t61 -169.5l39 182q2 10 9.5 15t13.5 5h268q6 0 12 -5q4 -3 5 -8q0 -3 -2 -7l-179 -703q-29 -111 -33 -177.5t-6 -78.5q-6 -18 -24 -18h-238q-12 0 -12 18q0 12 3 40t8 60t12.5 65.5t13.5 58.5 q-33 -74 -78 -124t-97 -83t-107.5 -47.5t-108.5 -14.5q-72 0 -129.5 26t-99.5 72t-64.5 111.5t-22.5 147.5zM379 350q0 -72 36 -111.5t101 -39.5q78 0 150.5 64.5t111.5 217.5l17 62q10 37 13 69.5t3 61.5q0 139 -145 139q-72 0 -125.5 -53t-89 -127t-54 -153t-18.5 -130z " />
<glyph unicode="b" horiz-adv-x="1218" d="M-10 18q2 12 26.5 78t53.5 178l292 1151q4 20 21 21h283q6 0 12 -6t4 -15q-18 -72 -42 -154.5t-49.5 -166.5t-53 -166t-52.5 -152q68 129 162 188.5t215 59.5q141 0 228.5 -95t87.5 -257q0 -121 -40 -246t-116 -228.5t-182.5 -169t-239.5 -65.5q-117 0 -190.5 73 t-77.5 196q-8 -31 -17.5 -66t-19.5 -65.5t-18.5 -55t-12.5 -37.5q-4 -6 -11 -12t-13 -6h-238q-14 0 -14 10q0 4 2 8zM422 334q0 -139 145 -139q72 0 125 53t89 127t54.5 152.5t18.5 129.5q0 72 -36 112t-101 40q-78 0 -151.5 -65.5t-110.5 -217.5l-17 -61q-10 -39 -13 -71 t-3 -60z" />
<glyph unicode="c" horiz-adv-x="950" d="M55 365q0 117 46 235.5t134.5 214.5t216.5 157.5t291 61.5q117 0 195 -39t78 -123q0 -33 -11.5 -62.5t-32 -51t-46 -34.5t-54.5 -13t-46 8t-33 18q-20 16 -46 25.5t-65 9.5q-72 0 -129 -31.5t-98 -82t-62.5 -114t-21.5 -124.5q0 -80 50 -139.5t157 -59.5q133 0 223 76 q10 8 20 8q8 0 14.5 -7t2.5 -26l-41 -168q-6 -25 -15.5 -35t-23.5 -20q-47 -33 -111.5 -54.5t-163.5 -21.5q-109 0 -188.5 32t-132.5 86t-80 125t-27 149z" />
<glyph unicode="d" d="M55 330q0 119 40 243.5t115 227t181.5 168t239.5 65.5q123 0 181 -67.5t58 -171.5q29 162 67 322.5t77 307.5q4 20 20 21h281q17 0 17 -15q0 -3 -1 -6l-293 -1151q-29 -111 -33 -177t-6 -79q-6 -18 -24 -18h-238q-16 0 -12 18q0 12 3 39t8 60t12.5 66.5t13.5 58.5 q-33 -72 -78 -123t-97 -83t-107.5 -47.5t-108.5 -15.5q-72 0 -129.5 26t-99.5 72t-64.5 111.5t-22.5 147.5zM379 348q0 -149 135 -149h2q78 0 150.5 64.5t111.5 217.5l17 62q10 37 13 69.5t3 61.5q0 139 -145 139q-72 0 -125.5 -53t-89 -128t-54 -154t-18.5 -130z" />
<glyph unicode="e" horiz-adv-x="1032" d="M57 365q0 123 48.5 242.5t137.5 215t215 153.5t283 58q158 0 234 -67.5t76 -159.5q0 -76 -38 -141.5t-120 -113.5t-213 -77t-315 -29q-8 -33 -9 -73q0 -63 49.5 -107.5t153.5 -44.5q78 0 151.5 23.5t118.5 60.5q14 12 27 12q8 0 14.5 -7t1.5 -23l-43 -172q-8 -23 -14 -34 t-18 -22q-45 -37 -132 -61.5t-198 -24.5q-102 0 -179 31t-128 85t-77 125t-26 151zM406 618q98 2 168.5 15.5t114.5 35t65.5 48t21.5 55.5q0 63 -80 64q-96 0 -172.5 -60t-117.5 -158z" />
<glyph unicode="f" horiz-adv-x="743" d="M55 18l129 517q20 84 37 137t35 104q-33 -4 -68.5 -7t-66.5 -3q-12 0 -8 16l47 197q6 18 18 18q33 0 67 -3t62 -7q4 20 9.5 57t15.5 78q16 68 55 129.5t108.5 109.5t175 75.5t255.5 27.5q25 0 30 -9q2 -5 2 -12t-2 -18l-47 -190q-4 -10 -11 -16.5t-24 -6.5 q-68 0 -111.5 -9t-71 -26.5t-43 -43t-23.5 -58.5q-6 -25 -14.5 -48t-18.5 -40q66 4 128 7t116 3q14 0 8 -18l-49 -197q-4 -16 -19 -16q-53 0 -112.5 3t-112.5 7q-8 -53 -18.5 -106.5t-30.5 -134.5l-127 -517q-4 -6 -11.5 -12t-13.5 -6h-282q-8 0 -12 6q-3 3 -3 6t2 6z" />
<glyph unicode="g" horiz-adv-x="1218" d="M-20 -364q-1 3 -1 8q0 9 5 24l41 166q12 29 26 29q16 0 29 -10q41 -35 105.5 -54.5t136.5 -19.5q61 0 122.5 13t112.5 43t89 77t56 115l58 215q-31 -72 -75 -123t-96 -83t-108.5 -47.5t-109.5 -15.5q-82 0 -141.5 29t-98.5 77t-57.5 111.5t-18.5 135.5q0 119 40 244.5 t115 228t181.5 169t239.5 66.5q121 0 181 -70q58 -69 58 -163v-6l39 182q4 20 21 20h272q4 0 12 -5q4 -3 4 -9q0 -3 -1 -6l-246 -985q-31 -127 -100.5 -211t-158.5 -135.5t-192.5 -71.5t-202.5 -20q-115 0 -196.5 18t-128.5 49q-8 4 -12 15zM379 348q0 -149 135 -149h2 q78 0 150.5 64.5t111.5 217.5l17 62q10 37 13 69.5t3 61.5q0 139 -145 139q-72 0 -125.5 -53t-89 -128t-54 -154t-18.5 -130z" />
<glyph unicode="h" horiz-adv-x="1208" d="M8 18l354 1407q4 20 21 21h258q6 0 12 -5t4 -16q-18 -72 -46.5 -170t-57.5 -197.5t-56.5 -186.5t-41.5 -132q37 70 89 125.5t111.5 93t125 57t128.5 19.5q51 0 97.5 -13t80 -42t53 -72t19.5 -102q0 -49 -5 -93t-19 -100l-150 -594q-2 -6 -10 -12t-14 -6h-281q-6 0 -11 4 t-1 14l135 549q10 35 17 70t7 63q0 45 -25.5 66.5t-68.5 21.5q-88 0 -174 -91t-129 -259l-102 -420q-2 -8 -10.5 -13t-14.5 -5h-283q-6 0 -11 4q-3 2 -3 6t2 8z" />
<glyph unicode="i" horiz-adv-x="557" d="M2 6q-2 3 -2 6t2 6l240 959q4 20 24 20h283q16 0 12 -20l-239 -959q-4 -6 -11.5 -12t-13.5 -6h-283q-8 0 -12 6zM307 1303q4 37 22.5 69.5t45 56t59.5 38t70 14.5q74 -1 120 -53q39 -45 39 -104q0 -10 -1 -21q-8 -72 -64.5 -119t-130.5 -47q-72 0 -120 47q-41 40 -41 99 q0 10 1 20z" />
<glyph unicode="j" horiz-adv-x="563" d="M-359 -376q0 11 5 32l43 168q4 20 13 26.5t19 6.5q14 0 23 -9q16 -10 35.5 -15t50.5 -5q47 0 97 31.5t71 109.5l254 1008q4 20 22 20h283q16 0 12 -20l-239 -952q-35 -135 -93.5 -225.5t-128 -144.5t-143.5 -75.5t-141 -21.5q-55 0 -101 13.5t-69 29.5q-13 11 -13 23z M315 1303q4 37 22.5 69.5t45.5 56t59.5 38t69.5 14.5q74 0 120 -53q39 -44 39 -104q0 -10 -1 -21q-8 -72 -64.5 -119t-130.5 -47q-72 0 -120 47q-41 40 -41 99q0 10 1 20z" />
<glyph unicode="k" horiz-adv-x="1142" d="M2 18l354 1407q4 20 21 21h280q16 0 17 -21l-111 -421q-16 -61 -37.5 -134t-46 -150t-51.5 -151.5t-51 -140.5q78 154 165 265.5t175 184t170 107.5t149 35q82 0 117 -37t35 -86q0 -39 -10.5 -74t-27.5 -62.5t-42 -44t-53 -16.5q-20 0 -34.5 6.5t-29 14.5t-29 14t-34.5 6 q-53 0 -125 -47t-135 -110q27 -27 57.5 -71t61 -96t61.5 -106.5t59.5 -102.5t52 -84t39.5 -48q14 -12 15 -31q0 -45 -39 -45h-291q-14 0 -20 12q-23 37 -48.5 91.5t-51 109.5t-48 103.5t-41.5 74.5q-98 -121 -127 -246l-29 -127q-2 -6 -10 -12t-14 -6h-281q-13 0 -13 12 q0 2 1 6z" />
<glyph unicode="l" horiz-adv-x="555" d="M2 6q-2 3 -2 6t2 6l354 1407q4 20 21 21h280q6 0 12.5 -6t4.5 -15l-355 -1407q-4 -6 -11 -12t-13 -6h-281q-8 0 -12 6z" />
<glyph unicode="m" horiz-adv-x="1802" d="M8 18l178 707q27 106 34 176t9 80q2 6 9.5 11t13.5 5h233q12 0 13 -18q0 -14 -4.5 -43t-11.5 -64.5t-15 -71.5t-16 -67q82 147 200.5 221t237.5 74q86 0 144.5 -48t68.5 -155q2 -28 0 -61q35 59 81 108.5t100 85t112.5 56t115.5 20.5q109 0 175.5 -54t66.5 -169 q0 -61 -11 -121.5t-28 -128.5l-135 -543q-2 -6 -10 -12t-15 -6h-280q-6 0 -11.5 4t-0.5 14l137 555q10 39 15 71t5 56q0 47 -23.5 67.5t-66.5 20.5q-76 0 -152.5 -89t-119.5 -261l-103 -420q-2 -8 -10 -13t-14 -5h-283q-6 0 -11 4t-1 14l139 553q18 76 19 127q0 49 -24 71 t-62 22q-78 0 -156 -90.5t-121 -262.5l-102 -420q-2 -8 -10.5 -13t-14.5 -5h-283q-6 0 -11 4q-3 2 -3 6t2 8z" />
<glyph unicode="n" horiz-adv-x="1208" d="M8 18l178 707q27 106 34 176t9 80q2 6 9.5 11t13.5 5h233q12 0 13 -18q0 -14 -4.5 -42t-10.5 -61.5t-13 -69.5t-15 -67q37 70 89 125.5t111.5 93t125 57t128.5 19.5q51 0 97.5 -13t80 -42t53 -72t19.5 -102q0 -49 -5 -93t-19 -100l-150 -594q-2 -6 -10 -12t-14 -6h-281 q-6 0 -11 4t-1 14l135 549q10 35 17 70t7 63q0 45 -25.5 66.5t-68.5 21.5q-88 0 -174 -91t-129 -259l-102 -420q-2 -6 -10.5 -12t-14.5 -6h-283q-6 0 -11 4q-3 2 -3 6t2 8z" />
<glyph unicode="o" horiz-adv-x="1169" d="M49 360q0 111 43 230t128 218t210 162.5t289 63.5q104 0 182 -30.5t128 -84t75.5 -124t25.5 -148.5q0 -111 -41.5 -229.5t-124.5 -218t-208 -163t-289 -63.5q-106 0 -184 32t-130.5 85t-78 123t-25.5 147zM371 346q0 -72 34.5 -109.5t104.5 -37.5q74 0 130 48t93 118.5 t56.5 149.5t19.5 140q0 152 -131 152q-76 0 -133.5 -48t-96 -118t-58 -150.5t-19.5 -144.5z" />
<glyph unicode="p" horiz-adv-x="1216" d="M-98 -399l282 1124q29 111 35 176.5t10 77.5q2 18 23 18h235q12 0 13 -18q0 -25 -10.5 -89.5t-26.5 -127.5q61 139 164.5 205.5t226.5 66.5q141 0 228 -93t87 -257q0 -119 -39.5 -245t-114.5 -229.5t-181.5 -170t-237.5 -66.5q-123 0 -181.5 67t-60.5 165 q-27 -147 -62.5 -302t-72.5 -302q-2 -8 -10 -14.5t-14 -6.5h-281q-13 0 -13 13q0 4 1 8zM414 328q0 -68 37.5 -100.5t107.5 -32.5q72 0 126 53t90 128t53.5 153.5t17.5 129.5q0 72 -35 111t-100 39q-80 0 -153 -67.5t-112 -221.5l-14 -61q-10 -39 -14 -71t-4 -60z" />
<glyph unicode="q" horiz-adv-x="1220" d="M55 326q0 119 40 244.5t115 228t181.5 169t239.5 66.5q61 0 109 -21.5t82 -57t51.5 -81t17.5 -94.5q10 57 27.5 112.5t27.5 84.5q4 20 21 20h247q16 0 17 -16q-6 -23 -29.5 -84t-46.5 -156l-287 -1140q-4 -20 -24 -21h-283q-16 0 -12 21q41 156 95 321.5t116 319.5 q-82 -152 -182.5 -210.5t-206.5 -58.5q-141 0 -228.5 94.5t-87.5 258.5zM379 348q0 -149 135 -149h2q78 0 150.5 64.5t111.5 217.5l17 62q10 37 13 69.5t3 61.5q0 139 -141 139q-72 0 -126.5 -53t-91 -128t-55 -154t-18.5 -130z" />
<glyph unicode="r" horiz-adv-x="870" d="M8 18l178 707q27 109 34 176.5t9 77.5q2 6 8.5 12t12.5 6h235q8 0 10.5 -6t2.5 -12q0 -20 -4.5 -51t-11.5 -68t-16 -76t-17 -75q72 154 177 238.5t214 84.5q72 0 107.5 -37t35.5 -94q0 -41 -13.5 -82t-36 -72.5t-54 -51t-68.5 -19.5q-35 0 -49 11t-24.5 25.5t-24 26 t-45.5 11.5q-31 0 -63 -14.5t-62.5 -49.5t-58 -91t-48.5 -138l-108 -439q-2 -6 -10.5 -12t-14.5 -6h-283q-6 0 -11 5q-3 3 -3 6t2 7z" />
<glyph unicode="s" horiz-adv-x="907" d="M-22 72q-1 4 -1 8q0 7 3 16l43 168q6 33 24 33q14 0 27 -14q39 -41 114.5 -68t153.5 -27q68 0 114 25t46 72q0 29 -28 50t-71 42.5t-91 46.5t-91 57.5t-70.5 76.5t-27.5 106q0 74 29.5 140t89 117.5t146.5 82t204 30.5q154 0 236.5 -43t82.5 -114q0 -66 -35.5 -110 t-89.5 -44q-29 0 -48 8t-36 23q-57 51 -151 51q-61 0 -94 -23.5t-33 -64.5q0 -29 27.5 -50.5t69.5 -44t91.5 -47t91 -58.5t69.5 -77t28 -102q0 -88 -35 -155.5t-98.5 -113.5t-150.5 -71t-193 -25q-129 0 -209 22.5t-127 63.5q-6 5 -10 13z" />
<glyph unicode="t" horiz-adv-x="751" d="M96 782l47 197q6 18 19 18q33 0 64.5 -3t60.5 -7q2 18 9 52t15 73t16.5 74.5t14.5 58.5q4 20 23 21h282q6 0 11.5 -6.5t0.5 -16.5q-8 -31 -18 -66.5t-20.5 -71.5t-21.5 -66.5t-19 -51.5q66 4 123 7t110 3q12 0 10 -18l-49 -197q-4 -16 -18 -16q-53 0 -112.5 3t-113.5 7 q-8 -53 -18 -106.5t-31 -134.5l-45 -183q-7 -30 -7 -53q1 -31 13 -49q22 -32 93 -31q43 0 83 21q33 14 23 -15l-49 -209q-4 -4 -10.5 -11t-14.5 -9q-47 -10 -91 -15.5t-81 -5.5q-169 -1 -245 101q-46 62 -46 158q0 62 19 139l41 166q18 74 35.5 130t40.5 107q-33 -4 -69 -7 t-67 -3q-9 0 -9 9q0 3 1 7z" />
<glyph unicode="u" horiz-adv-x="1210" d="M57 205q0 49 5.5 92t21.5 100l145 582q2 6 10.5 12t14.5 6h281q16 0 14 -18l-133 -537q-10 -35 -17.5 -70.5t-7.5 -64.5q0 -45 25.5 -65.5t68.5 -20.5q90 0 175 89t128 261l99 408q2 6 10 12t14 6h283q6 0 11 -4q3 -2 3 -6q0 -3 -2 -8l-178 -705q-27 -106 -35 -175.5 t-8 -80.5q-2 -6 -9 -12t-13 -6h-232q-12 0 -12 18t4 47t10 64t14.5 71.5t18.5 69.5q-39 -72 -91 -127t-112.5 -92t-126 -56.5t-129.5 -19.5q-51 0 -96 13.5t-79 42t-54.5 71.5t-20.5 103z" />
<glyph unicode="v" horiz-adv-x="1060" d="M94 969q-3 8 -3 13q0 15 22 15h2h286q16 0 23 -14q14 -57 25.5 -154.5t19.5 -207t9 -215.5v-29q0 -87 -5 -152q55 88 111.5 189.5t108.5 202t96.5 194.5t72.5 168q6 18 25 18h284q21 0 21 -14q0 -6 -4 -16q-117 -248 -272.5 -496t-313.5 -461q-4 -6 -13 -10t-16 -4h-335 q-16 0 -17 14q-4 82 -11 177.5t-16.5 191.5t-20.5 190.5t-24.5 173t-26.5 138t-28 88.5z" />
<glyph unicode="w" horiz-adv-x="1638" d="M93 990q7 7 20 7h274q20 0 23 -16q14 -66 23 -161q9 -94 14 -200q4 -86 3 -172v-38q-1 -104 -10 -181q49 84 95.5 177.5t89.5 190.5t83 194.5t74 187.5q6 18 27 18h250q25 0 26 -20q21 -171 29 -365q3 -58 2 -116q0 -135 -14 -267q49 90 100 189.5t98.5 198t87 191.5 t68.5 171q6 18 23 18h266q20 0 20 -14q0 -6 -4 -16q-55 -123 -120.5 -251t-137 -251t-146.5 -238.5t-149 -216.5q-10 -14 -26 -14h-320q-6 0 -11 4t-3 10q14 145 19 294t5 335q-72 -195 -149.5 -344.5t-169.5 -284.5q-10 -14 -27 -14h-319q-14 0 -14 14q-4 125 -12.5 271.5 t-21 283.5t-28.5 246t-37 156q-4 9 -4 15q0 5 3 8z" />
<glyph unicode="x" horiz-adv-x="1087" d="M-175 10q-1 2 -1 4q0 7 8 13q154 119 289 233.5t264 237.5q-66 125 -138.5 242.5t-148.5 230.5q-8 12 -1 19t18 7h301q14 0 28 -20q31 -47 73 -127t75 -160q55 70 116.5 141.5t125.5 145.5q14 20 36 20h308q8 0 13 -8q1 -2 1 -5q0 -6 -8 -13q-117 -123 -235.5 -241.5 t-239.5 -231.5q66 -115 129 -236t118 -235q6 -12 1 -19.5t-13 -7.5h-303q-20 0 -29 23q-31 70 -61.5 149.5t-50.5 140.5q-66 -74 -151 -153.5t-156 -139.5q-25 -20 -43 -20h-314q-8 0 -11 10z" />
<glyph unicode="y" horiz-adv-x="1060" d="M-264 -279q0 66 32.5 110t92.5 44q31 0 47 -9t30.5 -20.5t31 -20.5t44.5 -9q45 0 99.5 34.5t117.5 124.5q-6 86 -14 185.5t-19.5 201t-23.5 197.5t-25.5 178t-26.5 141.5t-26 88.5q-6 12 0 21t21 9h284q20 0 23 -16q10 -43 22.5 -134t19.5 -201.5t9 -227.5v-38 q0 -95 -8 -173q47 76 103.5 173t109.5 200.5t101 207t81 191.5q6 18 25 18h284q12 0 19 -6q2 -3 2 -8q0 -6 -4 -16q-59 -123 -135 -258.5t-161 -270.5t-174 -262t-175 -235q-160 -203 -301.5 -294t-286.5 -91q-100 0 -158.5 43t-60.5 122z" />
<glyph unicode="z" horiz-adv-x="972" d="M-84 37q0 16 5 25.5t16 19.5l501 534q39 41 77 78t77 70q-45 -2 -99.5 -3t-115.5 -1q-86 0 -142.5 -2t-91.5 -2q-10 0 -13 7t1 15l72 203q8 16 24 16h828q26 0 26 -33q0 -20 -22 -44l-486 -523q-41 -43 -80.5 -85t-84.5 -83q53 4 109 5.5t128 1.5q68 0 126 2t91 2 q12 0 14.5 -8.5t-2.5 -16.5l-69 -197q-6 -18 -29 -18h-831q-27 0 -29 37z" />
<glyph unicode="{" horiz-adv-x="874" d="M80 472.5q2 23.5 8 51.5q6 29 16.5 49.5t26.5 20.5q102 0 148.5 40t68.5 134q18 72 26.5 142.5t31.5 158.5q20 86 75.5 165t144.5 140.5t210.5 98t277.5 36.5q6 0 11 -6t3 -14l-41 -164q-4 -6 -11 -12t-13 -6q-88 0 -148.5 -18.5t-99.5 -49.5t-60.5 -71t-31.5 -83 q-23 -86 -33 -157.5t-26 -139.5q-23 -92 -88.5 -164.5t-167.5 -95.5q88 -35 116.5 -109.5t5.5 -166.5q-8 -35 -17 -60.5t-18.5 -51t-18.5 -52.5t-17 -63q-14 -57 -18.5 -106.5t16 -86.5t71 -58.5t144.5 -21.5q6 0 11 -6t3 -14l-43 -166q-2 -6 -9 -12.5t-13 -6.5 q-156 0 -260.5 35t-164 93.5t-76 135t6.5 162.5q29 111 56.5 182.5t43.5 131.5q23 94 -5.5 128t-127.5 34q-16 0 -14 23.5z" />
<glyph unicode="|" horiz-adv-x="851" d="M43 -401l487 1949q4 20 23 21h285q6 0 11 -6.5t3 -14.5l-487 -1949q-2 -6 -10.5 -12.5t-14.5 -6.5h-283q-8 0 -12 6t-2 13z" />
<glyph unicode="}" horiz-adv-x="872" d="M-231 -432l38 164q4 6 11.5 12t13.5 6q88 0 148.5 18.5t99.5 49t60.5 70.5t31.5 81q23 88 34 160t27 139q23 92 86.5 165t167.5 95q-88 35 -115.5 110t-4.5 167q8 33 17 59.5t18.5 52t17.5 53t18 64.5q14 55 17.5 105.5t-17 87.5t-72 58.5t-143.5 21.5q-6 0 -11 6t-1 14 l41 164q4 6 10 12t12 6q156 0 260.5 -34.5t163 -93t73.5 -135.5t-5 -163q-29 -109 -54.5 -180.5t-41.5 -130.5q-25 -94 2.5 -129t126.5 -35q16 0 14 -23.5t-8 -52.5q-8 -29 -17.5 -50t-25.5 -21q-100 0 -146.5 -38t-70.5 -134q-16 -72 -24.5 -141.5t-31.5 -159.5 q-23 -86 -77 -165t-143 -140.5t-210.5 -98.5t-277.5 -37q-6 0 -11.5 6.5t-0.5 14.5z" />
<glyph unicode="~" horiz-adv-x="1026" d="M129 698q14 63 47 117.5t80 95.5t108.5 64.5t137.5 23.5q74 0 117 -21.5t72.5 -47t56 -47t69.5 -21.5q41 0 84 32t57 85q6 23 31 22q6 0 20.5 -1t30 -4t26.5 -8t9 -13q-16 -70 -49 -127t-78 -99t-100.5 -64.5t-116.5 -22.5q-59 0 -101 23.5t-78 52t-69.5 52t-79.5 23.5 q-53 0 -94 -37t-51 -78q-8 -27 -41 -26q-10 0 -26.5 2t-31 5t-23.5 8t-7 11z" />
<glyph unicode="&#xa2;" horiz-adv-x="983" d="M154 670q0 111 39.5 221t114.5 202.5t182.5 158t244.5 85.5l68 254q8 20 22 21h150q6 0 11 -6.5t3 -14.5l-65 -250q84 -12 138 -50t54 -107q0 -33 -12 -62.5t-32.5 -51t-47.5 -34t-55 -12.5q-29 0 -45.5 7t-32.5 18q-20 16 -46 25t-65 9q-72 0 -129 -31.5t-98 -81.5 t-62.5 -113.5t-21.5 -125.5q0 -80 50 -139.5t157 -59.5q125 0 223 76q6 6 11 7t10 1q8 0 14 -7t2 -25l-41 -166q-6 -27 -15.5 -37t-23.5 -21q-41 -27 -85 -44t-109 -25l-68 -273q-4 -6 -11.5 -12t-13.5 -6h-149q-8 0 -12.5 6t0.5 12l73 275q-82 12 -143.5 47t-102 86 t-61 113.5t-20.5 130.5z" />
<glyph unicode="&#xa3;" horiz-adv-x="1230" d="M76 18l92 375q8 31 18.5 67t19.5 68.5t18 60t18 46.5q-31 -4 -69 -7t-69 -3q-10 0 -10 16l51 197q2 18 17 18q33 0 70.5 -2t72.5 -8q12 84 27 145l16 64q23 88 74 166.5t130 138t187.5 93.5t243.5 34q80 0 138.5 -10.5t101.5 -28.5t72.5 -45t50.5 -60q27 -39 22 -81 q0 -35 -15.5 -70t-42 -61.5t-61.5 -43t-75 -16.5q-59 0 -87 51q-10 18 -21 37t-29.5 33t-47 22.5t-74.5 8.5q-111 0 -173 -56.5t-91 -160.5l-18 -74q-6 -23 -12.5 -44.5t-14.5 -41.5q18 2 46 4t58.5 3t61.5 2t57 1q16 0 11 -20l-52 -195q-4 -16 -18 -16q-53 0 -117.5 3 t-105.5 7q-4 -35 -13.5 -86t-23.5 -100q-10 -47 -22.5 -89.5t-26.5 -89.5q43 2 91 3t94 2t88 1h71q53 0 113.5 2.5t152.5 2.5q6 0 10 -4.5t0 -14.5l-92 -246q-4 -16 -22 -16h-879q-8 0 -11 6t-1 12z" />
<glyph unicode="&#xa5;" horiz-adv-x="1388" d="M164 670l45 178q2 10 10 14t17 4h92t104 -2l-239 547q-6 16 2 25.5t18 9.5h330q23 0 32 -31l78 -170q31 -86 64 -206.5t51 -231.5q72 115 151.5 220.5t182.5 215.5l174 182q18 20 45 21h326q8 0 16 -7t-8 -28l-512 -547q47 2 94 2h82q8 0 15 -4t5 -14l-43 -178 q-2 -4 -12 -10.5t-18 -6.5h-152t-156 4l-67 -71l-23 -88q70 2 136.5 2h134.5q16 0 12 -21l-43 -172q-2 -6 -9 -13t-14 -7q-66 0 -136 2t-138 6q-6 -39 -14.5 -79t-18.5 -79l-30 -119q-2 -6 -8.5 -12t-12.5 -6h-305q-8 0 -12 6t-2 12l32 136q18 70 45 141q-76 -4 -149.5 -6 t-145.5 -2q-10 0 -15 7t-3 13l45 172q4 20 27 21h142.5t141.5 -2l23 88l-31 71q-84 -4 -173 -4h-165q-10 0 -15 6.5t-3 10.5z" />
<glyph unicode="&#xa8;" horiz-adv-x="1001" d="M358 1268q6 55 51.5 96t98.5 41q57 0 93 -41t32 -96t-48 -95t-102 -40q-53 0 -91 39.5t-34 95.5zM760 1268q6 55 49 96t100 41q55 0 92 -41t31 -96q-4 -55 -48 -95t-99 -40q-57 0 -93 39.5t-32 95.5z" />
<glyph unicode="&#xa9;" horiz-adv-x="1718" d="M153.5 438.5q-24.5 141.5 16.5 302.5q39 156 134 293t224 238.5t282 161t306 59.5q160 0 283 -60.5t197.5 -167t96 -250t-19.5 -308.5q-37 -152 -128 -286t-217 -234.5t-278.5 -160t-312.5 -59.5q-158 0 -281.5 60.5t-200.5 165t-101.5 246zM361.5 502.5 q17.5 -101.5 72.5 -178t144.5 -120.5t205.5 -44q115 0 226.5 46t205 124t161 181t98.5 220q29 117 14.5 220.5t-68 180t-142.5 121.5t-208 45q-115 0 -226.5 -45t-206.5 -122.5t-165 -183t-100 -226.5q-29 -117 -11.5 -218.5zM490.5 549q-9.5 80 13.5 170q20 84 71.5 167 t125 148.5t167 106.5t201.5 41q86 0 136 -18.5t77 -47.5q14 -16 18.5 -34.5t-2.5 -47.5q-14 -55 -54 -100t-91 -45q-25 0 -47 22q-31 29 -90 29q-90 0 -151.5 -60.5t-86.5 -160.5q-27 -104 15.5 -159.5t142.5 -55.5q111 0 192 63q14 10 21 11q10 0 14 -9.5t0 -19.5l-39 -154 q-4 -14 -13 -24.5t-19 -18.5q-45 -29 -109.5 -51t-153.5 -22q-104 0 -175.5 35.5t-112.5 95t-50.5 139.5z" />
<glyph unicode="&#xab;" horiz-adv-x="1427" d="M85 455.5q-3 13.5 7 52.5t16.5 50t20.5 20l684 409q35 18 25 -14l-29 -123q-4 -12 -10 -21.5t-23 -23.5l-362 -283l215 -313q10 -12 10 -20.5t-2 -18.5l-33 -133q-4 -10 -13 -13.5t-16 1.5l-481 413q-6 4 -9 17.5zM709 455.5q-2 13.5 6 52.5q10 39 17 50t22 20l684 409 q31 18 24 -14l-30 -123q-4 -12 -9.5 -21.5t-21.5 -23.5l-361 -283l211 -313q10 -12 11.5 -20.5t-0.5 -18.5l-35 -133q-2 -10 -12.5 -13.5t-16.5 1.5l-479 413q-8 4 -10 17.5z" />
<glyph unicode="&#xad;" horiz-adv-x="686" d="M78 438l57 236q4 20 25 20h465q16 0 12 -20l-59 -236q-2 -6 -10.5 -12t-14.5 -6h-463q-8 0 -11 6t-1 12z" />
<glyph unicode="&#xae;" horiz-adv-x="989" d="M211 937q-14 75 8 165q20 86 72.5 158.5t123 125t157 82t176.5 29.5q96 0 167.5 -29.5t114.5 -84t55.5 -129t-10.5 -164.5q-20 -86 -70.5 -158t-120 -124t-154.5 -81t-173 -29q-96 0 -169 29t-118 82t-59 128zM365 1092q-31 -123 19 -203t179 -80q72 0 126 10t108 43h-78 q-39 0 -43 23q-10 18 -18.5 44.5t-15.5 52.5t-15.5 43t-18.5 17h-12l-43 -174q-6 -6 -8 -6h-103q-10 0 -19 8.5t-5 22.5l110 432q6 14 19 14h166q94 0 131 -37.5t22 -95.5q-16 -61 -64 -91t-145 -30q53 -6 81 -29.5t45.5 -52t28.5 -55t34 -41.5q35 41 55.5 88t30.5 101 q35 129 -20.5 209.5t-188.5 80.5q-80 0 -140.5 -22.5t-103.5 -62t-70.5 -94t-43.5 -115.5zM618 1126h19q39 0 56.5 18.5t25.5 53.5q10 37 2 53.5t-47 16.5h-21z" />
<glyph unicode="&#xb4;" horiz-adv-x="851" d="M335 1120.5q-3 12.5 7 22.5l301 282q6 6 17.5 13.5t21.5 7.5h233q10 0 12.5 -10.5t-7.5 -18.5l-379 -284q-35 -25 -62 -25h-125q-16 0 -19 12.5z" />
<glyph unicode="&#xb8;" horiz-adv-x="776" d="M-80 -479l27 102q0 14 16 10q25 -10 49.5 -13t48.5 -3q47 0 82 22.5t45 69.5q23 86 -57 86q-35 0 -47 -10t-29 -10q-10 0 -17 18.5t-3 30.5q4 8 8 10l238 166h129l-164 -119h20q98 0 132 -52t18 -122q-10 -41 -37 -80t-67 -71.5t-92 -52t-116 -19.5q-61 0 -100 4t-76 14 q-12 2 -8 19z" />
<glyph unicode="&#xbb;" horiz-adv-x="1425" d="M-23 43l29 123q4 12 9 21.5t24 23.5l358 283l-213 313q-10 12 -10 20.5t4 18.5l33 133q4 10 12 13t15 -1l483 -413q6 -4 8 -17.5t-8 -52.5t-16.5 -50.5t-18.5 -19.5l-684 -409q-35 -18 -25 14zM600 43l31 123q4 12 9 21.5t22 23.5l360 283l-213 313q-10 12 -11 20.5 t3 18.5l35 133q4 10 13 13t15 -1l482 -413q6 -4 7 -17.5t-10 -52.5q-10 -39 -16 -50.5t-18 -19.5l-684 -409q-14 -8 -21.5 -4t-3.5 18z" />
<glyph unicode="&#xc1;" horiz-adv-x="1435" d="M-109 33l834 1394q4 6 11 12.5t14 6.5h405q16 0 21 -19l145 -1394q2 -12 -4 -22.5t-23 -10.5h-325q-14 0 -19 20q-8 74 -13 148.5t-3 142.5q-66 -4 -131.5 -5t-126.5 -1q-121 0 -258 6q-29 -66 -73 -143.5t-87 -147.5q-4 -8 -12 -14t-15 -6h-329q-31 0 -11 33zM547 537 q49 4 101 5t95 1h87.5t84.5 -4q-6 43 -12 111t-10 134q-4 106 -2 215t10 213q-43 -104 -98 -214.5t-109 -209.5q-37 -68 -78 -136t-69 -115zM765 1548q-1 6 7 13l301 288q6 4 16.5 11.5t18.5 7.5h233q8 0 8.5 -10.5t-8.5 -16.5l-378 -282q-4 -4 -15.5 -10.5t-17.5 -6.5h-150 q-14 0 -15 6z" />
<glyph unicode="&#xc9;" horiz-adv-x="1273" d="M59 18l353 1407q4 20 22 21h948q14 0 13 -19l-29 -243q-4 -16 -18 -17q-47 0 -99.5 1t-105.5 1t-103.5 1t-89.5 1q-78 0 -140 2.5t-108 6.5q-6 -41 -13 -84t-17 -80q-10 -41 -21.5 -80t-27.5 -78q98 12 251 12q57 0 109.5 2t108.5 2q16 0 10 -18l-60 -235q-4 -16 -18 -17 q-53 0 -102.5 2t-112.5 2q-135 0 -246 13q-12 -86 -33 -170q-25 -98 -55 -185q39 2 74 4t68.5 3t70.5 1h82q98 0 195.5 2.5t189.5 2.5q16 0 10 -19l-96 -244q-6 -16 -18 -16h-977q-8 0 -12.5 6t-2.5 12zM740.5 1548q-1.5 6 7.5 13l301 288q6 4 16 11.5t18 7.5h234 q8 0 8 -10.5t-8 -16.5l-379 -282q-4 -4 -15.5 -10.5t-17.5 -6.5h-149q-14 0 -15.5 6z" />
<glyph unicode="&#xcd;" horiz-adv-x="710" d="M59 18l353 1407q4 20 22 21h326q6 0 11 -6t3 -15l-352 -1407q-2 -6 -9 -12t-14 -6h-325q-8 0 -12.5 6t-2.5 12zM415 1548q-1 6 7 13l301 288q6 4 16.5 11.5t18.5 7.5h233q8 0 8 -10.5t-8 -16.5l-379 -282q-4 -4 -15 -10.5t-17 -6.5h-150q-14 0 -15 6z" />
<glyph unicode="&#xd3;" horiz-adv-x="1724" d="M143 520q0 113 29 227.5t85 223t138 204t187.5 166t234.5 111.5t279 41q141 0 253.5 -40t191.5 -111.5t120 -169t41 -214.5q0 -106 -28.5 -221.5t-84 -224.5t-137.5 -207t-187.5 -172t-234.5 -117t-278 -43q-143 0 -256 41t-192 114t-120 173t-41 219zM541 547 q0 -141 66.5 -211t195.5 -70q82 0 150.5 31t125 83t99.5 119.5t71.5 141.5t44 148.5t15.5 142.5q0 131 -62.5 199.5t-210.5 68.5q-88 0 -157.5 -31.5t-125 -85t-95.5 -121t-66.5 -140t-38.5 -144.5t-12 -131zM888 1548q-1 6 7 13l301 288q6 4 16.5 11.5t18.5 7.5h233 q8 0 8.5 -10.5t-8.5 -16.5l-379 -282q-4 -4 -15 -10.5t-17 -6.5h-150q-14 0 -15 6z" />
<glyph unicode="&#xda;" horiz-adv-x="1615" d="M152.5 266q-29.5 96 1.5 223l233 936q4 20 23 21h329q6 0 11.5 -6t3.5 -15l-222 -880q-29 -121 37 -183.5t189 -62.5q135 0 235.5 61.5t130.5 182.5l222 882q4 20 22 21h320q6 0 11 -6t3 -15l-234 -931q-31 -121 -105.5 -217.5t-179 -164t-232.5 -103.5t-263 -36 q-131 0 -242.5 34t-187.5 98.5t-105.5 160.5zM859 1548q-1 6 7 13l301 288q6 4 16.5 11.5t18.5 7.5h234q8 0 8 -10.5t-8 -16.5l-379 -282q-4 -4 -15.5 -10.5t-17.5 -6.5h-150q-14 0 -15 6z" />
<glyph unicode="&#xdd;" horiz-adv-x="1486" d="M177 1433.5q5 12.5 24 12.5h356q25 0 35 -27l106 -237q41 -92 67 -178t38 -173q61 92 128.5 175.5t149.5 164.5l242 246q16 16 26.5 22.5t26.5 6.5h348q16 0 19.5 -10.5t-10.5 -24.5l-803 -825l-144 -568q-2 -6 -9 -12t-13 -6h-326q-8 0 -12 6t-2 12l143 568l-389 825 q-6 10 -1 22.5zM808 1548q-1 6 7 13l301 288q6 4 16.5 11.5t18.5 7.5h233q8 0 8.5 -10.5t-8.5 -16.5l-378 -282q-4 -4 -15.5 -10.5t-17.5 -6.5h-150q-14 0 -15 6z" />
<glyph unicode="&#xe1;" horiz-adv-x="1218" d="M55 330q0 119 40 243.5t115 227t181.5 168t239.5 65.5q121 0 180 -69.5t61 -169.5l39 182q2 10 9.5 15t13.5 5h268q6 0 12.5 -5t2.5 -15l-179 -703q-29 -111 -33 -177.5t-6 -78.5q-6 -18 -24 -18h-238q-12 0 -12 18q0 12 3 40t8 60t12.5 65.5t13.5 58.5q-33 -74 -78 -124 t-97 -83t-107.5 -47.5t-108.5 -14.5q-72 0 -129.5 26t-99.5 72t-64.5 111.5t-22.5 147.5zM379 350q0 -72 36 -111.5t101 -39.5q78 0 150.5 64.5t111.5 217.5l17 62q10 37 13 69.5t3 61.5q0 139 -145 139q-72 0 -125.5 -53t-89 -127t-54 -153t-18.5 -130zM593 1120.5 q-3 12.5 7 22.5l301 282q6 6 17.5 13.5t21.5 7.5h234q10 0 12 -10.5t-8 -18.5l-379 -284q-35 -25 -62 -25h-125q-16 0 -19 12.5z" />
<glyph unicode="&#xe9;" horiz-adv-x="1032" d="M57 365q0 123 48.5 242.5t137.5 215t215 153.5t283 58q158 0 234 -67.5t76 -159.5q0 -76 -38 -141.5t-120 -113.5t-213 -77t-315 -29q-8 -33 -9 -73q0 -63 49.5 -107.5t153.5 -44.5q78 0 151.5 23.5t118.5 60.5q14 12 27 12q8 0 14.5 -7t1.5 -23l-43 -172q-8 -23 -14 -34 t-18 -22q-45 -37 -132 -61.5t-198 -24.5q-102 0 -179 31t-128 85t-77 125t-26 151zM406 618q98 2 168.5 15.5t114.5 35t65.5 48t21.5 55.5q0 63 -80 64q-96 0 -172.5 -60t-117.5 -158zM552 1120.5q-3 12.5 7 22.5l301 282q6 6 17.5 13.5t21.5 7.5h234q10 0 12 -10.5 t-8 -18.5l-379 -284q-35 -25 -62 -25h-125q-16 0 -19 12.5z" />
<glyph unicode="&#xed;" horiz-adv-x="555" d="M2 6q-4 6 0 12l240 959q4 20 22 20h283q16 0 12 -20l-240 -959q-4 -6 -11 -12t-13 -6h-281q-8 0 -12 6zM210 1120.5q-3 12.5 7 22.5l301 282q6 6 17.5 13.5t21.5 7.5h234q10 0 12 -10.5t-8 -18.5l-379 -284q-35 -25 -62 -25h-125q-16 0 -19 12.5z" />
<glyph unicode="&#xf3;" horiz-adv-x="1169" d="M49 360q0 111 43 230t128 218t210 162.5t289 63.5q104 0 182 -30.5t128 -84t75.5 -124t25.5 -148.5q0 -111 -41.5 -229.5t-124.5 -218t-208 -163t-289 -63.5q-106 0 -184 32t-130.5 85t-78 123t-25.5 147zM371 346q0 -72 34.5 -109.5t104.5 -37.5q74 0 130 48t93 118.5 t56.5 149.5t19.5 140q0 152 -131 152q-76 0 -133.5 -48t-96 -118t-58 -150.5t-19.5 -144.5zM542 1120.5q-3 12.5 7 22.5l301 282q6 6 17.5 13.5t21.5 7.5h233q10 0 12.5 -10.5t-8.5 -18.5l-378 -284q-35 -25 -62 -25h-125q-16 0 -19 12.5z" />
<glyph unicode="&#xfa;" horiz-adv-x="1210" d="M57 205q0 49 5.5 92t21.5 100l145 582q2 6 10.5 12t14.5 6h281q16 0 14 -18l-133 -537q-10 -35 -17.5 -70.5t-7.5 -64.5q0 -45 25.5 -65.5t68.5 -20.5q90 0 175 89t128 261l99 408q2 6 10 12t14 6h283q6 0 11 -4t1 -14l-178 -705q-27 -106 -35 -175.5t-8 -80.5 q-2 -6 -9 -12t-13 -6h-232q-12 0 -12 18t4 47t10 64t14.5 71.5t18.5 69.5q-39 -72 -91 -127t-112.5 -92t-126 -56.5t-129.5 -19.5q-51 0 -96 13.5t-79 42t-54.5 71.5t-20.5 103zM556 1120.5q-3 12.5 7 22.5l301 282q6 6 17.5 13.5t21.5 7.5h234q10 0 12 -10.5t-8 -18.5 l-379 -284q-35 -25 -62 -25h-125q-16 0 -19 12.5z" />
<glyph unicode="&#xfd;" horiz-adv-x="1060" d="M-264 -279q0 66 32.5 110t92.5 44q31 0 47 -9t30.5 -20.5t31 -20.5t44.5 -9q45 0 99.5 34.5t117.5 124.5q-6 86 -14 185.5t-19.5 201t-23.5 197.5t-25.5 178t-26.5 141.5t-26 88.5q-6 12 0 21t21 9h284q20 0 23 -16q10 -43 22.5 -134t19.5 -201.5t9 -227.5t-8 -211 q47 76 103.5 173t109.5 200.5t101 207t81 191.5q6 18 25 18h284q12 0 18.5 -6t-1.5 -24q-59 -123 -135 -258.5t-161 -270.5t-174 -262t-175 -235q-160 -203 -301.5 -294t-286.5 -91q-100 0 -158.5 43t-60.5 122zM482.5 1120.5q-3.5 12.5 6.5 22.5l302 282q6 6 17 13.5 t21 7.5h234q10 0 12 -10.5t-8 -18.5l-379 -284q-35 -25 -61 -25h-125q-16 0 -19.5 12.5z" />
<glyph unicode="&#x10c;" horiz-adv-x="1394" d="M137 524q0 96 28 206t83 217.5t138 205.5t195.5 174t252 121t309.5 45q119 0 213 -25.5t153 -70.5q14 -10 20.5 -23.5t-3.5 -48.5l-62 -242q-10 -39 -45 -39q-16 0 -24 13q-63 55 -146.5 89t-177.5 34q-143 0 -245.5 -59.5t-169 -149.5t-97.5 -196.5t-31 -203.5 q0 -147 80 -227t232 -80q100 0 194 25.5t185 83.5q10 4 18 8t14 4q12 0 21.5 -10t5.5 -31l-49 -199q-8 -33 -19.5 -46t-33.5 -25q-66 -37 -176.5 -69t-272.5 -32q-154 0 -265.5 44t-184 119t-106.5 175.5t-34 212.5zM825 1849q-2 6 1 12.5t14 6.5h147q14 0 31 -17l123 -139 l186 139q25 16 45 17h152q8 0 8 -6.5t-4 -10.5l-330 -290q-8 -6 -18.5 -12.5t-20.5 -6.5h-117q-20 0 -34 19z" />
<glyph unicode="&#x10d;" horiz-adv-x="950" d="M55 365q0 117 46 235.5t134.5 214.5t216.5 157.5t291 61.5q117 0 195 -39t78 -123q0 -33 -11.5 -62.5t-32 -51t-46 -34.5t-54.5 -13t-46 8t-33 18q-20 16 -46 25.5t-65 9.5q-72 0 -129 -31.5t-98 -82t-62.5 -114t-21.5 -124.5q0 -80 50 -139.5t157 -59.5q133 0 223 76 q10 8 20 8q8 0 14.5 -7t2.5 -26l-41 -168q-6 -25 -15.5 -35t-23.5 -20q-47 -33 -111.5 -54.5t-163.5 -21.5q-109 0 -188.5 32t-132.5 86t-80 125t-27 149zM457 1427q-4 4 0 11.5t14 7.5h150q14 0 32 -19l117 -145l191 145q14 10 25 14.5t18 4.5h159q8 0 9.5 -7t-5.5 -16 l-327 -295q-8 -8 -20.5 -14t-22.5 -6h-123q-10 0 -21.5 7t-15.5 13z" />
<glyph unicode="&#x10e;" horiz-adv-x="1648" d="M59 18l355 1407q4 20 20 21h570q305 0 467.5 -134t162.5 -397q0 -168 -62.5 -331.5t-184 -293.5t-300 -210t-411.5 -80h-604q-6 0 -11.5 4t-1.5 14zM477 276q66 4 112 6.5t107 2.5q143 0 247 54t170.5 140t98 189.5t31.5 201.5q0 133 -81 212t-263 79q-45 0 -99.5 1 t-99.5 5q-6 -55 -18 -108t-29 -119l-90 -354q-29 -111 -47 -180.5t-39 -129.5zM655 1849q-2 6 1 12.5t14 6.5h147q14 0 31 -17l123 -139l186 139q25 16 45 17h152q8 0 8 -6.5t-4 -10.5l-330 -290q-8 -6 -18.5 -12.5t-20.5 -6.5h-117q-20 0 -34 19z" />
<glyph unicode="&#x10f;" d="M55 330q0 119 40 243.5t115 227t181.5 168t239.5 65.5q123 0 181 -67.5t58 -171.5q29 162 67 322.5t77 307.5q4 20 20 21h281q20 0 16 -21l-293 -1151q-29 -111 -33 -177t-6 -79q-6 -18 -24 -18h-238q-16 0 -12 18q0 12 3 39t8 60t12.5 66.5t13.5 58.5q-33 -72 -78 -123 t-97 -83t-107.5 -47.5t-108.5 -15.5q-72 0 -129.5 26t-99.5 72t-64.5 111.5t-22.5 147.5zM379 348q0 -150 137 -149q78 0 150.5 64.5t111.5 217.5l17 62q10 37 13 69.5t3 61.5q0 139 -145 139q-72 0 -125.5 -53t-89 -128t-54 -154t-18.5 -130zM1380 1087l86 338q4 20 25 21 h190q33 0 13 -37l-154 -322q-4 -6 -12 -12t-15 -6h-120q-8 0 -11.5 6t-1.5 12z" />
<glyph unicode="&#x11a;" horiz-adv-x="1273" d="M59 18l353 1407q4 20 22 21h948q14 0 13 -19l-29 -243q-4 -16 -18 -17q-47 0 -99.5 1t-105.5 1t-103.5 1t-89.5 1q-78 0 -140 2.5t-108 6.5q-6 -41 -13 -84t-17 -80q-10 -41 -21.5 -80t-27.5 -78q98 12 251 12q57 0 109.5 2t108.5 2q16 0 10 -18l-60 -235q-4 -16 -18 -17 q-53 0 -102.5 2t-112.5 2q-135 0 -246 13q-12 -86 -33 -170q-25 -98 -55 -185q39 2 74 4t68.5 3t70.5 1h82q98 0 195.5 2.5t189.5 2.5q16 0 10 -19l-96 -244q-6 -16 -18 -16h-977q-8 0 -12.5 6t-2.5 12zM629 1849q-2 6 1 12.5t13 6.5h148q14 0 30 -17l123 -139l186 139 q25 16 46 17h151q8 0 8 -6.5t-4 -10.5l-330 -290q-8 -6 -18 -12.5t-20 -6.5h-117q-20 0 -35 19z" />
<glyph unicode="&#x11b;" horiz-adv-x="1032" d="M57 365q0 123 48.5 242.5t137.5 215t215 153.5t283 58q158 0 234 -67.5t76 -159.5q0 -76 -38 -141.5t-120 -113.5t-213 -77t-315 -29q-8 -33 -9 -73q0 -63 49.5 -107.5t153.5 -44.5q78 0 151.5 23.5t118.5 60.5q14 12 27 12q8 0 14.5 -7t1.5 -23l-43 -172q-8 -23 -14 -34 t-18 -22q-45 -37 -132 -61.5t-198 -24.5q-102 0 -179 31t-128 85t-77 125t-26 151zM406 618q98 2 168.5 15.5t114.5 35t65.5 48t21.5 55.5q0 63 -80 64q-96 0 -172.5 -60t-117.5 -158zM465 1427q-4 4 0 11.5t14 7.5h150q14 0 33 -19l116 -145l191 145q14 10 25.5 14.5 t17.5 4.5h159q8 0 9.5 -7t-4.5 -16l-328 -295q-8 -8 -20.5 -14t-22.5 -6h-123q-10 0 -21.5 7t-15.5 13z" />
<glyph unicode="&#x147;" horiz-adv-x="1687" d="M59 18l353 1407q4 20 22 21h461q8 0 16.5 -5t10.5 -16l165 -698q25 -104 40.5 -222t17.5 -249q14 92 28.5 164t26.5 133t25.5 117.5t29.5 117.5l158 637q4 20 23 21h297q6 0 11 -6t3 -15l-352 -1407q-2 -6 -9.5 -12t-13.5 -6h-436q-16 0 -21 16l-180 772 q-14 59 -24.5 111.5t-17.5 104t-12 102.5t-7 108q-23 -133 -46.5 -248.5t-52.5 -226.5l-180 -721q-2 -6 -9 -12t-13 -6h-299q-8 0 -12.5 6t-2.5 12zM817 1849q-2 6 1 12.5t13 6.5h148q14 0 31 -17l123 -139l186 139q25 16 45 17h152q8 0 8 -6.5t-4 -10.5l-330 -290 q-8 -6 -18.5 -12.5t-20.5 -6.5h-117q-20 0 -35 19z" />
<glyph unicode="&#x148;" horiz-adv-x="1208" d="M8 18l178 707q27 106 34 176t9 80q2 6 9.5 11t13.5 5h233q12 0 13 -18q0 -14 -4.5 -42t-10.5 -61.5t-13 -69.5t-15 -67q37 70 89 125.5t111.5 93t125 57t128.5 19.5q51 0 97.5 -13t80 -42t53 -72t19.5 -102q0 -49 -5 -93t-19 -100l-150 -594q-2 -6 -10 -12t-14 -6h-281 q-6 0 -11 4t-1 14l135 549q10 35 17 70t7 63q0 45 -25.5 66.5t-68.5 21.5q-88 0 -174 -91t-129 -259l-102 -420q-2 -6 -10.5 -12t-14.5 -6h-283q-6 0 -11 4t-1 14zM446 1427q-4 4 0.5 11.5t14.5 7.5h149q14 0 33 -19l117 -145l190 145q14 10 25.5 14.5t17.5 4.5h160 q8 0 9 -7t-5 -16l-328 -295q-8 -8 -20 -14t-23 -6h-122q-10 0 -21.5 7t-15.5 13z" />
<glyph unicode="&#x158;" horiz-adv-x="1478" d="M59 18l351 1401q8 27 22 27h539q119 0 206 -25.5t143 -68.5t83 -102.5t27 -127.5q0 -92 -31 -178t-92.5 -155.5t-154.5 -117.5t-218 -65q27 -8 57.5 -32.5t62 -59.5t63.5 -78t63 -90q45 -72 77.5 -119t54 -77.5t36 -46t24.5 -21.5q18 -10 19 -29q0 -23 -8.5 -38 t-26.5 -15h-359q-29 0 -55.5 39t-60.5 113q-88 176 -149 274t-122 98h-32.5t-40.5 4q-10 -59 -27.5 -140t-34.5 -152l-53 -218q-2 -6 -10.5 -12t-14.5 -6h-325q-16 0 -13 18zM600 764q23 2 56.5 4t68.5 2q86 0 148.5 23.5t101.5 62.5t57.5 88t18.5 98q-1 140 -177 140 q-45 0 -89 2t-76 8q-8 -43 -21.5 -107.5t-28.5 -119.5q-12 -51 -27.5 -102.5t-31.5 -98.5zM606 1849q-2 6 1 12.5t14 6.5h147q14 0 31 -17l123 -139l186 139q25 16 45 17h152q8 0 8 -6.5t-4 -10.5l-330 -290q-8 -6 -18.5 -12.5t-20.5 -6.5h-117q-20 0 -35 19z" />
<glyph unicode="&#x159;" horiz-adv-x="870" d="M8 18l178 707q27 109 34 176.5t9 77.5q2 6 8.5 12t12.5 6h235q8 0 10.5 -6t2.5 -12q0 -20 -4.5 -51t-11.5 -68t-16 -76t-17 -75q72 154 177 238.5t214 84.5q72 0 107.5 -37t35.5 -94q0 -41 -13.5 -82t-36 -72.5t-54 -51t-68.5 -19.5q-35 0 -49 11t-24.5 25.5t-24 26 t-45.5 11.5q-31 0 -63 -14.5t-62.5 -49.5t-58 -91t-48.5 -138l-108 -439q-2 -6 -10.5 -12t-14.5 -6h-283q-6 0 -11 5t-1 13zM334 1427q-4 4 0 11.5t14 7.5h150q14 0 32 -19l117 -145l191 145q14 10 25 14.5t18 4.5h159q8 0 9.5 -7t-5.5 -16l-327 -295q-8 -8 -20.5 -14 t-22.5 -6h-123q-10 0 -21.5 7t-15.5 13z" />
<glyph unicode="&#x160;" horiz-adv-x="1249" d="M43 98.5q-6 18.5 0 42.5l51 203q4 18 16.5 29.5t24.5 11.5q10 0 17.5 -5l13.5 -9q33 -33 77 -56.5t92 -39t99 -22.5t98 -7q117 0 188 46t71 118q0 66 -52.5 104.5t-146.5 79.5q-82 33 -145.5 66.5t-107.5 76.5t-66.5 98.5t-22.5 127.5q0 88 45 182t132 171t217 127 t302 50q121 0 209 -21.5t170 -66.5q16 -10 21.5 -23.5t-3.5 -44.5l-63 -250q-4 -20 -16.5 -29t-26.5 -9q-16 0 -25 12q-51 68 -146 103.5t-198 35.5q-111 0 -170 -47t-59 -119q0 -33 16.5 -57.5t44 -45t66.5 -39t84 -38.5q74 -29 135.5 -63.5t105.5 -78.5t67.5 -99.5 t23.5 -129.5q0 -94 -46 -186t-134.5 -166t-213 -119t-282.5 -45t-265.5 26.5t-179.5 78.5q-12 8 -18 26.5zM631 1849q-2 6 1 12.5t13 6.5h148q14 0 30 -17l123 -139l187 139q25 16 45 17h151q8 0 8 -6.5t-4 -10.5l-329 -290q-8 -6 -18.5 -12.5t-20.5 -6.5h-117q-20 0 -35 19 z" />
<glyph unicode="&#x161;" horiz-adv-x="907" d="M-21.5 71.5q-3.5 8.5 1.5 24.5l43 168q6 33 24 33q14 0 27 -14q39 -41 114.5 -68t153.5 -27q68 0 114 25t46 72q0 29 -28 50t-71 42.5t-91 46.5t-91 57.5t-70.5 76.5t-27.5 106q0 74 29.5 140t89 117.5t146.5 82t204 30.5q154 0 236.5 -43t82.5 -114q0 -66 -35.5 -110 t-89.5 -44q-29 0 -48 8t-36 23q-57 51 -151 51q-61 0 -94 -23.5t-33 -64.5q0 -29 27.5 -50.5t69.5 -44t91.5 -47t91 -58.5t69.5 -77t28 -102q0 -88 -35 -155.5t-98.5 -113.5t-150.5 -71t-193 -25q-129 0 -209 22.5t-127 63.5q-6 4 -9.5 12.5zM324 1427q-4 4 0 11.5t14 7.5 h149q14 0 33 -19l117 -145l190 145q14 10 25.5 14.5t17.5 4.5h160q8 0 9 -7t-5 -16l-327 -295q-8 -8 -20.5 -14t-22.5 -6h-123q-10 0 -21.5 7t-15.5 13z" />
<glyph unicode="&#x164;" horiz-adv-x="1273" d="M154 1176l102 251q6 18 18 19h1239q14 0 9 -19l-62 -256q-6 -16 -18 -16q-47 0 -100.5 2t-98.5 2q-68 0 -130 4t-128 11q-10 -57 -22.5 -118t-26.5 -118l-229 -920q-2 -6 -9.5 -12t-13.5 -6h-326q-8 0 -12 6t-2 12l231 924q14 57 31 117.5t33 114.5q-61 -6 -118.5 -10.5 t-119.5 -4.5q-35 0 -63.5 -1t-55 -1t-55 -1t-63.5 -1q-18 0 -10 21zM610 1849q-2 6 1 12.5t14 6.5h147q14 0 31 -17l123 -139l186 139q25 16 45 17h152q8 0 8 -6.5t-4 -10.5l-330 -290q-8 -6 -18.5 -12.5t-20.5 -6.5h-117q-20 0 -34 19z" />
<glyph unicode="&#x165;" horiz-adv-x="751" d="M96 782l47 197q6 18 19 18q33 0 64.5 -3t60.5 -7q2 18 9 52t15 73t16.5 74.5t14.5 58.5q4 20 23 21h282q6 0 11.5 -6.5t0.5 -16.5q-8 -31 -18 -66.5t-20.5 -71.5t-21.5 -66.5t-19 -51.5q66 4 123 7t110 3q12 0 10 -18l-49 -197q-4 -16 -18 -16q-53 0 -112.5 3t-113.5 7 q-8 -53 -18 -106.5t-31 -134.5l-45 -183q-16 -70 5.5 -101.5t93.5 -31.5q43 0 83 21q33 14 23 -15l-49 -209q-4 -4 -10.5 -11t-14.5 -9q-47 -10 -91 -15.5t-81 -5.5q-170 0 -245.5 101.5t-26.5 296.5l41 166q18 74 35.5 130t40.5 107q-33 -4 -69 -7t-67 -3q-12 0 -8 16z M743 1087l86 338q4 20 25 21h190q33 0 13 -37l-154 -322q-4 -6 -12 -12t-14 -6h-121q-8 0 -11.5 6t-1.5 12z" />
<glyph unicode="&#x16e;" horiz-adv-x="1615" d="M152.5 266q-29.5 96 1.5 223l233 936q4 20 23 21h329q6 0 11.5 -6t3.5 -15l-222 -880q-29 -121 37 -183.5t189 -62.5q135 0 235.5 61.5t130.5 182.5l222 882q4 20 22 21h320q6 0 11 -6t3 -15l-234 -931q-31 -121 -105.5 -217.5t-179 -164t-232.5 -103.5t-263 -36 q-131 0 -242.5 34t-187.5 98.5t-105.5 160.5zM852 1675q10 47 38 85t65.5 63.5t84.5 40t97 14.5q100 0 158.5 -53t37.5 -150q-23 -98 -102.5 -146t-179.5 -48q-49 0 -90 12t-69 36.5t-39 60.5t-1 85zM997 1669q-10 -41 12.5 -65.5t59.5 -24.5q41 0 74 24.5t43 65.5 q10 45 -12.5 64.5t-63.5 19.5q-37 0 -69.5 -18.5t-43.5 -65.5z" />
<glyph unicode="&#x16f;" horiz-adv-x="1210" d="M57 205q0 49 5.5 92t21.5 100l145 582q2 6 10.5 12t14.5 6h281q16 0 14 -18l-133 -537q-10 -35 -17.5 -70.5t-7.5 -64.5q0 -45 25.5 -65.5t68.5 -20.5q90 0 175 89t128 261l99 408q2 6 10 12t14 6h283q6 0 11 -4t1 -14l-178 -705q-27 -106 -35 -175.5t-8 -80.5 q-2 -6 -9 -12t-13 -6h-232q-12 0 -12 18t4 47t10 64t14.5 71.5t18.5 69.5q-39 -72 -91 -127t-112.5 -92t-126 -56.5t-129.5 -19.5q-51 0 -96 13.5t-79 42t-54.5 71.5t-20.5 103zM541 1282q23 98 104.5 152.5t177.5 54.5q49 0 89 -14.5t66 -41t36 -64.5t0 -87 q-20 -98 -100 -149.5t-179 -51.5q-47 0 -87 13.5t-67.5 38t-39 62.5t-0.5 87zM688 1276q-10 -37 10.5 -61.5t57.5 -24.5q41 0 70.5 23.5t39.5 60.5q10 41 -10 64.5t-61 23.5q-37 0 -67 -22.5t-40 -63.5z" />
<glyph unicode="&#x17d;" horiz-adv-x="1404" d="M-72.5 16.5q-5.5 16.5 0.5 38.5q2 10 6.5 18.5t16.5 20.5l782 803q86 86 152.5 149.5t142.5 127.5q-102 -10 -199.5 -14.5t-173.5 -4.5q-37 0 -85 -1t-97 -1t-96 -1t-86 -1q-27 0 -15 23l99 251q6 20 22 21h1176q16 0 23.5 -13.5t2.5 -33.5q-2 -10 -8 -20.5t-12 -18.5 l-782 -823q-80 -84 -145.5 -146.5t-137.5 -126.5q94 10 190.5 15.5t206.5 5.5q33 0 83 1t103.5 1t103.5 1t85 1q12 0 18.5 -8.5t0.5 -18.5l-95 -239q-8 -23 -32 -23h-1229q-16 0 -21.5 16.5zM688 1849q-2 6 1 12.5t13 6.5h148q14 0 31 -17l123 -139l186 139q25 16 45 17h151 q8 0 8.5 -6.5t-3.5 -10.5l-330 -290q-8 -6 -18.5 -12.5t-20.5 -6.5h-117q-20 0 -35 19z" />
<glyph unicode="&#x17e;" horiz-adv-x="972" d="M-84 37q0 16 5 25.5t16 19.5l501 534q39 41 77 78t77 70q-45 -2 -99.5 -3t-115.5 -1q-86 0 -142.5 -2t-91.5 -2q-10 0 -13 7t1 15l72 203q8 16 24 16h828q27 0 26 -36q0 -18 -22 -41l-486 -523q-41 -43 -80.5 -85t-84.5 -83q53 4 109 5.5t128 1.5q68 0 126 2t91 2 q12 0 14.5 -8.5t-2.5 -16.5l-69 -197q-6 -18 -29 -18h-831q-27 0 -29 37zM371 1427q-4 4 0 11.5t14 7.5h150q14 0 32 -19l117 -145l190 145q14 10 25.5 14.5t18.5 4.5h159q8 0 9 -7t-5 -16l-327 -295q-8 -8 -20.5 -14t-22.5 -6h-123q-10 0 -21.5 7t-15.5 13z" />
<glyph unicode="&#x2c6;" horiz-adv-x="1044" d="M325 1115q-1 7 5 15l327 295q8 8 20.5 14.5t24.5 6.5h121q10 0 21.5 -7t15.5 -14l180 -299q4 -4 0 -11t-14 -7h-149q-14 0 -33 18l-117 146l-190 -146q-25 -18 -43 -18h-160q-8 0 -9 7z" />
<glyph unicode="&#x2da;" horiz-adv-x="800" d="M358 1282q23 98 105 152.5t178 54.5q49 0 89 -14.5t65.5 -41t36 -64.5t-0.5 -87q-20 -98 -100 -149.5t-178 -51.5q-47 0 -87 13.5t-67.5 38t-39 62.5t-1.5 87zM506 1276q-10 -37 10.5 -61.5t56.5 -24.5q41 0 71 23.5t40 60.5q10 41 -10.5 64.5t-61.5 23.5 q-37 0 -66.5 -22.5t-39.5 -63.5z" />
<glyph unicode="&#x2dc;" horiz-adv-x="1024" d="M330 1149q16 61 40.5 115.5t60.5 94.5t83 63.5t107 23.5q59 0 93 -20.5t58.5 -46t46 -46t55.5 -20.5q37 0 74 29.5t51 82.5q6 23 25 23q6 0 18.5 -1t24.5 -4t20.5 -8t6.5 -14q-35 -139 -106 -224t-169 -85q-47 0 -79.5 23.5t-61.5 51t-56.5 51.5t-62.5 24q-47 0 -82 -33 t-47 -80q-6 -27 -31 -27q-8 0 -20 2t-23.5 5.5t-19.5 8.5t-6 11z" />
<glyph unicode="&#x2000;" horiz-adv-x="939" />
<glyph unicode="&#x2001;" horiz-adv-x="1878" />
<glyph unicode="&#x2002;" horiz-adv-x="939" />
<glyph unicode="&#x2003;" horiz-adv-x="1878" />
<glyph unicode="&#x2004;" horiz-adv-x="626" />
<glyph unicode="&#x2005;" horiz-adv-x="469" />
<glyph unicode="&#x2006;" horiz-adv-x="313" />
<glyph unicode="&#x2007;" horiz-adv-x="313" />
<glyph unicode="&#x2008;" horiz-adv-x="234" />
<glyph unicode="&#x2009;" horiz-adv-x="375" />
<glyph unicode="&#x200a;" horiz-adv-x="104" />
<glyph unicode="&#x2010;" horiz-adv-x="686" d="M78 438l57 236q4 20 25 20h465q16 0 12 -20l-59 -236q-2 -6 -10.5 -12t-14.5 -6h-463q-8 0 -11 6t-1 12z" />
<glyph unicode="&#x2011;" horiz-adv-x="686" d="M78 438l57 236q4 20 25 20h465q16 0 12 -20l-59 -236q-2 -6 -10.5 -12t-14.5 -6h-463q-8 0 -11 6t-1 12z" />
<glyph unicode="&#x2012;" horiz-adv-x="686" d="M78 438l57 236q4 20 25 20h465q16 0 12 -20l-59 -236q-2 -6 -10.5 -12t-14.5 -6h-463q-8 0 -11 6t-1 12z" />
<glyph unicode="&#x2013;" horiz-adv-x="1062" d="M76 444l55 224q8 20 25 20h850q6 0 11 -6t1 -14l-55 -224q-4 -6 -11.5 -12t-13.5 -6h-850q-8 0 -11 6t-1 12z" />
<glyph unicode="&#x2014;" horiz-adv-x="1492" d="M76 444l55 224q8 20 25 20h1284q16 0 12 -20l-55 -224q-4 -6 -11.5 -12t-13.5 -6h-1284q-8 0 -11 6t-1 12z" />
<glyph unicode="&#x2018;" horiz-adv-x="512" d="M208 1033q-5 7 5 24l322 479q16 27 28 27h129q25 0 15 -27l-211 -489q-4 -8 -10.5 -14.5t-14.5 -6.5h-248q-10 0 -15 7z" />
<glyph unicode="&#x2019;" horiz-adv-x="512" d="M219 1053l213 489q8 20 23 21h247q12 0 17.5 -7.5t-4.5 -21.5l-324 -481q-8 -12 -19.5 -19.5t-17.5 -7.5h-121q-29 0 -14 27z" />
<glyph unicode="&#x201a;" horiz-adv-x="512" d="M-100 -188l211 489q8 20 24 21h248q10 0 14 -7.5t-6 -21.5l-319 -481q-20 -27 -31 -27h-129q-29 0 -12 27z" />
<glyph unicode="&#x201c;" horiz-adv-x="921" d="M207 1033q-4 7 6 24l319 479q20 27 31 27h129q25 0 15 -27l-211 -489q-8 -20 -25 -21h-248q-12 0 -16 7zM619.5 1033q-5.5 7 5.5 24l321 479q20 27 31 27h127q29 0 12 -27l-207 -489q-4 -8 -11 -14.5t-15 -6.5h-248q-10 0 -15.5 7z" />
<glyph unicode="&#x201d;" horiz-adv-x="917" d="M209 1053l211 489q4 20 22 21h250q10 0 14.5 -7.5t-4.5 -21.5l-321 -481q-20 -27 -31 -27h-127q-29 0 -14 27zM621 1053l208 489q4 8 11.5 14.5t15.5 6.5h248q10 0 15 -7.5t-5 -21.5l-321 -481q-20 -27 -29 -27h-129q-25 0 -14 27z" />
<glyph unicode="&#x201e;" horiz-adv-x="917" d="M-102 -188l211 489q4 20 22 21h250q10 0 14 -7.5t-6 -21.5l-319 -481q-23 -27 -33 -27h-127q-29 0 -12 27zM309 -188l209 489q8 20 25 21h250q10 0 14 -7.5t-6 -21.5l-320 -481q-23 -27 -30 -27h-129q-27 0 -13 27z" />
<glyph unicode="&#x2026;" horiz-adv-x="1763" d="M70 160q0 78 54 132t132 54q39 0 74 -14.5t60.5 -40t39.5 -59t14 -72.5q0 -80 -54 -135.5t-134 -55.5q-39 0 -72.5 14.5t-59.5 41t-40 60.5t-14 75zM627 160q0 39 14 72.5t40 59t59.5 40t74.5 14.5q39 0 73 -14.5t59.5 -40t39.5 -59t14 -72.5q0 -41 -14 -75t-39.5 -60.5 t-59.5 -41t-73 -14.5q-80 0 -134 55.5t-54 135.5zM1184 160q0 39 14 72.5t40 59t59.5 40t74.5 14.5q78 0 132.5 -54t54.5 -132q0 -41 -14.5 -75t-40 -60.5t-59.5 -41t-73 -14.5q-80 0 -134 55.5t-54 135.5z" />
<glyph unicode="&#x202f;" horiz-adv-x="375" />
<glyph unicode="&#x2039;" horiz-adv-x="804" d="M84 455.5q-2 13.5 8 52.5t16.5 50t20.5 20l684 409q31 16 25 -14l-31 -123q-4 -12 -10 -21.5t-23 -23.5l-360 -283l215 -313q10 -12 10 -20.5t-2 -18.5l-35 -133q-2 -10 -11 -13.5t-16 1.5l-483 413q-6 4 -8 17.5z" />
<glyph unicode="&#x203a;" horiz-adv-x="804" d="M-23 43l29 123q4 12 9 21.5t24 23.5l360 283l-215 313q-10 12 -10 20.5t4 18.5l33 133q4 10 12 13t15 -1l485 -413q4 -4 6 -17.5t-8 -52.5t-15.5 -50.5t-19.5 -19.5l-684 -409q-35 -18 -25 14z" />
<glyph unicode="&#x205f;" horiz-adv-x="469" />
<glyph unicode="&#x20ac;" horiz-adv-x="1327" d="M44 488.5q-1 9.5 3 21.5l31 125q8 23 31 22q31 0 66.5 -3t60.5 -7q6 33 14 64q6 29 15 54.5t20 53.5q-41 -2 -80 -2h-66q-16 0 -10 25l33 129q6 23 33 22h36.5h46t46 -1t34.5 -3q61 102 140.5 194.5t176.5 161t213 108.5t253 40q119 0 187.5 -23.5t121.5 -62.5 q12 -10 13 -21.5t-3 -25.5l-55 -227q-10 -39 -43 -39q-12 0 -21 12q-41 43 -106.5 72.5t-163.5 29.5q-133 0 -229.5 -62.5t-159.5 -158.5q53 4 92 5t86 1h144q20 0 12 -24l-33 -129q-4 -23 -29 -23h-137q-53 0 -105.5 1t-103.5 5q-14 -43 -26 -92q-6 -23 -9.5 -47.5 t-7.5 -38.5q111 12 207 12h146q18 0 14 -22l-33 -131q-6 -25 -31 -25h-139q-51 0 -91 2t-85 11q10 -125 77.5 -189.5t188.5 -64.5q106 0 190.5 26.5t137.5 69.5q14 12 35 12q20 0 12 -43l-49 -194q-6 -35 -41 -52q-143 -84 -393 -84q-121 0 -214.5 41t-157 112t-94 165 t-28.5 198q-43 -6 -90 -8t-72 -2q-10 0 -11 9.5z" />
<glyph unicode="&#x2122;" horiz-adv-x="1556" d="M281 1315l38 119q2 12 9 12h491q8 0 6 -12l-22 -119q0 -8 -8 -8l-166 6l-99 -385q-6 -10 -12 -10h-151q-12 0 -7 10l97 385l-172 -6q-4 0 -4 8zM809 928l127 506l4 8t6 4h248q10 0 14 -12v-353l172 353q6 12 17 12h239q4 0 7.5 -4t1.5 -8l-127 -506q-6 -10 -15 -10h-145 q-10 0 -4 10l108 407l-217 -411q0 -6 -10 -6h-150q-4 0 -4 2t-2 4l-12 411l-88 -407q-6 -10 -14 -10h-152q-10 0 -4 10z" />
<glyph unicode="&#x25fc;" horiz-adv-x="993" d="M0 0v993h993v-993h-993z" />
</font>
</defs>
</svg>
